<svg width="209" height="160" viewBox="0 0 209 160" fill="none" xmlns="http://www.w3.org/2000/svg">
<rect x="2" y="2" width="205" height="156" rx="6" fill="#FFE8A3" stroke="#DDBC00" stroke-width="4" stroke-linecap="round"/>
<path d="M72.0507 38V26.3636H73.8063V31.4205H79.6075V26.3636H81.3688V38H79.6075V32.9261H73.8063V38H72.0507ZM87.3747 38.1761C86.5148 38.1761 85.7743 37.9924 85.1531 37.625C84.5356 37.2538 84.0584 36.733 83.7213 36.0625C83.3879 35.3883 83.2213 34.5985 83.2213 33.6932C83.2213 32.7992 83.3879 32.0114 83.7213 31.3295C84.0584 30.6477 84.5281 30.1155 85.1303 29.733C85.7364 29.3504 86.4447 29.1591 87.2553 29.1591C87.7478 29.1591 88.225 29.2405 88.6872 29.4034C89.1493 29.5663 89.5641 29.822 89.9315 30.1705C90.2989 30.5189 90.5887 30.9716 90.8008 31.5284C91.0129 32.0814 91.119 32.7538 91.119 33.5455V34.1477H84.1815V32.875H89.4542C89.4542 32.428 89.3633 32.0322 89.1815 31.6875C88.9997 31.339 88.744 31.0644 88.4144 30.8636C88.0887 30.6629 87.7061 30.5625 87.2667 30.5625C86.7894 30.5625 86.3728 30.6799 86.0167 30.9148C85.6644 31.1458 85.3917 31.4489 85.1985 31.8239C85.0091 32.1951 84.9144 32.5985 84.9144 33.0341V34.0284C84.9144 34.6117 85.0167 35.108 85.2213 35.517C85.4296 35.9261 85.7194 36.2386 86.0906 36.4545C86.4618 36.6667 86.8955 36.7727 87.3917 36.7727C87.7137 36.7727 88.0072 36.7273 88.2724 36.6364C88.5375 36.5417 88.7667 36.4015 88.9599 36.2159C89.1531 36.0303 89.3008 35.8011 89.4031 35.5284L91.011 35.8182C90.8822 36.2917 90.6512 36.7064 90.3178 37.0625C89.9883 37.4148 89.5735 37.6894 89.0735 37.8864C88.5773 38.0795 88.011 38.1761 87.3747 38.1761ZM91.9756 40.517V36.5284H92.6859C92.8677 36.3617 93.0211 36.1629 93.1461 35.9318C93.2749 35.7008 93.3828 35.4261 93.47 35.108C93.5609 34.7898 93.6366 34.4186 93.6972 33.9943C93.7578 33.5663 93.8109 33.0777 93.8563 32.5284L94.1291 29.2727H100.061V36.5284H101.402V40.517H99.7427V38H93.6575V40.517H91.9756ZM94.5041 36.5284H98.4018V30.7273H95.6518L95.47 32.5284C95.3828 33.4451 95.273 34.2405 95.1404 34.9148C95.0078 35.5852 94.7957 36.1231 94.5041 36.5284ZM105.426 38.1932C104.873 38.1932 104.373 38.0909 103.926 37.8864C103.479 37.678 103.125 37.3769 102.864 36.983C102.606 36.589 102.477 36.1061 102.477 35.5341C102.477 35.0417 102.572 34.6364 102.761 34.3182C102.951 34 103.206 33.7481 103.528 33.5625C103.85 33.3769 104.21 33.2367 104.608 33.142C105.006 33.0473 105.411 32.9754 105.824 32.9261C106.347 32.8655 106.771 32.8163 107.097 32.7784C107.422 32.7367 107.659 32.6705 107.807 32.5795C107.954 32.4886 108.028 32.3409 108.028 32.1364V32.0966C108.028 31.6004 107.888 31.2159 107.608 30.9432C107.331 30.6705 106.918 30.5341 106.369 30.5341C105.797 30.5341 105.347 30.661 105.017 30.9148C104.691 31.1648 104.466 31.4432 104.341 31.75L102.744 31.3864C102.934 30.8561 103.21 30.428 103.574 30.1023C103.941 29.7727 104.364 29.5341 104.841 29.3864C105.318 29.2348 105.82 29.1591 106.347 29.1591C106.695 29.1591 107.064 29.2008 107.454 29.2841C107.848 29.3636 108.216 29.5114 108.557 29.7273C108.901 29.9432 109.184 30.2519 109.403 30.6534C109.623 31.0511 109.733 31.5682 109.733 32.2045V38H108.074V36.8068H108.006C107.896 37.0265 107.731 37.2424 107.511 37.4545C107.292 37.6667 107.009 37.8428 106.665 37.983C106.32 38.1231 105.907 38.1932 105.426 38.1932ZM105.795 36.8295C106.265 36.8295 106.667 36.7367 107 36.5511C107.337 36.3655 107.593 36.1231 107.767 35.8239C107.945 35.5208 108.034 35.197 108.034 34.8523V33.7273C107.973 33.7879 107.856 33.8447 107.682 33.8977C107.511 33.947 107.316 33.9905 107.097 34.0284C106.877 34.0625 106.663 34.0947 106.454 34.125C106.246 34.1515 106.072 34.1742 105.932 34.1932C105.602 34.2348 105.301 34.3049 105.028 34.4034C104.759 34.5019 104.543 34.6439 104.381 34.8295C104.222 35.0114 104.142 35.2538 104.142 35.5568C104.142 35.9773 104.297 36.2955 104.608 36.5114C104.918 36.7235 105.314 36.8295 105.795 36.8295ZM111.82 38V29.2727H115.439C116.424 29.2727 117.204 29.483 117.78 29.9034C118.356 30.3201 118.644 30.8864 118.644 31.6023C118.644 32.1136 118.481 32.5189 118.155 32.8182C117.829 33.1174 117.397 33.3182 116.859 33.4205C117.25 33.4659 117.608 33.5833 117.933 33.7727C118.259 33.9583 118.52 34.2083 118.717 34.5227C118.918 34.8371 119.019 35.2121 119.019 35.6477C119.019 36.1098 118.899 36.5189 118.661 36.875C118.422 37.2273 118.075 37.5038 117.621 37.7045C117.17 37.9015 116.626 38 115.99 38H111.82ZM113.416 36.5795H115.99C116.411 36.5795 116.74 36.4792 116.979 36.2784C117.217 36.0777 117.337 35.8049 117.337 35.4602C117.337 35.0549 117.217 34.7367 116.979 34.5057C116.74 34.2708 116.411 34.1534 115.99 34.1534H113.416V36.5795ZM113.416 32.9091H115.456C115.774 32.9091 116.047 32.8636 116.274 32.7727C116.505 32.6818 116.681 32.553 116.803 32.3864C116.928 32.2159 116.99 32.0152 116.99 31.7841C116.99 31.447 116.852 31.1837 116.575 30.9943C116.299 30.8049 115.92 30.7102 115.439 30.7102H113.416V32.9091ZM126.621 32.9034V34.375H121.894V32.9034H126.621ZM122.371 29.2727V38H120.706V29.2727H122.371ZM127.808 29.2727V38H126.149V29.2727H127.808ZM133.581 38.1761C132.763 38.1761 132.049 37.9886 131.439 37.6136C130.829 37.2386 130.356 36.714 130.019 36.0398C129.682 35.3655 129.513 34.5777 129.513 33.6761C129.513 32.7708 129.682 31.9792 130.019 31.3011C130.356 30.6231 130.829 30.0966 131.439 29.7216C132.049 29.3466 132.763 29.1591 133.581 29.1591C134.399 29.1591 135.114 29.3466 135.723 29.7216C136.333 30.0966 136.807 30.6231 137.144 31.3011C137.481 31.9792 137.649 32.7708 137.649 33.6761C137.649 34.5777 137.481 35.3655 137.144 36.0398C136.807 36.714 136.333 37.2386 135.723 37.6136C135.114 37.9886 134.399 38.1761 133.581 38.1761ZM133.587 36.75C134.117 36.75 134.557 36.6098 134.905 36.3295C135.254 36.0492 135.511 35.6761 135.678 35.2102C135.848 34.7443 135.934 34.2311 135.934 33.6705C135.934 33.1136 135.848 32.6023 135.678 32.1364C135.511 31.6667 135.254 31.2898 134.905 31.0057C134.557 30.7216 134.117 30.5795 133.587 30.5795C133.053 30.5795 132.61 30.7216 132.257 31.0057C131.909 31.2898 131.649 31.6667 131.479 32.1364C131.312 32.6023 131.229 33.1136 131.229 33.6705C131.229 34.2311 131.312 34.7443 131.479 35.2102C131.649 35.6761 131.909 36.0492 132.257 36.3295C132.61 36.6098 133.053 36.75 133.587 36.75ZM51.5363 59.6932H53.2749C53.2976 60.0492 53.4586 60.3239 53.7578 60.517C54.0609 60.7102 54.4529 60.8068 54.934 60.8068C55.4226 60.8068 55.8393 60.7027 56.184 60.4943C56.5287 60.2822 56.701 59.9545 56.701 59.5114C56.701 59.2462 56.6347 59.0152 56.5022 58.8182C56.3734 58.6174 56.1897 58.4621 55.951 58.3523C55.7162 58.2424 55.4378 58.1875 55.1158 58.1875H53.6953V56.8523H55.1158C55.5969 56.8523 55.9567 56.7424 56.1953 56.5227C56.434 56.303 56.5533 56.0284 56.5533 55.6989C56.5533 55.3428 56.4245 55.0568 56.1669 54.8409C55.9131 54.6212 55.559 54.5114 55.1044 54.5114C54.6423 54.5114 54.2578 54.6155 53.951 54.8239C53.6442 55.0284 53.4832 55.2936 53.4681 55.6193H51.7522C51.7635 55.1307 51.9113 54.7027 52.1953 54.3352C52.4832 53.964 52.8696 53.6761 53.3544 53.4716C53.8431 53.2633 54.398 53.1591 55.0192 53.1591C55.6669 53.1591 56.2275 53.2633 56.701 53.4716C57.1745 53.6799 57.54 53.9678 57.7976 54.3352C58.059 54.7027 58.1897 55.125 58.1897 55.6023C58.1897 56.0833 58.0457 56.4773 57.7578 56.7841C57.4738 57.0871 57.1025 57.3049 56.6442 57.4375V57.5284C56.9813 57.5511 57.2806 57.6534 57.5419 57.8352C57.8033 58.017 58.0078 58.2576 58.1556 58.5568C58.3033 58.8561 58.3772 59.1951 58.3772 59.5739C58.3772 60.108 58.2294 60.5701 57.934 60.9602C57.6423 61.3504 57.237 61.6515 56.7181 61.8636C56.2029 62.072 55.6139 62.1761 54.951 62.1761C54.3071 62.1761 53.7294 62.0758 53.2181 61.875C52.7105 61.6705 52.3071 61.3826 52.0078 61.0114C51.7124 60.6402 51.5552 60.2008 51.5363 59.6932ZM62.4952 62.1932C61.9422 62.1932 61.4422 62.0909 60.9952 61.8864C60.5482 61.678 60.1941 61.3769 59.9327 60.983C59.6751 60.589 59.5463 60.1061 59.5463 59.5341C59.5463 59.0417 59.641 58.6364 59.8304 58.3182C60.0198 58 60.2755 57.7481 60.5975 57.5625C60.9194 57.3769 61.2793 57.2367 61.677 57.142C62.0747 57.0473 62.48 56.9754 62.8929 56.9261C63.4157 56.8655 63.8399 56.8163 64.1657 56.7784C64.4914 56.7367 64.7282 56.6705 64.8759 56.5795C65.0236 56.4886 65.0975 56.3409 65.0975 56.1364V56.0966C65.0975 55.6004 64.9573 55.2159 64.677 54.9432C64.4005 54.6705 63.9876 54.5341 63.4384 54.5341C62.8664 54.5341 62.4157 54.661 62.0861 54.9148C61.7603 55.1648 61.535 55.4432 61.41 55.75L59.8134 55.3864C60.0028 54.8561 60.2793 54.428 60.6429 54.1023C61.0103 53.7727 61.4327 53.5341 61.91 53.3864C62.3872 53.2348 62.8891 53.1591 63.4157 53.1591C63.7641 53.1591 64.1335 53.2008 64.5236 53.2841C64.9175 53.3636 65.285 53.5114 65.6259 53.7273C65.9706 53.9432 66.2528 54.2519 66.4725 54.6534C66.6922 55.0511 66.802 55.5682 66.802 56.2045V62H65.1429V60.8068H65.0747C64.9649 61.0265 64.8001 61.2424 64.5804 61.4545C64.3607 61.6667 64.0785 61.8428 63.7338 61.983C63.3891 62.1231 62.9763 62.1932 62.4952 62.1932ZM62.8645 60.8295C63.3342 60.8295 63.7357 60.7367 64.0691 60.5511C64.4062 60.3655 64.6619 60.1231 64.8361 59.8239C65.0141 59.5208 65.1032 59.197 65.1032 58.8523V57.7273C65.0425 57.7879 64.9251 57.8447 64.7509 57.8977C64.5804 57.947 64.3853 57.9905 64.1657 58.0284C63.946 58.0625 63.7319 58.0947 63.5236 58.125C63.3153 58.1515 63.141 58.1742 63.0009 58.1932C62.6713 58.2348 62.3702 58.3049 62.0975 58.4034C61.8285 58.5019 61.6126 58.6439 61.4497 58.8295C61.2907 59.0114 61.2111 59.2538 61.2111 59.5568C61.2111 59.9773 61.3664 60.2955 61.677 60.5114C61.9876 60.7235 62.3835 60.8295 62.8645 60.8295ZM68.8888 62V53.2727H72.5081C73.493 53.2727 74.2733 53.483 74.849 53.9034C75.4248 54.3201 75.7127 54.8864 75.7127 55.6023C75.7127 56.1136 75.5498 56.5189 75.224 56.8182C74.8983 57.1174 74.4664 57.3182 73.9286 57.4205C74.3187 57.4659 74.6767 57.5833 75.0024 57.7727C75.3282 57.9583 75.5896 58.2083 75.7865 58.5227C75.9873 58.8371 76.0877 59.2121 76.0877 59.6477C76.0877 60.1098 75.9683 60.5189 75.7297 60.875C75.4911 61.2273 75.1445 61.5038 74.6899 61.7045C74.2392 61.9015 73.6956 62 73.0592 62H68.8888ZM70.4854 60.5795H73.0592C73.4797 60.5795 73.8093 60.4792 74.0479 60.2784C74.2865 60.0777 74.4058 59.8049 74.4058 59.4602C74.4058 59.0549 74.2865 58.7367 74.0479 58.5057C73.8093 58.2708 73.4797 58.1534 73.0592 58.1534H70.4854V60.5795ZM70.4854 56.9091H72.5252C72.8433 56.9091 73.1161 56.8636 73.3433 56.7727C73.5744 56.6818 73.7505 56.553 73.8717 56.3864C73.9967 56.2159 74.0592 56.0152 74.0592 55.7841C74.0592 55.447 73.921 55.1837 73.6445 54.9943C73.368 54.8049 72.9892 54.7102 72.5081 54.7102H70.4854V56.9091ZM81.5367 62.1761C80.6768 62.1761 79.9363 61.9924 79.3151 61.625C78.6976 61.2538 78.2204 60.733 77.8833 60.0625C77.5499 59.3883 77.3833 58.5985 77.3833 57.6932C77.3833 56.7992 77.5499 56.0114 77.8833 55.3295C78.2204 54.6477 78.6901 54.1155 79.2923 53.733C79.8984 53.3504 80.6067 53.1591 81.4173 53.1591C81.9098 53.1591 82.387 53.2405 82.8492 53.4034C83.3113 53.5663 83.7261 53.822 84.0935 54.1705C84.4609 54.5189 84.7507 54.9716 84.9628 55.5284C85.1749 56.0814 85.281 56.7538 85.281 57.5455V58.1477H78.3435V56.875H83.6162C83.6162 56.428 83.5253 56.0322 83.3435 55.6875C83.1617 55.339 82.906 55.0644 82.5764 54.8636C82.2507 54.6629 81.8681 54.5625 81.4287 54.5625C80.9514 54.5625 80.5348 54.6799 80.1787 54.9148C79.8264 55.1458 79.5537 55.4489 79.3605 55.8239C79.1711 56.1951 79.0764 56.5985 79.0764 57.0341V58.0284C79.0764 58.6117 79.1787 59.108 79.3833 59.517C79.5916 59.9261 79.8814 60.2386 80.2526 60.4545C80.6238 60.6667 81.0575 60.7727 81.5537 60.7727C81.8757 60.7727 82.1692 60.7273 82.4344 60.6364C82.6995 60.5417 82.9287 60.4015 83.1219 60.2159C83.3151 60.0303 83.4628 59.8011 83.5651 59.5284L85.173 59.8182C85.0442 60.2917 84.8132 60.7064 84.4798 61.0625C84.1503 61.4148 83.7355 61.6894 83.2355 61.8864C82.7393 62.0795 82.173 62.1761 81.5367 62.1761ZM86.9899 65.2727V53.2727H88.649V54.6875H88.7911C88.8895 54.5057 89.0316 54.2955 89.2172 54.0568C89.4028 53.8182 89.6604 53.6098 89.9899 53.4318C90.3195 53.25 90.7551 53.1591 91.2967 53.1591C92.0013 53.1591 92.6301 53.3371 93.1831 53.6932C93.7361 54.0492 94.1698 54.5625 94.4842 55.233C94.8024 55.9034 94.9615 56.7102 94.9615 57.6534C94.9615 58.5966 94.8043 59.4053 94.4899 60.0795C94.1755 60.75 93.7437 61.267 93.1945 61.6307C92.6452 61.9905 92.0183 62.1705 91.3138 62.1705C90.7835 62.1705 90.3498 62.0814 90.0127 61.9034C89.6793 61.7254 89.418 61.517 89.2286 61.2784C89.0392 61.0398 88.8933 60.8277 88.7911 60.642H88.6888V65.2727H86.9899ZM88.6547 57.6364C88.6547 58.25 88.7437 58.7879 88.9217 59.25C89.0998 59.7121 89.3573 60.0739 89.6945 60.3352C90.0316 60.5928 90.4445 60.7216 90.9331 60.7216C91.4407 60.7216 91.8649 60.5871 92.2058 60.3182C92.5467 60.0455 92.8043 59.6761 92.9786 59.2102C93.1566 58.7443 93.2456 58.2197 93.2456 57.6364C93.2456 57.0606 93.1585 56.5436 92.9842 56.0852C92.8138 55.6269 92.5562 55.2652 92.2115 55C91.8706 54.7348 91.4445 54.6023 90.9331 54.6023C90.4407 54.6023 90.024 54.7292 89.6831 54.983C89.346 55.2367 89.0903 55.5909 88.9161 56.0455C88.7418 56.5 88.6547 57.0303 88.6547 57.6364ZM96.6889 53.2727H98.3537V60.5284H101.371V53.2727H103.036V60.5284H106.053V53.2727H107.717V62H96.6889V53.2727ZM113.571 62.1761C112.711 62.1761 111.971 61.9924 111.35 61.625C110.732 61.2538 110.255 60.733 109.918 60.0625C109.584 59.3883 109.418 58.5985 109.418 57.6932C109.418 56.7992 109.584 56.0114 109.918 55.3295C110.255 54.6477 110.725 54.1155 111.327 53.733C111.933 53.3504 112.641 53.1591 113.452 53.1591C113.944 53.1591 114.422 53.2405 114.884 53.4034C115.346 53.5663 115.761 53.822 116.128 54.1705C116.495 54.5189 116.785 54.9716 116.997 55.5284C117.209 56.0814 117.315 56.7538 117.315 57.5455V58.1477H110.378V56.875H115.651C115.651 56.428 115.56 56.0322 115.378 55.6875C115.196 55.339 114.94 55.0644 114.611 54.8636C114.285 54.6629 113.903 54.5625 113.463 54.5625C112.986 54.5625 112.569 54.6799 112.213 54.9148C111.861 55.1458 111.588 55.4489 111.395 55.8239C111.206 56.1951 111.111 56.5985 111.111 57.0341V58.0284C111.111 58.6117 111.213 59.108 111.418 59.517C111.626 59.9261 111.916 60.2386 112.287 60.4545C112.658 60.6667 113.092 60.7727 113.588 60.7727C113.91 60.7727 114.204 60.7273 114.469 60.6364C114.734 60.5417 114.963 60.4015 115.156 60.2159C115.35 60.0303 115.497 59.8011 115.6 59.5284L117.208 59.8182C117.079 60.2917 116.848 60.7064 116.514 61.0625C116.185 61.4148 115.77 61.6894 115.27 61.8864C114.774 62.0795 114.208 62.1761 113.571 62.1761ZM111.719 51.9034C111.45 51.9034 111.215 51.8049 111.014 51.608C110.814 51.4072 110.713 51.1761 110.713 50.9148C110.713 50.6307 110.814 50.3939 111.014 50.2045C111.215 50.0152 111.45 49.9205 111.719 49.9205C112.003 49.9205 112.24 50.0152 112.429 50.2045C112.622 50.3939 112.719 50.6307 112.719 50.9148C112.719 51.1761 112.622 51.4072 112.429 51.608C112.24 51.8049 112.003 51.9034 111.719 51.9034ZM115.06 51.9034C114.791 51.9034 114.556 51.8049 114.355 51.608C114.154 51.4072 114.054 51.1761 114.054 50.9148C114.054 50.6307 114.154 50.3939 114.355 50.2045C114.556 50.0152 114.791 49.9205 115.06 49.9205C115.344 49.9205 115.581 50.0152 115.77 50.2045C115.963 50.3939 116.06 50.6307 116.06 50.9148C116.06 51.1761 115.963 51.4072 115.77 51.608C115.581 51.8049 115.344 51.9034 115.06 51.9034ZM124.939 56.9034V58.375H120.212V56.9034H124.939ZM120.689 53.2727V62H119.024V53.2727H120.689ZM126.127 53.2727V62H124.468V53.2727H126.127ZM134.138 56.9034V58.375H129.411V56.9034H134.138ZM129.888 53.2727V62H128.223V53.2727H129.888ZM135.326 53.2727V62H133.667V53.2727H135.326ZM138.701 56.2727H141.235C142.303 56.2727 143.125 56.5379 143.701 57.0682C144.277 57.5985 144.564 58.2822 144.564 59.1193C144.564 59.6648 144.436 60.1553 144.178 60.5909C143.921 61.0265 143.544 61.3712 143.047 61.625C142.551 61.875 141.947 62 141.235 62H137.422V53.2727H139.087V60.5341H141.235C141.724 60.5341 142.125 60.4072 142.439 60.1534C142.754 59.8958 142.911 59.5682 142.911 59.1705C142.911 58.75 142.754 58.4072 142.439 58.142C142.125 57.8731 141.724 57.7386 141.235 57.7386H138.701V56.2727ZM145.803 62V53.2727H147.502V62H145.803ZM151.271 59.6193L155.117 53.2727H156.947V62H155.282V55.6477L151.452 62H149.606V53.2727H151.271V59.6193ZM154.39 50.3182H155.788C155.788 50.9583 155.56 51.4792 155.106 51.8807C154.655 52.2784 154.045 52.4773 153.276 52.4773C152.511 52.4773 151.903 52.2784 151.452 51.8807C151.002 51.4792 150.776 50.9583 150.776 50.3182H152.168C152.168 50.6023 152.252 50.8542 152.418 51.0739C152.585 51.2898 152.871 51.3977 153.276 51.3977C153.674 51.3977 153.958 51.2898 154.129 51.0739C154.303 50.858 154.39 50.6061 154.39 50.3182ZM23.1067 86V74.3636H27.368C28.1938 74.3636 28.8775 74.5 29.4192 74.7727C29.9608 75.0417 30.3661 75.4072 30.6351 75.8693C30.904 76.3277 31.0385 76.8447 31.0385 77.4205C31.0385 77.9053 30.9495 78.3144 30.7714 78.6477C30.5934 78.9773 30.3548 79.2424 30.0555 79.4432C29.7601 79.6402 29.4343 79.7841 29.0782 79.875V79.9886C29.4646 80.0076 29.8415 80.1326 30.2089 80.3636C30.5801 80.5909 30.887 80.9148 31.1294 81.3352C31.3718 81.7557 31.493 82.267 31.493 82.8693C31.493 83.464 31.3529 83.9981 31.0726 84.4716C30.7961 84.9413 30.368 85.3144 29.7885 85.5909C29.2089 85.8636 28.4684 86 27.5669 86H23.1067ZM24.8623 84.4943H27.3964C28.2373 84.4943 28.8396 84.3314 29.2032 84.0057C29.5669 83.6799 29.7487 83.2727 29.7487 82.7841C29.7487 82.4167 29.6559 82.0795 29.4703 81.7727C29.2847 81.4659 29.0195 81.2216 28.6748 81.0398C28.3339 80.858 27.9286 80.767 27.4589 80.767H24.8623V84.4943ZM24.8623 79.3977H27.2146C27.6086 79.3977 27.9627 79.322 28.2771 79.1705C28.5953 79.0189 28.8472 78.8068 29.0328 78.5341C29.2222 78.2576 29.3169 77.9318 29.3169 77.5568C29.3169 77.0758 29.1483 76.6723 28.8112 76.3466C28.4741 76.0208 27.957 75.858 27.2601 75.858H24.8623V79.3977ZM36.9392 86.1761C36.121 86.1761 35.407 85.9886 34.7971 85.6136C34.1873 85.2386 33.7138 84.714 33.3767 84.0398C33.0396 83.3655 32.871 82.5777 32.871 81.6761C32.871 80.7708 33.0396 79.9792 33.3767 79.3011C33.7138 78.6231 34.1873 78.0966 34.7971 77.7216C35.407 77.3466 36.121 77.1591 36.9392 77.1591C37.7574 77.1591 38.4714 77.3466 39.0812 77.7216C39.6911 78.0966 40.1646 78.6231 40.5017 79.3011C40.8388 79.9792 41.0074 80.7708 41.0074 81.6761C41.0074 82.5777 40.8388 83.3655 40.5017 84.0398C40.1646 84.714 39.6911 85.2386 39.0812 85.6136C38.4714 85.9886 37.7574 86.1761 36.9392 86.1761ZM36.9449 84.75C37.4752 84.75 37.9146 84.6098 38.263 84.3295C38.6115 84.0492 38.8691 83.6761 39.0358 83.2102C39.2062 82.7443 39.2915 82.2311 39.2915 81.6705C39.2915 81.1136 39.2062 80.6023 39.0358 80.1364C38.8691 79.6667 38.6115 79.2898 38.263 79.0057C37.9146 78.7216 37.4752 78.5795 36.9449 78.5795C36.4108 78.5795 35.9676 78.7216 35.6153 79.0057C35.2668 79.2898 35.0074 79.6667 34.8369 80.1364C34.6702 80.6023 34.5869 81.1136 34.5869 81.6705C34.5869 82.2311 34.6702 82.7443 34.8369 83.2102C35.0074 83.6761 35.2668 84.0492 35.6153 84.3295C35.9676 84.6098 36.4108 84.75 36.9449 84.75ZM42.7277 86V77.2727H46.347C47.3318 77.2727 48.1121 77.483 48.6879 77.9034C49.2637 78.3201 49.5515 78.8864 49.5515 79.6023C49.5515 80.1136 49.3887 80.5189 49.0629 80.8182C48.7371 81.1174 48.3053 81.3182 47.7674 81.4205C48.1576 81.4659 48.5155 81.5833 48.8413 81.7727C49.1671 81.9583 49.4284 82.2083 49.6254 82.5227C49.8262 82.8371 49.9265 83.2121 49.9265 83.6477C49.9265 84.1098 49.8072 84.5189 49.5686 84.875C49.3299 85.2273 48.9834 85.5038 48.5288 85.7045C48.078 85.9015 47.5345 86 46.8981 86H42.7277ZM44.3243 84.5795H46.8981C47.3186 84.5795 47.6481 84.4792 47.8868 84.2784C48.1254 84.0777 48.2447 83.8049 48.2447 83.4602C48.2447 83.0549 48.1254 82.7367 47.8868 82.5057C47.6481 82.2708 47.3186 82.1534 46.8981 82.1534H44.3243V84.5795ZM44.3243 80.9091H46.364C46.6822 80.9091 46.9549 80.8636 47.1822 80.7727C47.4133 80.6818 47.5894 80.553 47.7106 80.3864C47.8356 80.2159 47.8981 80.0152 47.8981 79.7841C47.8981 79.447 47.7599 79.1837 47.4834 78.9943C47.2068 78.8049 46.828 78.7102 46.347 78.7102H44.3243V80.9091ZM50.9267 86L50.921 84.5284H51.2335C51.4759 84.5284 51.6786 84.4773 51.8414 84.375C52.0081 84.2689 52.1445 84.0909 52.2505 83.8409C52.3566 83.5909 52.438 83.2462 52.4948 82.8068C52.5517 82.3636 52.5933 81.8068 52.6198 81.1364L52.7733 77.2727H58.8642V86H57.1994V78.7386H54.3471L54.2108 81.7045C54.1767 82.4242 54.1028 83.053 53.9892 83.5909C53.8793 84.1288 53.7183 84.5777 53.5062 84.9375C53.2941 85.2936 53.0214 85.5606 52.688 85.7386C52.3547 85.9129 51.9494 86 51.4721 86H50.9267ZM64.7152 86.1761C63.8553 86.1761 63.1148 85.9924 62.4936 85.625C61.8761 85.2538 61.3989 84.733 61.0617 84.0625C60.7284 83.3883 60.5617 82.5985 60.5617 81.6932C60.5617 80.7992 60.7284 80.0114 61.0617 79.3295C61.3989 78.6477 61.8686 78.1155 62.4708 77.733C63.0769 77.3504 63.7852 77.1591 64.5958 77.1591C65.0883 77.1591 65.5655 77.2405 66.0277 77.4034C66.4898 77.5663 66.9046 77.822 67.272 78.1705C67.6394 78.5189 67.9292 78.9716 68.1413 79.5284C68.3534 80.0814 68.4595 80.7538 68.4595 81.5455V82.1477H61.522V80.875H66.7947C66.7947 80.428 66.7038 80.0322 66.522 79.6875C66.3402 79.339 66.0845 79.0644 65.7549 78.8636C65.4292 78.6629 65.0466 78.5625 64.6072 78.5625C64.1299 78.5625 63.7133 78.6799 63.3572 78.9148C63.0049 79.1458 62.7322 79.4489 62.539 79.8239C62.3496 80.1951 62.2549 80.5985 62.2549 81.0341V82.0284C62.2549 82.6117 62.3572 83.108 62.5617 83.517C62.7701 83.9261 63.0599 84.2386 63.4311 84.4545C63.8023 84.6667 64.236 84.7727 64.7322 84.7727C65.0542 84.7727 65.3477 84.7273 65.6129 84.6364C65.878 84.5417 66.1072 84.4015 66.3004 84.2159C66.4936 84.0303 66.6413 83.8011 66.7436 83.5284L68.3515 83.8182C68.2227 84.2917 67.9917 84.7064 67.6583 85.0625C67.3288 85.4148 66.914 85.6894 66.414 85.8864C65.9178 86.0795 65.3515 86.1761 64.7152 86.1761ZM77.1741 77.2727V86H75.515V77.2727H77.1741ZM76.4525 81.3239V82.7898C76.1911 82.8958 75.9146 82.9905 75.623 83.0739C75.3313 83.1534 75.0245 83.2159 74.7025 83.2614C74.3805 83.3068 74.0453 83.3295 73.6968 83.3295C72.6173 83.3295 71.7593 83.0663 71.123 82.5398C70.4866 82.0095 70.1684 81.1989 70.1684 80.108V77.2557H71.8218V80.108C71.8218 80.5208 71.8976 80.8561 72.0491 81.1136C72.2006 81.3712 72.4165 81.5606 72.6968 81.6818C72.9771 81.803 73.3105 81.8636 73.6968 81.8636C74.2082 81.8636 74.6798 81.8163 75.1116 81.7216C75.5472 81.6231 75.9942 81.4905 76.4525 81.3239ZM83.0194 86.1761C82.1596 86.1761 81.419 85.9924 80.7978 85.625C80.1804 85.2538 79.7031 84.733 79.366 84.0625C79.0327 83.3883 78.866 82.5985 78.866 81.6932C78.866 80.7992 79.0327 80.0114 79.366 79.3295C79.7031 78.6477 80.1728 78.1155 80.7751 77.733C81.3811 77.3504 82.0895 77.1591 82.9001 77.1591C83.3925 77.1591 83.8698 77.2405 84.3319 77.4034C84.794 77.5663 85.2088 77.822 85.5762 78.1705C85.9436 78.5189 86.2334 78.9716 86.4455 79.5284C86.6577 80.0814 86.7637 80.7538 86.7637 81.5455V82.1477H79.8262V80.875H85.099C85.099 80.428 85.008 80.0322 84.8262 79.6875C84.6444 79.339 84.3887 79.0644 84.0592 78.8636C83.7334 78.6629 83.3508 78.5625 82.9115 78.5625C82.4342 78.5625 82.0175 78.6799 81.6615 78.9148C81.3092 79.1458 81.0365 79.4489 80.8433 79.8239C80.6539 80.1951 80.5592 80.5985 80.5592 81.0341V82.0284C80.5592 82.6117 80.6615 83.108 80.866 83.517C81.0743 83.9261 81.3641 84.2386 81.7353 84.4545C82.1065 84.6667 82.5402 84.7727 83.0365 84.7727C83.3584 84.7727 83.652 84.7273 83.9171 84.6364C84.1823 84.5417 84.4115 84.4015 84.6046 84.2159C84.7978 84.0303 84.9455 83.8011 85.0478 83.5284L86.6558 83.8182C86.527 84.2917 86.2959 84.7064 85.9626 85.0625C85.633 85.4148 85.2183 85.6894 84.7183 85.8864C84.2221 86.0795 83.6558 86.1761 83.0194 86.1761ZM81.1671 75.9034C80.8982 75.9034 80.6633 75.8049 80.4626 75.608C80.2618 75.4072 80.1615 75.1761 80.1615 74.9148C80.1615 74.6307 80.2618 74.3939 80.4626 74.2045C80.6633 74.0152 80.8982 73.9205 81.1671 73.9205C81.4512 73.9205 81.688 74.0152 81.8774 74.2045C82.0705 74.3939 82.1671 74.6307 82.1671 74.9148C82.1671 75.1761 82.0705 75.4072 81.8774 75.608C81.688 75.8049 81.4512 75.9034 81.1671 75.9034ZM84.508 75.9034C84.2391 75.9034 84.0043 75.8049 83.8035 75.608C83.6027 75.4072 83.5024 75.1761 83.5024 74.9148C83.5024 74.6307 83.6027 74.3939 83.8035 74.2045C84.0043 74.0152 84.2391 73.9205 84.508 73.9205C84.7921 73.9205 85.0289 74.0152 85.2183 74.2045C85.4115 74.3939 85.508 74.6307 85.508 74.9148C85.508 75.1761 85.4115 75.4072 85.2183 75.608C85.0289 75.8049 84.7921 75.9034 84.508 75.9034ZM94.3874 80.9034V82.375H89.6602V80.9034H94.3874ZM90.1374 77.2727V86H88.4727V77.2727H90.1374ZM95.5749 77.2727V86H93.9158V77.2727H95.5749ZM103.586 80.9034V82.375H98.8592V80.9034H103.586ZM99.3364 77.2727V86H97.6717V77.2727H99.3364ZM104.774 77.2727V86H103.115V77.2727H104.774ZM110.547 86.1761C109.729 86.1761 109.015 85.9886 108.405 85.6136C107.795 85.2386 107.321 84.714 106.984 84.0398C106.647 83.3655 106.479 82.5777 106.479 81.6761C106.479 80.7708 106.647 79.9792 106.984 79.3011C107.321 78.6231 107.795 78.0966 108.405 77.7216C109.015 77.3466 109.729 77.1591 110.547 77.1591C111.365 77.1591 112.079 77.3466 112.689 77.7216C113.299 78.0966 113.772 78.6231 114.109 79.3011C114.446 79.9792 114.615 80.7708 114.615 81.6761C114.615 82.5777 114.446 83.3655 114.109 84.0398C113.772 84.714 113.299 85.2386 112.689 85.6136C112.079 85.9886 111.365 86.1761 110.547 86.1761ZM110.552 84.75C111.083 84.75 111.522 84.6098 111.871 84.3295C112.219 84.0492 112.477 83.6761 112.643 83.2102C112.814 82.7443 112.899 82.2311 112.899 81.6705C112.899 81.1136 112.814 80.6023 112.643 80.1364C112.477 79.6667 112.219 79.2898 111.871 79.0057C111.522 78.7216 111.083 78.5795 110.552 78.5795C110.018 78.5795 109.575 78.7216 109.223 79.0057C108.874 79.2898 108.615 79.6667 108.445 80.1364C108.278 80.6023 108.195 81.1136 108.195 81.6705C108.195 82.2311 108.278 82.7443 108.445 83.2102C108.615 83.6761 108.874 84.0492 109.223 84.3295C109.575 84.6098 110.018 84.75 110.552 84.75ZM120.011 86.1761C119.167 86.1761 118.439 85.9848 117.83 85.6023C117.224 85.2159 116.758 84.6837 116.432 84.0057C116.106 83.3277 115.943 82.5511 115.943 81.6761C115.943 80.7898 116.11 80.0076 116.443 79.3295C116.777 78.6477 117.246 78.1155 117.852 77.733C118.458 77.3504 119.172 77.1591 119.994 77.1591C120.657 77.1591 121.248 77.2822 121.767 77.5284C122.286 77.7708 122.705 78.1117 123.023 78.5511C123.345 78.9905 123.536 79.5038 123.597 80.0909H121.943C121.852 79.6818 121.644 79.3295 121.318 79.0341C120.996 78.7386 120.564 78.5909 120.023 78.5909C119.549 78.5909 119.135 78.7159 118.778 78.9659C118.426 79.2121 118.152 79.5644 117.955 80.0227C117.758 80.4773 117.659 81.0152 117.659 81.6364C117.659 82.2727 117.756 82.822 117.949 83.2841C118.142 83.7462 118.415 84.1042 118.767 84.358C119.123 84.6117 119.542 84.7386 120.023 84.7386C120.345 84.7386 120.636 84.6799 120.898 84.5625C121.163 84.4413 121.385 84.2689 121.563 84.0455C121.744 83.822 121.871 83.553 121.943 83.2386H123.597C123.536 83.803 123.352 84.3068 123.046 84.75C122.739 85.1932 122.328 85.5417 121.813 85.7955C121.301 86.0492 120.701 86.1761 120.011 86.1761ZM124.577 78.7386V77.2727H131.941V78.7386H129.094V86H127.435V78.7386H124.577ZM134.84 80.2727H137.374C138.442 80.2727 139.264 80.5379 139.84 81.0682C140.416 81.5985 140.703 82.2822 140.703 83.1193C140.703 83.6648 140.575 84.1553 140.317 84.5909C140.06 85.0265 139.683 85.3712 139.186 85.625C138.69 85.875 138.086 86 137.374 86H133.561V77.2727H135.226V84.5341H137.374C137.863 84.5341 138.264 84.4072 138.578 84.1534C138.893 83.8958 139.05 83.5682 139.05 83.1705C139.05 82.75 138.893 82.4072 138.578 82.142C138.264 81.8731 137.863 81.7386 137.374 81.7386H134.84V80.2727ZM144.643 84.4091L144.557 85.0284C144.5 85.483 144.404 85.9564 144.268 86.4489C144.135 86.9451 143.997 87.4053 143.853 87.8295C143.713 88.2538 143.597 88.5909 143.506 88.8409H142.302C142.351 88.6061 142.419 88.2879 142.506 87.8864C142.593 87.4886 142.679 87.0436 142.762 86.5511C142.845 86.0587 142.908 85.5568 142.949 85.0455L143.006 84.4091H144.643ZM157.856 77.2727V84.608H159.134V88.8125H157.458V86H150.737V77.2727H152.401V84.5341H156.197V77.2727H157.856ZM162.507 83.6193L166.353 77.2727H168.183V86H166.518V79.6477L162.688 86H160.842V77.2727H162.507V83.6193ZM170.291 86V77.2727H171.99V80.9318H172.808L175.689 77.2727H177.791L174.41 81.517L177.831 86H175.723L173.092 82.5114H171.99V86H170.291ZM178.287 86L178.281 84.5284H178.593C178.836 84.5284 179.039 84.4773 179.201 84.375C179.368 84.2689 179.504 84.0909 179.611 83.8409C179.717 83.5909 179.798 83.2462 179.855 82.8068C179.912 82.3636 179.953 81.8068 179.98 81.1364L180.133 77.2727H186.224V86H184.559V78.7386H181.707L181.571 81.7045C181.537 82.4242 181.463 83.053 181.349 83.5909C181.239 84.1288 181.078 84.5777 180.866 84.9375C180.654 85.2936 180.381 85.5606 180.048 85.7386C179.715 85.9129 179.309 86 178.832 86H178.287ZM100.713 110V108.727L104.651 104.648C105.071 104.205 105.418 103.816 105.69 103.483C105.967 103.146 106.173 102.826 106.31 102.523C106.446 102.22 106.514 101.898 106.514 101.557C106.514 101.17 106.423 100.837 106.241 100.557C106.06 100.273 105.812 100.055 105.497 99.9034C105.183 99.7481 104.829 99.6705 104.435 99.6705C104.018 99.6705 103.654 99.7557 103.344 99.9261C103.033 100.097 102.795 100.337 102.628 100.648C102.461 100.958 102.378 101.322 102.378 101.739H100.702C100.702 101.03 100.865 100.411 101.19 99.8807C101.516 99.3504 101.963 98.9394 102.531 98.6477C103.099 98.3523 103.745 98.2045 104.469 98.2045C105.2 98.2045 105.844 98.3504 106.401 98.642C106.961 98.9299 107.399 99.3239 107.713 99.8239C108.027 100.32 108.185 100.881 108.185 101.506C108.185 101.938 108.103 102.36 107.94 102.773C107.781 103.186 107.503 103.646 107.105 104.153C106.707 104.657 106.154 105.269 105.446 105.989L103.134 108.409V108.494H108.372V110H100.713ZM51.5561 134V132.727L55.4936 128.648C55.914 128.205 56.2606 127.816 56.5333 127.483C56.8099 127.146 57.0163 126.826 57.1527 126.523C57.289 126.22 57.3572 125.898 57.3572 125.557C57.3572 125.17 57.2663 124.837 57.0845 124.557C56.9027 124.273 56.6546 124.055 56.3402 123.903C56.0258 123.748 55.6716 123.67 55.2777 123.67C54.861 123.67 54.4974 123.756 54.1867 123.926C53.8761 124.097 53.6375 124.337 53.4708 124.648C53.3042 124.958 53.2208 125.322 53.2208 125.739H51.5447C51.5447 125.03 51.7076 124.411 52.0333 123.881C52.3591 123.35 52.8061 122.939 53.3742 122.648C53.9424 122.352 54.5883 122.205 55.3117 122.205C56.0428 122.205 56.6867 122.35 57.2436 122.642C57.8042 122.93 58.2417 123.324 58.5561 123.824C58.8705 124.32 59.0277 124.881 59.0277 125.506C59.0277 125.938 58.9462 126.36 58.7833 126.773C58.6242 127.186 58.3458 127.646 57.9481 128.153C57.5504 128.657 56.9974 129.269 56.289 129.989L53.9765 132.409V132.494H59.2152V134H51.5561ZM65.2437 134.159C64.4634 134.159 63.7664 134.025 63.1528 133.756C62.5429 133.487 62.06 133.114 61.7039 132.636C61.3517 132.155 61.1623 131.598 61.1357 130.966H62.9198C62.9426 131.311 63.0581 131.61 63.2664 131.864C63.4786 132.114 63.7551 132.307 64.096 132.443C64.4369 132.58 64.8157 132.648 65.2323 132.648C65.6907 132.648 66.096 132.568 66.4482 132.409C66.8043 132.25 67.0827 132.028 67.2835 131.744C67.4842 131.456 67.5846 131.125 67.5846 130.75C67.5846 130.36 67.4842 130.017 67.2835 129.722C67.0865 129.422 66.7967 129.187 66.4142 129.017C66.0354 128.847 65.577 128.761 65.0392 128.761H64.0562V127.33H65.0392C65.471 127.33 65.8498 127.252 66.1755 127.097C66.5051 126.941 66.7626 126.725 66.9482 126.449C67.1339 126.169 67.2267 125.841 67.2267 125.466C67.2267 125.106 67.1452 124.794 66.9823 124.528C66.8233 124.259 66.596 124.049 66.3005 123.898C66.0089 123.746 65.6642 123.67 65.2664 123.67C64.8876 123.67 64.5335 123.741 64.2039 123.881C63.8782 124.017 63.613 124.214 63.4085 124.472C63.2039 124.725 63.0941 125.03 63.0789 125.386H61.3801C61.399 124.758 61.5846 124.205 61.9369 123.727C62.2929 123.25 62.7626 122.877 63.346 122.608C63.9293 122.339 64.577 122.205 65.2892 122.205C66.0354 122.205 66.6793 122.35 67.221 122.642C67.7664 122.93 68.1869 123.314 68.4823 123.795C68.7816 124.277 68.9293 124.803 68.9255 125.375C68.9293 126.027 68.7475 126.58 68.3801 127.034C68.0164 127.489 67.5316 127.794 66.9255 127.949V128.04C67.6983 128.157 68.2967 128.464 68.721 128.96C69.149 129.456 69.3611 130.072 69.3573 130.807C69.3611 131.447 69.1831 132.021 68.8232 132.528C68.4672 133.036 67.9804 133.436 67.363 133.727C66.7456 134.015 66.0392 134.159 65.2437 134.159ZM77.0749 131.619L80.9215 125.273H82.7511V134H81.0863V127.648L77.2568 134H75.4102V125.273H77.0749V131.619ZM89.2512 128.966V130.443H84.5978V128.966H89.2512ZM85.9785 125.273V134H84.2796V125.273H85.9785ZM91.9103 134.176C91.0997 134.176 90.3914 133.987 89.7853 133.608C89.1792 133.229 88.7095 132.703 88.3762 132.028C88.0429 131.35 87.8762 130.564 87.8762 129.67C87.8762 128.769 88.0429 127.981 88.3762 127.307C88.7095 126.629 89.1792 126.102 89.7853 125.727C90.3914 125.348 91.0997 125.159 91.9103 125.159C92.7247 125.159 93.433 125.348 94.0353 125.727C94.6414 126.102 95.1111 126.629 95.4444 127.307C95.7815 127.981 95.9501 128.769 95.9501 129.67C95.9501 130.564 95.7815 131.35 95.4444 132.028C95.1111 132.703 94.6414 133.229 94.0353 133.608C93.433 133.987 92.7247 134.176 91.9103 134.176ZM91.9103 132.722C92.4595 132.722 92.9084 132.583 93.2569 132.307C93.6092 132.027 93.8686 131.655 94.0353 131.193C94.202 130.731 94.2853 130.223 94.2853 129.67C94.2853 129.114 94.202 128.604 94.0353 128.142C93.8686 127.676 93.6092 127.303 93.2569 127.023C92.9084 126.742 92.4595 126.602 91.9103 126.602C91.3649 126.602 90.916 126.742 90.5637 127.023C90.2114 127.303 89.952 127.676 89.7853 128.142C89.6186 128.604 89.5353 129.114 89.5353 129.67C89.5353 130.223 89.6186 130.731 89.7853 131.193C89.952 131.655 90.2114 132.027 90.5637 132.307C90.916 132.583 91.3649 132.722 91.9103 132.722ZM97.0894 134L97.0837 132.528H97.3962C97.6387 132.528 97.8413 132.477 98.0042 132.375C98.1709 132.269 98.3072 132.091 98.4133 131.841C98.5193 131.591 98.6008 131.246 98.6576 130.807C98.7144 130.364 98.7561 129.807 98.7826 129.136L98.936 125.273H105.027V134H103.362V126.739H100.51L100.374 129.705C100.339 130.424 100.266 131.053 100.152 131.591C100.042 132.129 99.8811 132.578 99.669 132.938C99.4568 133.294 99.1841 133.561 98.8508 133.739C98.5174 133.913 98.1121 134 97.6349 134H97.0894ZM112.321 134V126.722H110.23C109.734 126.722 109.348 126.837 109.071 127.068C108.795 127.299 108.656 127.602 108.656 127.977C108.656 128.348 108.783 128.648 109.037 128.875C109.295 129.098 109.654 129.21 110.117 129.21H112.815V130.585H110.117C109.473 130.585 108.916 130.479 108.446 130.267C107.98 130.051 107.62 129.746 107.367 129.352C107.117 128.958 106.992 128.492 106.992 127.955C106.992 127.405 107.12 126.932 107.378 126.534C107.639 126.133 108.012 125.822 108.497 125.602C108.986 125.383 109.564 125.273 110.23 125.273H113.918V134H112.321ZM106.594 134L109.054 129.591H110.793L108.332 134H106.594ZM120.039 134V132.727L123.976 128.648C124.397 128.205 124.743 127.816 125.016 127.483C125.292 127.146 125.499 126.826 125.635 126.523C125.772 126.22 125.84 125.898 125.84 125.557C125.84 125.17 125.749 124.837 125.567 124.557C125.385 124.273 125.137 124.055 124.823 123.903C124.508 123.748 124.154 123.67 123.76 123.67C123.344 123.67 122.98 123.756 122.669 123.926C122.359 124.097 122.12 124.337 121.953 124.648C121.787 124.958 121.703 125.322 121.703 125.739H120.027C120.027 125.03 120.19 124.411 120.516 123.881C120.842 123.35 121.289 122.939 121.857 122.648C122.425 122.352 123.071 122.205 123.794 122.205C124.525 122.205 125.169 122.35 125.726 122.642C126.287 122.93 126.724 123.324 127.039 123.824C127.353 124.32 127.51 124.881 127.51 125.506C127.51 125.938 127.429 126.36 127.266 126.773C127.107 127.186 126.828 127.646 126.431 128.153C126.033 128.657 125.48 129.269 124.772 129.989L122.459 132.409V132.494H127.698V134H120.039ZM133.726 134.193C132.829 134.189 132.062 133.953 131.425 133.483C130.789 133.013 130.302 132.33 129.965 131.432C129.628 130.534 129.459 129.453 129.459 128.188C129.459 126.926 129.628 125.848 129.965 124.955C130.306 124.061 130.795 123.379 131.431 122.909C132.071 122.439 132.836 122.205 133.726 122.205C134.616 122.205 135.38 122.441 136.016 122.915C136.652 123.384 137.139 124.066 137.476 124.96C137.817 125.85 137.988 126.926 137.988 128.188C137.988 129.456 137.819 130.54 137.482 131.438C137.145 132.331 136.658 133.015 136.022 133.489C135.385 133.958 134.62 134.193 133.726 134.193ZM133.726 132.676C134.514 132.676 135.13 132.292 135.573 131.523C136.02 130.754 136.243 129.642 136.243 128.188C136.243 127.222 136.141 126.405 135.937 125.739C135.736 125.068 135.446 124.561 135.067 124.216C134.692 123.867 134.245 123.693 133.726 123.693C132.942 123.693 132.327 124.08 131.88 124.852C131.433 125.625 131.207 126.737 131.204 128.188C131.204 129.157 131.304 129.977 131.505 130.648C131.709 131.314 131.999 131.82 132.374 132.165C132.749 132.506 133.2 132.676 133.726 132.676ZM139.827 134V132.727L143.765 128.648C144.185 128.205 144.532 127.816 144.805 127.483C145.081 127.146 145.288 126.826 145.424 126.523C145.56 126.22 145.628 125.898 145.628 125.557C145.628 125.17 145.538 124.837 145.356 124.557C145.174 124.273 144.926 124.055 144.611 123.903C144.297 123.748 143.943 123.67 143.549 123.67C143.132 123.67 142.769 123.756 142.458 123.926C142.147 124.097 141.909 124.337 141.742 124.648C141.575 124.958 141.492 125.322 141.492 125.739H139.816C139.816 125.03 139.979 124.411 140.305 123.881C140.63 123.35 141.077 122.939 141.645 122.648C142.214 122.352 142.86 122.205 143.583 122.205C144.314 122.205 144.958 122.35 145.515 122.642C146.075 122.93 146.513 123.324 146.827 123.824C147.142 124.32 147.299 124.881 147.299 125.506C147.299 125.938 147.217 126.36 147.055 126.773C146.895 127.186 146.617 127.646 146.219 128.153C145.822 128.657 145.269 129.269 144.56 129.989L142.248 132.409V132.494H147.486V134H139.827ZM148.969 131.727V130.307L153.998 122.364H155.117V124.455H154.407L150.81 130.148V130.239H157.702V131.727H148.969ZM154.487 134V131.295L154.498 130.648V122.364H156.163V134H154.487Z" fill="black" fill-opacity="0.8"/>
</svg>
