<svg width="209" height="194" viewBox="0 0 209 194" fill="none" xmlns="http://www.w3.org/2000/svg">
<rect x="2" y="2" width="205" height="190" rx="6" fill="#FFE8A3" stroke="#DDBC00" stroke-width="4" stroke-linecap="round"/>
<path d="M67.9867 43H66.1231L70.3106 31.3636H72.339L76.5265 43H74.6629L71.3731 33.4773H71.2822L67.9867 43ZM68.2992 38.4432H74.3447V39.9205H68.2992V38.4432ZM77.8945 43V34.2727H79.5934V37.9318H80.4116L83.2923 34.2727H85.3945L82.0139 38.517L85.4343 43H83.3264L80.6957 39.5114H79.5934V43H77.8945ZM86.0893 35.7386V34.2727H93.4529V35.7386H90.6063V43H88.9472V35.7386H86.0893ZM96.7386 40.6193L100.585 34.2727H102.415V43H100.75V36.6477L96.9204 43H95.0738V34.2727H96.7386V40.6193ZM104.523 43V34.2727H108.142C109.127 34.2727 109.907 34.483 110.483 34.9034C111.059 35.3201 111.347 35.8864 111.347 36.6023C111.347 37.1136 111.184 37.5189 110.858 37.8182C110.532 38.1174 110.1 38.3182 109.563 38.4205C109.953 38.4659 110.311 38.5833 110.636 38.7727C110.962 38.9583 111.224 39.2083 111.421 39.5227C111.621 39.8371 111.722 40.2121 111.722 40.6477C111.722 41.1098 111.602 41.5189 111.364 41.875C111.125 42.2273 110.778 42.5038 110.324 42.7045C109.873 42.9015 109.33 43 108.693 43H104.523ZM106.119 41.5795H108.693C109.114 41.5795 109.443 41.4792 109.682 41.2784C109.921 41.0777 110.04 40.8049 110.04 40.4602C110.04 40.0549 109.921 39.7367 109.682 39.5057C109.443 39.2708 109.114 39.1534 108.693 39.1534H106.119V41.5795ZM106.119 37.9091H108.159C108.477 37.9091 108.75 37.8636 108.977 37.7727C109.208 37.6818 109.385 37.553 109.506 37.3864C109.631 37.2159 109.693 37.0152 109.693 36.7841C109.693 36.447 109.555 36.1837 109.278 35.9943C109.002 35.8049 108.623 35.7102 108.142 35.7102H106.119V37.9091ZM119.324 37.9034V39.375H114.597V37.9034H119.324ZM115.074 34.2727V43H113.409V34.2727H115.074ZM120.512 34.2727V43H118.852V34.2727H120.512ZM123.887 37.2727H126.421C127.489 37.2727 128.311 37.5379 128.887 38.0682C129.462 38.5985 129.75 39.2822 129.75 40.1193C129.75 40.6648 129.622 41.1553 129.364 41.5909C129.106 42.0265 128.73 42.3712 128.233 42.625C127.737 42.875 127.133 43 126.421 43H122.608V34.2727H124.273V41.5341H126.421C126.909 41.5341 127.311 41.4072 127.625 41.1534C127.94 40.8958 128.097 40.5682 128.097 40.1705C128.097 39.75 127.94 39.4072 127.625 39.142C127.311 38.8731 126.909 38.7386 126.421 38.7386H123.887V37.2727ZM130.989 43V34.2727H132.688V43H130.989ZM136.456 40.6193L140.303 34.2727H142.133V43H140.468V36.6477L136.638 43H134.792V34.2727H136.456V40.6193ZM139.576 31.3182H140.973C140.973 31.9583 140.746 32.4792 140.292 32.8807C139.841 33.2784 139.231 33.4773 138.462 33.4773C137.697 33.4773 137.089 33.2784 136.638 32.8807C136.188 32.4792 135.962 31.9583 135.962 31.3182H137.354C137.354 31.6023 137.438 31.8542 137.604 32.0739C137.771 32.2898 138.057 32.3977 138.462 32.3977C138.86 32.3977 139.144 32.2898 139.314 32.0739C139.489 31.858 139.576 31.6061 139.576 31.3182ZM23.1067 67V55.3636H27.368C28.1938 55.3636 28.8775 55.5 29.4192 55.7727C29.9608 56.0417 30.3661 56.4072 30.6351 56.8693C30.904 57.3277 31.0385 57.8447 31.0385 58.4205C31.0385 58.9053 30.9495 59.3144 30.7714 59.6477C30.5934 59.9773 30.3548 60.2424 30.0555 60.4432C29.7601 60.6402 29.4343 60.7841 29.0782 60.875V60.9886C29.4646 61.0076 29.8415 61.1326 30.2089 61.3636C30.5801 61.5909 30.887 61.9148 31.1294 62.3352C31.3718 62.7557 31.493 63.267 31.493 63.8693C31.493 64.464 31.3529 64.9981 31.0726 65.4716C30.7961 65.9413 30.368 66.3144 29.7885 66.5909C29.2089 66.8636 28.4684 67 27.5669 67H23.1067ZM24.8623 65.4943H27.3964C28.2373 65.4943 28.8396 65.3314 29.2032 65.0057C29.5669 64.6799 29.7487 64.2727 29.7487 63.7841C29.7487 63.4167 29.6559 63.0795 29.4703 62.7727C29.2847 62.4659 29.0195 62.2216 28.6748 62.0398C28.3339 61.858 27.9286 61.767 27.4589 61.767H24.8623V65.4943ZM24.8623 60.3977H27.2146C27.6086 60.3977 27.9627 60.322 28.2771 60.1705C28.5953 60.0189 28.8472 59.8068 29.0328 59.5341C29.2222 59.2576 29.3169 58.9318 29.3169 58.5568C29.3169 58.0758 29.1483 57.6723 28.8112 57.3466C28.4741 57.0208 27.957 56.858 27.2601 56.858H24.8623V60.3977ZM36.9392 67.1761C36.121 67.1761 35.407 66.9886 34.7971 66.6136C34.1873 66.2386 33.7138 65.714 33.3767 65.0398C33.0396 64.3655 32.871 63.5777 32.871 62.6761C32.871 61.7708 33.0396 60.9792 33.3767 60.3011C33.7138 59.6231 34.1873 59.0966 34.7971 58.7216C35.407 58.3466 36.121 58.1591 36.9392 58.1591C37.7574 58.1591 38.4714 58.3466 39.0812 58.7216C39.6911 59.0966 40.1646 59.6231 40.5017 60.3011C40.8388 60.9792 41.0074 61.7708 41.0074 62.6761C41.0074 63.5777 40.8388 64.3655 40.5017 65.0398C40.1646 65.714 39.6911 66.2386 39.0812 66.6136C38.4714 66.9886 37.7574 67.1761 36.9392 67.1761ZM36.9449 65.75C37.4752 65.75 37.9146 65.6098 38.263 65.3295C38.6115 65.0492 38.8691 64.6761 39.0358 64.2102C39.2062 63.7443 39.2915 63.2311 39.2915 62.6705C39.2915 62.1136 39.2062 61.6023 39.0358 61.1364C38.8691 60.6667 38.6115 60.2898 38.263 60.0057C37.9146 59.7216 37.4752 59.5795 36.9449 59.5795C36.4108 59.5795 35.9676 59.7216 35.6153 60.0057C35.2668 60.2898 35.0074 60.6667 34.8369 61.1364C34.6702 61.6023 34.5869 62.1136 34.5869 62.6705C34.5869 63.2311 34.6702 63.7443 34.8369 64.2102C35.0074 64.6761 35.2668 65.0492 35.6153 65.3295C35.9676 65.6098 36.4108 65.75 36.9449 65.75ZM42.7277 67V58.2727H46.347C47.3318 58.2727 48.1121 58.483 48.6879 58.9034C49.2637 59.3201 49.5515 59.8864 49.5515 60.6023C49.5515 61.1136 49.3887 61.5189 49.0629 61.8182C48.7371 62.1174 48.3053 62.3182 47.7674 62.4205C48.1576 62.4659 48.5155 62.5833 48.8413 62.7727C49.1671 62.9583 49.4284 63.2083 49.6254 63.5227C49.8262 63.8371 49.9265 64.2121 49.9265 64.6477C49.9265 65.1098 49.8072 65.5189 49.5686 65.875C49.3299 66.2273 48.9834 66.5038 48.5288 66.7045C48.078 66.9015 47.5345 67 46.8981 67H42.7277ZM44.3243 65.5795H46.8981C47.3186 65.5795 47.6481 65.4792 47.8868 65.2784C48.1254 65.0777 48.2447 64.8049 48.2447 64.4602C48.2447 64.0549 48.1254 63.7367 47.8868 63.5057C47.6481 63.2708 47.3186 63.1534 46.8981 63.1534H44.3243V65.5795ZM44.3243 61.9091H46.364C46.6822 61.9091 46.9549 61.8636 47.1822 61.7727C47.4133 61.6818 47.5894 61.553 47.7106 61.3864C47.8356 61.2159 47.8981 61.0152 47.8981 60.7841C47.8981 60.447 47.7599 60.1837 47.4834 59.9943C47.2068 59.8049 46.828 59.7102 46.347 59.7102H44.3243V61.9091ZM50.9267 67L50.921 65.5284H51.2335C51.4759 65.5284 51.6786 65.4773 51.8414 65.375C52.0081 65.2689 52.1445 65.0909 52.2505 64.8409C52.3566 64.5909 52.438 64.2462 52.4948 63.8068C52.5517 63.3636 52.5933 62.8068 52.6198 62.1364L52.7733 58.2727H58.8642V67H57.1994V59.7386H54.3471L54.2108 62.7045C54.1767 63.4242 54.1028 64.053 53.9892 64.5909C53.8793 65.1288 53.7183 65.5777 53.5062 65.9375C53.2941 66.2936 53.0214 66.5606 52.688 66.7386C52.3547 66.9129 51.9494 67 51.4721 67H50.9267ZM64.7152 67.1761C63.8553 67.1761 63.1148 66.9924 62.4936 66.625C61.8761 66.2538 61.3989 65.733 61.0617 65.0625C60.7284 64.3883 60.5617 63.5985 60.5617 62.6932C60.5617 61.7992 60.7284 61.0114 61.0617 60.3295C61.3989 59.6477 61.8686 59.1155 62.4708 58.733C63.0769 58.3504 63.7852 58.1591 64.5958 58.1591C65.0883 58.1591 65.5655 58.2405 66.0277 58.4034C66.4898 58.5663 66.9046 58.822 67.272 59.1705C67.6394 59.5189 67.9292 59.9716 68.1413 60.5284C68.3534 61.0814 68.4595 61.7538 68.4595 62.5455V63.1477H61.522V61.875H66.7947C66.7947 61.428 66.7038 61.0322 66.522 60.6875C66.3402 60.339 66.0845 60.0644 65.7549 59.8636C65.4292 59.6629 65.0466 59.5625 64.6072 59.5625C64.1299 59.5625 63.7133 59.6799 63.3572 59.9148C63.0049 60.1458 62.7322 60.4489 62.539 60.8239C62.3496 61.1951 62.2549 61.5985 62.2549 62.0341V63.0284C62.2549 63.6117 62.3572 64.108 62.5617 64.517C62.7701 64.9261 63.0599 65.2386 63.4311 65.4545C63.8023 65.6667 64.236 65.7727 64.7322 65.7727C65.0542 65.7727 65.3477 65.7273 65.6129 65.6364C65.878 65.5417 66.1072 65.4015 66.3004 65.2159C66.4936 65.0303 66.6413 64.8011 66.7436 64.5284L68.3515 64.8182C68.2227 65.2917 67.9917 65.7064 67.6583 66.0625C67.3288 66.4148 66.914 66.6894 66.414 66.8864C65.9178 67.0795 65.3515 67.1761 64.7152 67.1761ZM77.1741 58.2727V67H75.515V58.2727H77.1741ZM76.4525 62.3239V63.7898C76.1911 63.8958 75.9146 63.9905 75.623 64.0739C75.3313 64.1534 75.0245 64.2159 74.7025 64.2614C74.3805 64.3068 74.0453 64.3295 73.6968 64.3295C72.6173 64.3295 71.7593 64.0663 71.123 63.5398C70.4866 63.0095 70.1684 62.1989 70.1684 61.108V58.2557H71.8218V61.108C71.8218 61.5208 71.8976 61.8561 72.0491 62.1136C72.2006 62.3712 72.4165 62.5606 72.6968 62.6818C72.9771 62.803 73.3105 62.8636 73.6968 62.8636C74.2082 62.8636 74.6798 62.8163 75.1116 62.7216C75.5472 62.6231 75.9942 62.4905 76.4525 62.3239ZM83.0194 67.1761C82.1596 67.1761 81.419 66.9924 80.7978 66.625C80.1804 66.2538 79.7031 65.733 79.366 65.0625C79.0327 64.3883 78.866 63.5985 78.866 62.6932C78.866 61.7992 79.0327 61.0114 79.366 60.3295C79.7031 59.6477 80.1728 59.1155 80.7751 58.733C81.3811 58.3504 82.0895 58.1591 82.9001 58.1591C83.3925 58.1591 83.8698 58.2405 84.3319 58.4034C84.794 58.5663 85.2088 58.822 85.5762 59.1705C85.9436 59.5189 86.2334 59.9716 86.4455 60.5284C86.6577 61.0814 86.7637 61.7538 86.7637 62.5455V63.1477H79.8262V61.875H85.099C85.099 61.428 85.008 61.0322 84.8262 60.6875C84.6444 60.339 84.3887 60.0644 84.0592 59.8636C83.7334 59.6629 83.3508 59.5625 82.9115 59.5625C82.4342 59.5625 82.0175 59.6799 81.6615 59.9148C81.3092 60.1458 81.0365 60.4489 80.8433 60.8239C80.6539 61.1951 80.5592 61.5985 80.5592 62.0341V63.0284C80.5592 63.6117 80.6615 64.108 80.866 64.517C81.0743 64.9261 81.3641 65.2386 81.7353 65.4545C82.1065 65.6667 82.5402 65.7727 83.0365 65.7727C83.3584 65.7727 83.652 65.7273 83.9171 65.6364C84.1823 65.5417 84.4115 65.4015 84.6046 65.2159C84.7978 65.0303 84.9455 64.8011 85.0478 64.5284L86.6558 64.8182C86.527 65.2917 86.2959 65.7064 85.9626 66.0625C85.633 66.4148 85.2183 66.6894 84.7183 66.8864C84.2221 67.0795 83.6558 67.1761 83.0194 67.1761ZM81.1671 56.9034C80.8982 56.9034 80.6633 56.8049 80.4626 56.608C80.2618 56.4072 80.1615 56.1761 80.1615 55.9148C80.1615 55.6307 80.2618 55.3939 80.4626 55.2045C80.6633 55.0152 80.8982 54.9205 81.1671 54.9205C81.4512 54.9205 81.688 55.0152 81.8774 55.2045C82.0705 55.3939 82.1671 55.6307 82.1671 55.9148C82.1671 56.1761 82.0705 56.4072 81.8774 56.608C81.688 56.8049 81.4512 56.9034 81.1671 56.9034ZM84.508 56.9034C84.2391 56.9034 84.0043 56.8049 83.8035 56.608C83.6027 56.4072 83.5024 56.1761 83.5024 55.9148C83.5024 55.6307 83.6027 55.3939 83.8035 55.2045C84.0043 55.0152 84.2391 54.9205 84.508 54.9205C84.7921 54.9205 85.0289 55.0152 85.2183 55.2045C85.4115 55.3939 85.508 55.6307 85.508 55.9148C85.508 56.1761 85.4115 56.4072 85.2183 56.608C85.0289 56.8049 84.7921 56.9034 84.508 56.9034ZM94.3874 61.9034V63.375H89.6602V61.9034H94.3874ZM90.1374 58.2727V67H88.4727V58.2727H90.1374ZM95.5749 58.2727V67H93.9158V58.2727H95.5749ZM103.586 61.9034V63.375H98.8592V61.9034H103.586ZM99.3364 58.2727V67H97.6717V58.2727H99.3364ZM104.774 58.2727V67H103.115V58.2727H104.774ZM110.547 67.1761C109.729 67.1761 109.015 66.9886 108.405 66.6136C107.795 66.2386 107.321 65.714 106.984 65.0398C106.647 64.3655 106.479 63.5777 106.479 62.6761C106.479 61.7708 106.647 60.9792 106.984 60.3011C107.321 59.6231 107.795 59.0966 108.405 58.7216C109.015 58.3466 109.729 58.1591 110.547 58.1591C111.365 58.1591 112.079 58.3466 112.689 58.7216C113.299 59.0966 113.772 59.6231 114.109 60.3011C114.446 60.9792 114.615 61.7708 114.615 62.6761C114.615 63.5777 114.446 64.3655 114.109 65.0398C113.772 65.714 113.299 66.2386 112.689 66.6136C112.079 66.9886 111.365 67.1761 110.547 67.1761ZM110.552 65.75C111.083 65.75 111.522 65.6098 111.871 65.3295C112.219 65.0492 112.477 64.6761 112.643 64.2102C112.814 63.7443 112.899 63.2311 112.899 62.6705C112.899 62.1136 112.814 61.6023 112.643 61.1364C112.477 60.6667 112.219 60.2898 111.871 60.0057C111.522 59.7216 111.083 59.5795 110.552 59.5795C110.018 59.5795 109.575 59.7216 109.223 60.0057C108.874 60.2898 108.615 60.6667 108.445 61.1364C108.278 61.6023 108.195 62.1136 108.195 62.6705C108.195 63.2311 108.278 63.7443 108.445 64.2102C108.615 64.6761 108.874 65.0492 109.223 65.3295C109.575 65.6098 110.018 65.75 110.552 65.75ZM120.011 67.1761C119.167 67.1761 118.439 66.9848 117.83 66.6023C117.224 66.2159 116.758 65.6837 116.432 65.0057C116.106 64.3277 115.943 63.5511 115.943 62.6761C115.943 61.7898 116.11 61.0076 116.443 60.3295C116.777 59.6477 117.246 59.1155 117.852 58.733C118.458 58.3504 119.172 58.1591 119.994 58.1591C120.657 58.1591 121.248 58.2822 121.767 58.5284C122.286 58.7708 122.705 59.1117 123.023 59.5511C123.345 59.9905 123.536 60.5038 123.597 61.0909H121.943C121.852 60.6818 121.644 60.3295 121.318 60.0341C120.996 59.7386 120.564 59.5909 120.023 59.5909C119.549 59.5909 119.135 59.7159 118.778 59.9659C118.426 60.2121 118.152 60.5644 117.955 61.0227C117.758 61.4773 117.659 62.0152 117.659 62.6364C117.659 63.2727 117.756 63.822 117.949 64.2841C118.142 64.7462 118.415 65.1042 118.767 65.358C119.123 65.6117 119.542 65.7386 120.023 65.7386C120.345 65.7386 120.636 65.6799 120.898 65.5625C121.163 65.4413 121.385 65.2689 121.563 65.0455C121.744 64.822 121.871 64.553 121.943 64.2386H123.597C123.536 64.803 123.352 65.3068 123.046 65.75C122.739 66.1932 122.328 66.5417 121.813 66.7955C121.301 67.0492 120.701 67.1761 120.011 67.1761ZM124.577 59.7386V58.2727H131.941V59.7386H129.094V67H127.435V59.7386H124.577ZM134.84 61.2727H137.374C138.442 61.2727 139.264 61.5379 139.84 62.0682C140.416 62.5985 140.703 63.2822 140.703 64.1193C140.703 64.6648 140.575 65.1553 140.317 65.5909C140.06 66.0265 139.683 66.3712 139.186 66.625C138.69 66.875 138.086 67 137.374 67H133.561V58.2727H135.226V65.5341H137.374C137.863 65.5341 138.264 65.4072 138.578 65.1534C138.893 64.8958 139.05 64.5682 139.05 64.1705C139.05 63.75 138.893 63.4072 138.578 63.142C138.264 62.8731 137.863 62.7386 137.374 62.7386H134.84V61.2727ZM144.643 65.4091L144.557 66.0284C144.5 66.483 144.404 66.9564 144.268 67.4489C144.135 67.9451 143.997 68.4053 143.853 68.8295C143.713 69.2538 143.597 69.5909 143.506 69.8409H142.302C142.351 69.6061 142.419 69.2879 142.506 68.8864C142.593 68.4886 142.679 68.0436 142.762 67.5511C142.845 67.0587 142.908 66.5568 142.949 66.0455L143.006 65.4091H144.643ZM157.856 58.2727V65.608H159.134V69.8125H157.458V67H150.737V58.2727H152.401V65.5341H156.197V58.2727H157.856ZM162.507 64.6193L166.353 58.2727H168.183V67H166.518V60.6477L162.688 67H160.842V58.2727H162.507V64.6193ZM170.291 67V58.2727H171.99V61.9318H172.808L175.689 58.2727H177.791L174.41 62.517L177.831 67H175.723L173.092 63.5114H171.99V67H170.291ZM178.287 67L178.281 65.5284H178.593C178.836 65.5284 179.039 65.4773 179.201 65.375C179.368 65.2689 179.504 65.0909 179.611 64.8409C179.717 64.5909 179.798 64.2462 179.855 63.8068C179.912 63.3636 179.953 62.8068 179.98 62.1364L180.133 58.2727H186.224V67H184.559V59.7386H181.707L181.571 62.7045C181.537 63.4242 181.463 64.053 181.349 64.5909C181.239 65.1288 181.078 65.5777 180.866 65.9375C180.654 66.2936 180.381 66.5606 180.048 66.7386C179.715 66.9129 179.309 67 178.832 67H178.287ZM104.514 91.1591C103.734 91.1591 103.037 91.0246 102.423 90.7557C101.813 90.4867 101.33 90.1136 100.974 89.6364C100.622 89.1553 100.433 88.5985 100.406 87.9659H102.19C102.213 88.3106 102.329 88.6098 102.537 88.8636C102.749 89.1136 103.026 89.3068 103.366 89.4432C103.707 89.5795 104.086 89.6477 104.503 89.6477C104.961 89.6477 105.366 89.5682 105.719 89.4091C106.075 89.25 106.353 89.0284 106.554 88.7443C106.755 88.4564 106.855 88.125 106.855 87.75C106.855 87.3598 106.755 87.017 106.554 86.7216C106.357 86.4223 106.067 86.1875 105.685 86.017C105.306 85.8466 104.848 85.7614 104.31 85.7614H103.327V84.3295H104.31C104.741 84.3295 105.12 84.2519 105.446 84.0966C105.776 83.9413 106.033 83.7254 106.219 83.4489C106.404 83.1686 106.497 82.8409 106.497 82.4659C106.497 82.1061 106.416 81.7936 106.253 81.5284C106.094 81.2595 105.866 81.0492 105.571 80.8977C105.279 80.7462 104.935 80.6705 104.537 80.6705C104.158 80.6705 103.804 80.7405 103.474 80.8807C103.149 81.017 102.884 81.214 102.679 81.4716C102.474 81.7254 102.365 82.0303 102.349 82.3864H100.651C100.67 81.7576 100.855 81.2045 101.207 80.7273C101.563 80.25 102.033 79.8769 102.616 79.608C103.2 79.339 103.848 79.2045 104.56 79.2045C105.306 79.2045 105.95 79.3504 106.491 79.642C107.037 79.9299 107.457 80.3144 107.753 80.7955C108.052 81.2765 108.2 81.803 108.196 82.375C108.2 83.0265 108.018 83.5795 107.651 84.0341C107.287 84.4886 106.802 84.7936 106.196 84.9489V85.0398C106.969 85.1572 107.567 85.464 107.991 85.9602C108.42 86.4564 108.632 87.072 108.628 87.8068C108.632 88.447 108.454 89.0208 108.094 89.5284C107.738 90.036 107.251 90.4356 106.634 90.7273C106.016 91.0152 105.31 91.1591 104.514 91.1591ZM29.8652 112.693H31.6039C31.6266 113.049 31.7876 113.324 32.0868 113.517C32.3899 113.71 32.7819 113.807 33.263 113.807C33.7516 113.807 34.1683 113.703 34.513 113.494C34.8577 113.282 35.03 112.955 35.03 112.511C35.03 112.246 34.9637 112.015 34.8312 111.818C34.7024 111.617 34.5187 111.462 34.28 111.352C34.0452 111.242 33.7668 111.188 33.4448 111.188H32.0243V109.852H33.4448C33.9259 109.852 34.2857 109.742 34.5243 109.523C34.763 109.303 34.8823 109.028 34.8823 108.699C34.8823 108.343 34.7535 108.057 34.4959 107.841C34.2421 107.621 33.888 107.511 33.4334 107.511C32.9713 107.511 32.5868 107.616 32.28 107.824C31.9732 108.028 31.8122 108.294 31.7971 108.619H30.0812C30.0925 108.131 30.2402 107.703 30.5243 107.335C30.8122 106.964 31.1986 106.676 31.6834 106.472C32.1721 106.263 32.727 106.159 33.3482 106.159C33.9959 106.159 34.5565 106.263 35.03 106.472C35.5035 106.68 35.869 106.968 36.1266 107.335C36.388 107.703 36.5187 108.125 36.5187 108.602C36.5187 109.083 36.3747 109.477 36.0868 109.784C35.8027 110.087 35.4315 110.305 34.9732 110.438V110.528C35.3103 110.551 35.6096 110.653 35.8709 110.835C36.1323 111.017 36.3368 111.258 36.4846 111.557C36.6323 111.856 36.7062 112.195 36.7062 112.574C36.7062 113.108 36.5584 113.57 36.263 113.96C35.9713 114.35 35.566 114.652 35.0471 114.864C34.5319 115.072 33.9429 115.176 33.28 115.176C32.6361 115.176 32.0584 115.076 31.5471 114.875C31.0395 114.67 30.6361 114.383 30.3368 114.011C30.0414 113.64 29.8842 113.201 29.8652 112.693ZM40.8242 115.193C40.2712 115.193 39.7712 115.091 39.3242 114.886C38.8772 114.678 38.5231 114.377 38.2617 113.983C38.0041 113.589 37.8753 113.106 37.8753 112.534C37.8753 112.042 37.97 111.636 38.1594 111.318C38.3488 111 38.6045 110.748 38.9265 110.562C39.2484 110.377 39.6083 110.237 40.006 110.142C40.4037 110.047 40.809 109.975 41.2219 109.926C41.7446 109.866 42.1689 109.816 42.4946 109.778C42.8204 109.737 43.0571 109.67 43.2049 109.58C43.3526 109.489 43.4265 109.341 43.4265 109.136V109.097C43.4265 108.6 43.2863 108.216 43.006 107.943C42.7295 107.67 42.3166 107.534 41.7674 107.534C41.1954 107.534 40.7446 107.661 40.4151 107.915C40.0893 108.165 39.864 108.443 39.739 108.75L38.1424 108.386C38.3318 107.856 38.6083 107.428 38.9719 107.102C39.3393 106.773 39.7617 106.534 40.239 106.386C40.7162 106.235 41.2181 106.159 41.7446 106.159C42.0931 106.159 42.4624 106.201 42.8526 106.284C43.2465 106.364 43.614 106.511 43.9549 106.727C44.2996 106.943 44.5818 107.252 44.8015 107.653C45.0212 108.051 45.131 108.568 45.131 109.205V115H43.4719V113.807H43.4037C43.2939 114.027 43.1291 114.242 42.9094 114.455C42.6897 114.667 42.4075 114.843 42.0628 114.983C41.7181 115.123 41.3053 115.193 40.8242 115.193ZM41.1935 113.83C41.6632 113.83 42.0647 113.737 42.3981 113.551C42.7352 113.366 42.9909 113.123 43.1651 112.824C43.3431 112.521 43.4321 112.197 43.4321 111.852V110.727C43.3715 110.788 43.2541 110.845 43.0799 110.898C42.9094 110.947 42.7143 110.991 42.4946 111.028C42.275 111.062 42.0609 111.095 41.8526 111.125C41.6443 111.152 41.47 111.174 41.3299 111.193C41.0003 111.235 40.6992 111.305 40.4265 111.403C40.1575 111.502 39.9416 111.644 39.7787 111.83C39.6196 112.011 39.5401 112.254 39.5401 112.557C39.5401 112.977 39.6954 113.295 40.006 113.511C40.3166 113.723 40.7124 113.83 41.1935 113.83ZM47.2178 115V106.273H48.9167V109.932H49.7348L52.6155 106.273H54.7178L51.3371 110.517L54.7576 115H52.6496L50.0189 111.511H48.9167V115H47.2178ZM59.2179 115.176C58.3997 115.176 57.6857 114.989 57.0759 114.614C56.466 114.239 55.9926 113.714 55.6554 113.04C55.3183 112.366 55.1497 111.578 55.1497 110.676C55.1497 109.771 55.3183 108.979 55.6554 108.301C55.9926 107.623 56.466 107.097 57.0759 106.722C57.6857 106.347 58.3997 106.159 59.2179 106.159C60.0361 106.159 60.7501 106.347 61.36 106.722C61.9698 107.097 62.4433 107.623 62.7804 108.301C63.1176 108.979 63.2861 109.771 63.2861 110.676C63.2861 111.578 63.1176 112.366 62.7804 113.04C62.4433 113.714 61.9698 114.239 61.36 114.614C60.7501 114.989 60.0361 115.176 59.2179 115.176ZM59.2236 113.75C59.7539 113.75 60.1933 113.61 60.5418 113.33C60.8903 113.049 61.1479 112.676 61.3145 112.21C61.485 111.744 61.5702 111.231 61.5702 110.67C61.5702 110.114 61.485 109.602 61.3145 109.136C61.1479 108.667 60.8903 108.29 60.5418 108.006C60.1933 107.722 59.7539 107.58 59.2236 107.58C58.6895 107.58 58.2463 107.722 57.8941 108.006C57.5456 108.29 57.2861 108.667 57.1157 109.136C56.949 109.602 56.8657 110.114 56.8657 110.67C56.8657 111.231 56.949 111.744 57.1157 112.21C57.2861 112.676 57.5456 113.049 57.8941 113.33C58.2463 113.61 58.6895 113.75 59.2236 113.75ZM70.9212 109.903V111.375H66.1939V109.903H70.9212ZM66.6712 106.273V115H65.0064V106.273H66.6712ZM72.1087 106.273V115H70.4496V106.273H72.1087ZM81.2111 106.273V115H79.552V106.273H81.2111ZM80.4895 110.324V111.79C80.2281 111.896 79.9516 111.991 79.66 112.074C79.3683 112.153 79.0615 112.216 78.7395 112.261C78.4175 112.307 78.0823 112.33 77.7338 112.33C76.6543 112.33 75.7963 112.066 75.16 111.54C74.5236 111.009 74.2054 110.199 74.2054 109.108V106.256H75.8588V109.108C75.8588 109.521 75.9346 109.856 76.0861 110.114C76.2376 110.371 76.4535 110.561 76.7338 110.682C77.0141 110.803 77.3475 110.864 77.7338 110.864C78.2452 110.864 78.7168 110.816 79.1486 110.722C79.5842 110.623 80.0312 110.491 80.4895 110.324ZM84.9598 112.619L88.8064 106.273H90.636V115H88.9712V108.648L85.1416 115H83.295V106.273H84.9598V112.619ZM91.6617 107.739V106.273H99.0253V107.739H96.1787V115H94.5196V107.739H91.6617ZM103.916 115.176C103.071 115.176 102.344 114.985 101.734 114.602C101.128 114.216 100.662 113.684 100.337 113.006C100.011 112.328 99.8479 111.551 99.8479 110.676C99.8479 109.79 100.015 109.008 100.348 108.33C100.681 107.648 101.151 107.116 101.757 106.733C102.363 106.35 103.077 106.159 103.899 106.159C104.562 106.159 105.153 106.282 105.672 106.528C106.191 106.771 106.609 107.112 106.927 107.551C107.249 107.991 107.441 108.504 107.501 109.091H105.848C105.757 108.682 105.549 108.33 105.223 108.034C104.901 107.739 104.469 107.591 103.927 107.591C103.454 107.591 103.039 107.716 102.683 107.966C102.331 108.212 102.056 108.564 101.859 109.023C101.662 109.477 101.564 110.015 101.564 110.636C101.564 111.273 101.66 111.822 101.854 112.284C102.047 112.746 102.319 113.104 102.672 113.358C103.028 113.612 103.446 113.739 103.927 113.739C104.249 113.739 104.541 113.68 104.802 113.562C105.068 113.441 105.289 113.269 105.467 113.045C105.649 112.822 105.776 112.553 105.848 112.239H107.501C107.441 112.803 107.257 113.307 106.95 113.75C106.643 114.193 106.232 114.542 105.717 114.795C105.206 115.049 104.605 115.176 103.916 115.176ZM114.347 115V107.722H112.256C111.759 107.722 111.373 107.837 111.097 108.068C110.82 108.299 110.682 108.602 110.682 108.977C110.682 109.348 110.809 109.648 111.062 109.875C111.32 110.098 111.68 110.21 112.142 110.21H114.841V111.585H112.142C111.498 111.585 110.941 111.479 110.472 111.267C110.006 111.051 109.646 110.746 109.392 110.352C109.142 109.958 109.017 109.492 109.017 108.955C109.017 108.405 109.146 107.932 109.403 107.534C109.665 107.133 110.038 106.822 110.523 106.602C111.011 106.383 111.589 106.273 112.256 106.273H115.943V115H114.347ZM108.619 115L111.08 110.591H112.818L110.358 115H108.619ZM129.093 106.273V115H127.434V106.273H129.093ZM128.371 110.324V111.79C128.11 111.896 127.833 111.991 127.541 112.074C127.25 112.153 126.943 112.216 126.621 112.261C126.299 112.307 125.964 112.33 125.615 112.33C124.536 112.33 123.678 112.066 123.041 111.54C122.405 111.009 122.087 110.199 122.087 109.108V106.256H123.74V109.108C123.74 109.521 123.816 109.856 123.968 110.114C124.119 110.371 124.335 110.561 124.615 110.682C124.896 110.803 125.229 110.864 125.615 110.864C126.127 110.864 126.598 110.816 127.03 110.722C127.466 110.623 127.913 110.491 128.371 110.324ZM134.938 115.176C134.078 115.176 133.338 114.992 132.716 114.625C132.099 114.254 131.622 113.733 131.285 113.062C130.951 112.388 130.785 111.598 130.785 110.693C130.785 109.799 130.951 109.011 131.285 108.33C131.622 107.648 132.091 107.116 132.694 106.733C133.3 106.35 134.008 106.159 134.819 106.159C135.311 106.159 135.788 106.241 136.25 106.403C136.713 106.566 137.127 106.822 137.495 107.17C137.862 107.519 138.152 107.972 138.364 108.528C138.576 109.081 138.682 109.754 138.682 110.545V111.148H131.745V109.875H137.017C137.017 109.428 136.927 109.032 136.745 108.688C136.563 108.339 136.307 108.064 135.978 107.864C135.652 107.663 135.269 107.562 134.83 107.562C134.353 107.562 133.936 107.68 133.58 107.915C133.228 108.146 132.955 108.449 132.762 108.824C132.572 109.195 132.478 109.598 132.478 110.034V111.028C132.478 111.612 132.58 112.108 132.785 112.517C132.993 112.926 133.283 113.239 133.654 113.455C134.025 113.667 134.459 113.773 134.955 113.773C135.277 113.773 135.57 113.727 135.836 113.636C136.101 113.542 136.33 113.402 136.523 113.216C136.716 113.03 136.864 112.801 136.966 112.528L138.574 112.818C138.445 113.292 138.214 113.706 137.881 114.062C137.552 114.415 137.137 114.689 136.637 114.886C136.141 115.08 135.574 115.176 134.938 115.176ZM140.391 118.273V106.273H142.05V107.688H142.192C142.291 107.506 142.433 107.295 142.618 107.057C142.804 106.818 143.062 106.61 143.391 106.432C143.721 106.25 144.156 106.159 144.698 106.159C145.403 106.159 146.031 106.337 146.584 106.693C147.137 107.049 147.571 107.562 147.885 108.233C148.204 108.903 148.363 109.71 148.363 110.653C148.363 111.597 148.206 112.405 147.891 113.08C147.577 113.75 147.145 114.267 146.596 114.631C146.046 114.991 145.42 115.17 144.715 115.17C144.185 115.17 143.751 115.081 143.414 114.903C143.081 114.725 142.819 114.517 142.63 114.278C142.44 114.04 142.295 113.828 142.192 113.642H142.09V118.273H140.391ZM142.056 110.636C142.056 111.25 142.145 111.788 142.323 112.25C142.501 112.712 142.759 113.074 143.096 113.335C143.433 113.593 143.846 113.722 144.334 113.722C144.842 113.722 145.266 113.587 145.607 113.318C145.948 113.045 146.206 112.676 146.38 112.21C146.558 111.744 146.647 111.22 146.647 110.636C146.647 110.061 146.56 109.544 146.385 109.085C146.215 108.627 145.957 108.265 145.613 108C145.272 107.735 144.846 107.602 144.334 107.602C143.842 107.602 143.425 107.729 143.084 107.983C142.747 108.237 142.492 108.591 142.317 109.045C142.143 109.5 142.056 110.03 142.056 110.636ZM153.852 115.176C152.992 115.176 152.251 114.992 151.63 114.625C151.013 114.254 150.535 113.733 150.198 113.062C149.865 112.388 149.698 111.598 149.698 110.693C149.698 109.799 149.865 109.011 150.198 108.33C150.535 107.648 151.005 107.116 151.607 106.733C152.213 106.35 152.922 106.159 153.732 106.159C154.225 106.159 154.702 106.241 155.164 106.403C155.626 106.566 156.041 106.822 156.408 107.17C156.776 107.519 157.066 107.972 157.278 108.528C157.49 109.081 157.596 109.754 157.596 110.545V111.148H150.658V109.875H155.931C155.931 109.428 155.84 109.032 155.658 108.688C155.477 108.339 155.221 108.064 154.891 107.864C154.566 107.663 154.183 107.562 153.744 107.562C153.266 107.562 152.85 107.68 152.494 107.915C152.141 108.146 151.869 108.449 151.675 108.824C151.486 109.195 151.391 109.598 151.391 110.034V111.028C151.391 111.612 151.494 112.108 151.698 112.517C151.906 112.926 152.196 113.239 152.567 113.455C152.939 113.667 153.372 113.773 153.869 113.773C154.191 113.773 154.484 113.727 154.749 113.636C155.014 113.542 155.244 113.402 155.437 113.216C155.63 113.03 155.778 112.801 155.88 112.528L157.488 112.818C157.359 113.292 157.128 113.706 156.795 114.062C156.465 114.415 156.05 114.689 155.55 114.886C155.054 115.08 154.488 115.176 153.852 115.176ZM158.788 112.693H160.526C160.549 113.049 160.71 113.324 161.009 113.517C161.312 113.71 161.704 113.807 162.185 113.807C162.674 113.807 163.091 113.703 163.435 113.494C163.78 113.282 163.953 112.955 163.953 112.511C163.953 112.246 163.886 112.015 163.754 111.818C163.625 111.617 163.441 111.462 163.203 111.352C162.968 111.242 162.689 111.188 162.367 111.188H160.947V109.852H162.367C162.848 109.852 163.208 109.742 163.447 109.523C163.685 109.303 163.805 109.028 163.805 108.699C163.805 108.343 163.676 108.057 163.418 107.841C163.165 107.621 162.81 107.511 162.356 107.511C161.894 107.511 161.509 107.616 161.203 107.824C160.896 108.028 160.735 108.294 160.72 108.619H159.004C159.015 108.131 159.163 107.703 159.447 107.335C159.735 106.964 160.121 106.676 160.606 106.472C161.095 106.263 161.649 106.159 162.271 106.159C162.918 106.159 163.479 106.263 163.953 106.472C164.426 106.68 164.792 106.968 165.049 107.335C165.31 107.703 165.441 108.125 165.441 108.602C165.441 109.083 165.297 109.477 165.009 109.784C164.725 110.087 164.354 110.305 163.896 110.438V110.528C164.233 110.551 164.532 110.653 164.793 110.835C165.055 111.017 165.259 111.258 165.407 111.557C165.555 111.856 165.629 112.195 165.629 112.574C165.629 113.108 165.481 113.57 165.185 113.96C164.894 114.35 164.489 114.652 163.97 114.864C163.454 115.072 162.865 115.176 162.203 115.176C161.559 115.176 160.981 115.076 160.47 114.875C159.962 114.67 159.559 114.383 159.259 114.011C158.964 113.64 158.807 113.201 158.788 112.693ZM171.243 115V113.727L175.18 109.648C175.601 109.205 175.947 108.816 176.22 108.483C176.496 108.146 176.703 107.826 176.839 107.523C176.976 107.22 177.044 106.898 177.044 106.557C177.044 106.17 176.953 105.837 176.771 105.557C176.589 105.273 176.341 105.055 176.027 104.903C175.712 104.748 175.358 104.67 174.964 104.67C174.547 104.67 174.184 104.756 173.873 104.926C173.563 105.097 173.324 105.337 173.157 105.648C172.991 105.958 172.907 106.322 172.907 106.739H171.231C171.231 106.03 171.394 105.411 171.72 104.881C172.046 104.35 172.493 103.939 173.061 103.648C173.629 103.352 174.275 103.205 174.998 103.205C175.729 103.205 176.373 103.35 176.93 103.642C177.491 103.93 177.928 104.324 178.243 104.824C178.557 105.32 178.714 105.881 178.714 106.506C178.714 106.938 178.633 107.36 178.47 107.773C178.311 108.186 178.032 108.646 177.635 109.153C177.237 109.657 176.684 110.269 175.976 110.989L173.663 113.409V113.494H178.902V115H171.243ZM90.6298 141.517V137.528H91.3401C91.5219 137.362 91.6753 137.163 91.8003 136.932C91.9291 136.701 92.037 136.426 92.1242 136.108C92.2151 135.79 92.2908 135.419 92.3514 134.994C92.412 134.566 92.4651 134.078 92.5105 133.528L92.7832 130.273H98.7151V137.528H100.056V141.517H98.3969V139H92.3117V141.517H90.6298ZM93.1582 137.528H97.056V131.727H94.306L94.1242 133.528C94.037 134.445 93.9272 135.241 93.7946 135.915C93.662 136.585 93.4499 137.123 93.1582 137.528ZM107.455 133.903V135.375H102.728V133.903H107.455ZM103.205 130.273V139H101.54V130.273H103.205ZM108.643 130.273V139H106.984V130.273H108.643ZM115.944 139V131.722H113.853C113.357 131.722 112.971 131.837 112.694 132.068C112.418 132.299 112.279 132.602 112.279 132.977C112.279 133.348 112.406 133.648 112.66 133.875C112.918 134.098 113.277 134.21 113.739 134.21H116.438V135.585H113.739C113.096 135.585 112.539 135.479 112.069 135.267C111.603 135.051 111.243 134.746 110.989 134.352C110.739 133.958 110.614 133.492 110.614 132.955C110.614 132.405 110.743 131.932 111.001 131.534C111.262 131.133 111.635 130.822 112.12 130.602C112.609 130.383 113.186 130.273 113.853 130.273H117.541V139H115.944ZM110.217 139L112.677 134.591H114.416L111.955 139H110.217ZM45.656 157.903V159.375H40.9287V157.903H45.656ZM41.406 154.273V163H39.7412V154.273H41.406ZM46.8435 154.273V163H45.1844V154.273H46.8435ZM51.48 163.193C50.927 163.193 50.427 163.091 49.98 162.886C49.533 162.678 49.1789 162.377 48.9175 161.983C48.6599 161.589 48.5311 161.106 48.5311 160.534C48.5311 160.042 48.6258 159.636 48.8152 159.318C49.0046 159 49.2603 158.748 49.5823 158.562C49.9043 158.377 50.2641 158.237 50.6618 158.142C51.0596 158.047 51.4649 157.975 51.8777 157.926C52.4005 157.866 52.8247 157.816 53.1505 157.778C53.4762 157.737 53.713 157.67 53.8607 157.58C54.0084 157.489 54.0823 157.341 54.0823 157.136V157.097C54.0823 156.6 53.9421 156.216 53.6618 155.943C53.3853 155.67 52.9724 155.534 52.4232 155.534C51.8512 155.534 51.4005 155.661 51.0709 155.915C50.7452 156.165 50.5198 156.443 50.3948 156.75L48.7982 156.386C48.9876 155.856 49.2641 155.428 49.6277 155.102C49.9952 154.773 50.4175 154.534 50.8948 154.386C51.3721 154.235 51.8739 154.159 52.4005 154.159C52.7489 154.159 53.1183 154.201 53.5084 154.284C53.9024 154.364 54.2698 154.511 54.6107 154.727C54.9554 154.943 55.2376 155.252 55.4573 155.653C55.677 156.051 55.7868 156.568 55.7868 157.205V163H54.1277V161.807H54.0596C53.9497 162.027 53.7849 162.242 53.5652 162.455C53.3455 162.667 53.0633 162.843 52.7186 162.983C52.3739 163.123 51.9611 163.193 51.48 163.193ZM51.8493 161.83C52.319 161.83 52.7205 161.737 53.0539 161.551C53.391 161.366 53.6467 161.123 53.8209 160.824C53.9989 160.521 54.088 160.197 54.088 159.852V158.727C54.0274 158.788 53.9099 158.845 53.7357 158.898C53.5652 158.947 53.3702 158.991 53.1505 159.028C52.9308 159.062 52.7168 159.095 52.5084 159.125C52.3001 159.152 52.1258 159.174 51.9857 159.193C51.6561 159.235 51.355 159.305 51.0823 159.403C50.8133 159.502 50.5974 159.644 50.4346 159.83C50.2755 160.011 50.1959 160.254 50.1959 160.557C50.1959 160.977 50.3512 161.295 50.6618 161.511C50.9724 161.723 51.3683 161.83 51.8493 161.83ZM64.8793 154.273V163H63.2202V154.273H64.8793ZM64.1577 158.324V159.79C63.8963 159.896 63.6198 159.991 63.3282 160.074C63.0365 160.153 62.7297 160.216 62.4077 160.261C62.0857 160.307 61.7505 160.33 61.402 160.33C60.3225 160.33 59.4645 160.066 58.8282 159.54C58.1918 159.009 57.8736 158.199 57.8736 157.108V154.256H59.527V157.108C59.527 157.521 59.6028 157.856 59.7543 158.114C59.9058 158.371 60.1217 158.561 60.402 158.682C60.6823 158.803 61.0157 158.864 61.402 158.864C61.9134 158.864 62.385 158.816 62.8168 158.722C63.2524 158.623 63.6994 158.491 64.1577 158.324ZM69.503 163.193C68.95 163.193 68.45 163.091 68.003 162.886C67.556 162.678 67.2019 162.377 66.9405 161.983C66.6829 161.589 66.5541 161.106 66.5541 160.534C66.5541 160.042 66.6488 159.636 66.8382 159.318C67.0276 159 67.2833 158.748 67.6053 158.562C67.9273 158.377 68.2871 158.237 68.6848 158.142C69.0826 158.047 69.4879 157.975 69.9007 157.926C70.4235 157.866 70.8477 157.816 71.1735 157.778C71.4992 157.737 71.736 157.67 71.8837 157.58C72.0314 157.489 72.1053 157.341 72.1053 157.136V157.097C72.1053 156.6 71.9651 156.216 71.6848 155.943C71.4083 155.67 70.9954 155.534 70.4462 155.534C69.8742 155.534 69.4235 155.661 69.0939 155.915C68.7682 156.165 68.5428 156.443 68.4178 156.75L66.8212 156.386C67.0106 155.856 67.2871 155.428 67.6507 155.102C68.0182 154.773 68.4405 154.534 68.9178 154.386C69.3951 154.235 69.8969 154.159 70.4235 154.159C70.7719 154.159 71.1413 154.201 71.5314 154.284C71.9254 154.364 72.2928 154.511 72.6337 154.727C72.9784 154.943 73.2606 155.252 73.4803 155.653C73.7 156.051 73.8098 156.568 73.8098 157.205V163H72.1507V161.807H72.0826C71.9727 162.027 71.8079 162.242 71.5882 162.455C71.3685 162.667 71.0863 162.843 70.7416 162.983C70.3969 163.123 69.9841 163.193 69.503 163.193ZM69.8723 161.83C70.342 161.83 70.7435 161.737 71.0769 161.551C71.414 161.366 71.6697 161.123 71.8439 160.824C72.0219 160.521 72.111 160.197 72.111 159.852V158.727C72.0504 158.788 71.9329 158.845 71.7587 158.898C71.5882 158.947 71.3932 158.991 71.1735 159.028C70.9538 159.062 70.7398 159.095 70.5314 159.125C70.3231 159.152 70.1488 159.174 70.0087 159.193C69.6791 159.235 69.378 159.305 69.1053 159.403C68.8363 159.502 68.6204 159.644 68.4576 159.83C68.2985 160.011 68.2189 160.254 68.2189 160.557C68.2189 160.977 68.3742 161.295 68.6848 161.511C68.9954 161.723 69.3913 161.83 69.8723 161.83ZM75.2091 163L75.2034 161.528H75.5159C75.7584 161.528 75.961 161.477 76.1239 161.375C76.2906 161.269 76.4269 161.091 76.533 160.841C76.639 160.591 76.7205 160.246 76.7773 159.807C76.8341 159.364 76.8758 158.807 76.9023 158.136L77.0557 154.273H83.1466V163H81.4818V155.739H78.6296L78.4932 158.705C78.4591 159.424 78.3852 160.053 78.2716 160.591C78.1618 161.129 78.0008 161.578 77.7887 161.938C77.5765 162.294 77.3038 162.561 76.9705 162.739C76.6371 162.913 76.2318 163 75.7546 163H75.2091ZM88.9124 163.176C88.0677 163.176 87.3404 162.985 86.7306 162.602C86.1245 162.216 85.6586 161.684 85.3328 161.006C85.0071 160.328 84.8442 159.551 84.8442 158.676C84.8442 157.79 85.0109 157.008 85.3442 156.33C85.6775 155.648 86.1472 155.116 86.7533 154.733C87.3593 154.35 88.0734 154.159 88.8953 154.159C89.5582 154.159 90.1491 154.282 90.6681 154.528C91.187 154.771 91.6056 155.112 91.9237 155.551C92.2457 155.991 92.437 156.504 92.4976 157.091H90.8442C90.7533 156.682 90.545 156.33 90.2192 156.034C89.8972 155.739 89.4654 155.591 88.9237 155.591C88.4503 155.591 88.0355 155.716 87.6794 155.966C87.3271 156.212 87.0525 156.564 86.8556 157.023C86.6586 157.477 86.5601 158.015 86.5601 158.636C86.5601 159.273 86.6567 159.822 86.8499 160.284C87.0431 160.746 87.3158 161.104 87.6681 161.358C88.0241 161.612 88.4427 161.739 88.9237 161.739C89.2457 161.739 89.5374 161.68 89.7987 161.562C90.0639 161.441 90.2855 161.269 90.4635 161.045C90.6453 160.822 90.7722 160.553 90.8442 160.239H92.4976C92.437 160.803 92.2533 161.307 91.9465 161.75C91.6396 162.193 91.2287 162.542 90.7135 162.795C90.2021 163.049 89.6018 163.176 88.9124 163.176ZM99.3429 163V155.722H97.252C96.7558 155.722 96.3694 155.837 96.0929 156.068C95.8164 156.299 95.6781 156.602 95.6781 156.977C95.6781 157.348 95.805 157.648 96.0588 157.875C96.3164 158.098 96.6762 158.21 97.1384 158.21H99.8372V159.585H97.1384C96.4944 159.585 95.9376 159.479 95.4679 159.267C95.002 159.051 94.6421 158.746 94.3884 158.352C94.1384 157.958 94.0134 157.492 94.0134 156.955C94.0134 156.405 94.1421 155.932 94.3997 155.534C94.6611 155.133 95.0342 154.822 95.519 154.602C96.0077 154.383 96.5853 154.273 97.252 154.273H100.939V163H99.3429ZM93.6156 163L96.0759 158.591H97.8145L95.3543 163H93.6156ZM107.061 163V161.727L110.998 157.648C111.418 157.205 111.765 156.816 112.038 156.483C112.314 156.146 112.521 155.826 112.657 155.523C112.793 155.22 112.862 154.898 112.862 154.557C112.862 154.17 112.771 153.837 112.589 153.557C112.407 153.273 112.159 153.055 111.845 152.903C111.53 152.748 111.176 152.67 110.782 152.67C110.365 152.67 110.002 152.756 109.691 152.926C109.381 153.097 109.142 153.337 108.975 153.648C108.809 153.958 108.725 154.322 108.725 154.739H107.049C107.049 154.03 107.212 153.411 107.538 152.881C107.864 152.35 108.311 151.939 108.879 151.648C109.447 151.352 110.093 151.205 110.816 151.205C111.547 151.205 112.191 151.35 112.748 151.642C113.309 151.93 113.746 152.324 114.061 152.824C114.375 153.32 114.532 153.881 114.532 154.506C114.532 154.938 114.451 155.36 114.288 155.773C114.129 156.186 113.85 156.646 113.453 157.153C113.055 157.657 112.502 158.269 111.793 158.989L109.481 161.409V161.494H114.72V163H107.061ZM120.76 163.159C120.241 163.152 119.729 163.057 119.225 162.875C118.725 162.693 118.271 162.39 117.862 161.966C117.453 161.542 117.125 160.972 116.879 160.256C116.636 159.54 116.515 158.646 116.515 157.574C116.515 156.559 116.616 155.657 116.816 154.869C117.021 154.081 117.314 153.417 117.697 152.875C118.08 152.33 118.542 151.915 119.083 151.631C119.625 151.347 120.233 151.205 120.907 151.205C121.6 151.205 122.216 151.341 122.754 151.614C123.292 151.886 123.727 152.263 124.061 152.744C124.398 153.225 124.612 153.773 124.703 154.386H122.97C122.852 153.902 122.619 153.506 122.271 153.199C121.922 152.892 121.468 152.739 120.907 152.739C120.055 152.739 119.39 153.11 118.913 153.852C118.439 154.595 118.201 155.627 118.197 156.949H118.282C118.483 156.619 118.729 156.339 119.021 156.108C119.316 155.873 119.646 155.693 120.01 155.568C120.377 155.439 120.763 155.375 121.169 155.375C121.843 155.375 122.453 155.54 122.998 155.869C123.547 156.195 123.985 156.646 124.311 157.222C124.636 157.797 124.799 158.456 124.799 159.199C124.799 159.941 124.631 160.614 124.294 161.216C123.96 161.818 123.491 162.295 122.885 162.648C122.278 162.996 121.57 163.167 120.76 163.159ZM120.754 161.682C121.201 161.682 121.6 161.572 121.953 161.352C122.305 161.133 122.583 160.837 122.788 160.466C122.992 160.095 123.095 159.68 123.095 159.222C123.095 158.775 122.994 158.367 122.794 158C122.597 157.633 122.324 157.341 121.975 157.125C121.631 156.909 121.237 156.801 120.794 156.801C120.456 156.801 120.144 156.866 119.856 156.994C119.572 157.123 119.322 157.301 119.106 157.528C118.89 157.756 118.72 158.017 118.595 158.312C118.474 158.604 118.413 158.913 118.413 159.239C118.413 159.674 118.513 160.078 118.714 160.449C118.919 160.82 119.197 161.119 119.549 161.347C119.905 161.57 120.307 161.682 120.754 161.682ZM132.439 160.619L136.285 154.273H138.115V163H136.45V156.648L132.621 163H130.774V154.273H132.439V160.619ZM144.615 157.966V159.443H139.962V157.966H144.615ZM141.342 154.273V163H139.643V154.273H141.342ZM147.274 163.176C146.464 163.176 145.755 162.987 145.149 162.608C144.543 162.229 144.073 161.703 143.74 161.028C143.407 160.35 143.24 159.564 143.24 158.67C143.24 157.769 143.407 156.981 143.74 156.307C144.073 155.629 144.543 155.102 145.149 154.727C145.755 154.348 146.464 154.159 147.274 154.159C148.089 154.159 148.797 154.348 149.399 154.727C150.005 155.102 150.475 155.629 150.808 156.307C151.145 156.981 151.314 157.769 151.314 158.67C151.314 159.564 151.145 160.35 150.808 161.028C150.475 161.703 150.005 162.229 149.399 162.608C148.797 162.987 148.089 163.176 147.274 163.176ZM147.274 161.722C147.823 161.722 148.272 161.583 148.621 161.307C148.973 161.027 149.232 160.655 149.399 160.193C149.566 159.731 149.649 159.223 149.649 158.67C149.649 158.114 149.566 157.604 149.399 157.142C149.232 156.676 148.973 156.303 148.621 156.023C148.272 155.742 147.823 155.602 147.274 155.602C146.729 155.602 146.28 155.742 145.928 156.023C145.575 156.303 145.316 156.676 145.149 157.142C144.982 157.604 144.899 158.114 144.899 158.67C144.899 159.223 144.982 159.731 145.149 160.193C145.316 160.655 145.575 161.027 145.928 161.307C146.28 161.583 146.729 161.722 147.274 161.722ZM152.453 163L152.448 161.528H152.76C153.002 161.528 153.205 161.477 153.368 161.375C153.535 161.269 153.671 161.091 153.777 160.841C153.883 160.591 153.965 160.246 154.021 159.807C154.078 159.364 154.12 158.807 154.146 158.136L154.3 154.273H160.391V163H158.726V155.739H155.874L155.737 158.705C155.703 159.424 155.629 160.053 155.516 160.591C155.406 161.129 155.245 161.578 155.033 161.938C154.821 162.294 154.548 162.561 154.215 162.739C153.881 162.913 153.476 163 152.999 163H152.453ZM167.685 163V155.722H165.594C165.098 155.722 164.711 155.837 164.435 156.068C164.158 156.299 164.02 156.602 164.02 156.977C164.02 157.348 164.147 157.648 164.401 157.875C164.658 158.098 165.018 158.21 165.48 158.21H168.179V159.585H165.48C164.836 159.585 164.28 159.479 163.81 159.267C163.344 159.051 162.984 158.746 162.73 158.352C162.48 157.958 162.355 157.492 162.355 156.955C162.355 156.405 162.484 155.932 162.742 155.534C163.003 155.133 163.376 154.822 163.861 154.602C164.35 154.383 164.927 154.273 165.594 154.273H169.281V163H167.685ZM161.958 163L164.418 158.591H166.156L163.696 163H161.958Z" fill="black" fill-opacity="0.8"/>
</svg>
