<svg width="209" height="194" viewBox="0 0 209 194" fill="none" xmlns="http://www.w3.org/2000/svg">
<rect x="2" y="2" width="205" height="190" rx="6" fill="#FFE8A3" stroke="#DDBC00" stroke-width="4" stroke-linecap="round"/>
<path d="M48.098 55V43.3636H49.8537V48.4205H55.6548V43.3636H57.4162V55H55.6548V49.9261H49.8537V55H48.098ZM63.3367 55.1761C62.5186 55.1761 61.8045 54.9886 61.1947 54.6136C60.5849 54.2386 60.1114 53.714 59.7742 53.0398C59.4371 52.3655 59.2686 51.5777 59.2686 50.6761C59.2686 49.7708 59.4371 48.9792 59.7742 48.3011C60.1114 47.6231 60.5849 47.0966 61.1947 46.7216C61.8045 46.3466 62.5186 46.1591 63.3367 46.1591C64.1549 46.1591 64.8689 46.3466 65.4788 46.7216C66.0886 47.0966 66.5621 47.6231 66.8992 48.3011C67.2364 48.9792 67.4049 49.7708 67.4049 50.6761C67.4049 51.5777 67.2364 52.3655 66.8992 53.0398C66.5621 53.714 66.0886 54.2386 65.4788 54.6136C64.8689 54.9886 64.1549 55.1761 63.3367 55.1761ZM63.3424 53.75C63.8727 53.75 64.3121 53.6098 64.6606 53.3295C65.0091 53.0492 65.2667 52.6761 65.4333 52.2102C65.6038 51.7443 65.689 51.2311 65.689 50.6705C65.689 50.1136 65.6038 49.6023 65.4333 49.1364C65.2667 48.6667 65.0091 48.2898 64.6606 48.0057C64.3121 47.7216 63.8727 47.5795 63.3424 47.5795C62.8083 47.5795 62.3652 47.7216 62.0129 48.0057C61.6644 48.2898 61.4049 48.6667 61.2345 49.1364C61.0678 49.6023 60.9845 50.1136 60.9845 50.6705C60.9845 51.2311 61.0678 51.7443 61.2345 52.2102C61.4049 52.6761 61.6644 53.0492 62.0129 53.3295C62.3652 53.6098 62.8083 53.75 63.3424 53.75ZM69.1252 55V46.2727H72.7445C73.7294 46.2727 74.5097 46.483 75.0855 46.9034C75.6612 47.3201 75.9491 47.8864 75.9491 48.6023C75.9491 49.1136 75.7862 49.5189 75.4605 49.8182C75.1347 50.1174 74.7029 50.3182 74.165 50.4205C74.5552 50.4659 74.9131 50.5833 75.2389 50.7727C75.5646 50.9583 75.826 51.2083 76.023 51.5227C76.2237 51.8371 76.3241 52.2121 76.3241 52.6477C76.3241 53.1098 76.2048 53.5189 75.9661 53.875C75.7275 54.2273 75.3809 54.5038 74.9264 54.7045C74.4756 54.9015 73.932 55 73.2957 55H69.1252ZM70.7218 53.5795H73.2957C73.7161 53.5795 74.0457 53.4792 74.2843 53.2784C74.523 53.0777 74.6423 52.8049 74.6423 52.4602C74.6423 52.0549 74.523 51.7367 74.2843 51.5057C74.0457 51.2708 73.7161 51.1534 73.2957 51.1534H70.7218V53.5795ZM70.7218 49.9091H72.7616C73.0798 49.9091 73.3525 49.8636 73.5798 49.7727C73.8108 49.6818 73.987 49.553 74.1082 49.3864C74.2332 49.2159 74.2957 49.0152 74.2957 48.7841C74.2957 48.447 74.1574 48.1837 73.8809 47.9943C73.6044 47.8049 73.2256 47.7102 72.7445 47.7102H70.7218V49.9091ZM79.2901 49.2727H81.8242C82.8924 49.2727 83.7144 49.5379 84.2901 50.0682C84.8659 50.5985 85.1538 51.2822 85.1538 52.1193C85.1538 52.6648 85.025 53.1553 84.7674 53.5909C84.5098 54.0265 84.1329 54.3712 83.6367 54.625C83.1405 54.875 82.5364 55 81.8242 55H78.0117V46.2727H79.6765V53.5341H81.8242C82.3129 53.5341 82.7144 53.4072 83.0288 53.1534C83.3432 52.8958 83.5004 52.5682 83.5004 52.1705C83.5004 51.75 83.3432 51.4072 83.0288 51.142C82.7144 50.8731 82.3129 50.7386 81.8242 50.7386H79.2901V49.2727ZM86.3924 55V46.2727H88.0913V55H86.3924ZM91.8599 52.6193L95.7065 46.2727H97.536V55H95.8712V48.6477L92.0417 55H90.1951V46.2727H91.8599V52.6193ZM94.9792 43.3182H96.3769C96.3769 43.9583 96.1497 44.4792 95.6951 44.8807C95.2444 45.2784 94.6345 45.4773 93.8656 45.4773C93.1004 45.4773 92.4925 45.2784 92.0417 44.8807C91.5909 44.4792 91.3656 43.9583 91.3656 43.3182H92.7576C92.7576 43.6023 92.8409 43.8542 93.0076 44.0739C93.1743 44.2898 93.4603 44.3977 93.8656 44.3977C94.2633 44.3977 94.5474 44.2898 94.7178 44.0739C94.8921 43.858 94.9792 43.6061 94.9792 43.3182ZM103.702 46.2727H105.367V53.5284H108.384V46.2727H110.049V53.5284H113.066V46.2727H114.731V55H103.702V46.2727ZM119.363 55.1932C118.81 55.1932 118.31 55.0909 117.863 54.8864C117.416 54.678 117.062 54.3769 116.801 53.983C116.543 53.589 116.414 53.1061 116.414 52.5341C116.414 52.0417 116.509 51.6364 116.698 51.3182C116.888 51 117.143 50.7481 117.465 50.5625C117.787 50.3769 118.147 50.2367 118.545 50.142C118.943 50.0473 119.348 49.9754 119.761 49.9261C120.284 49.8655 120.708 49.8163 121.034 49.7784C121.359 49.7367 121.596 49.6705 121.744 49.5795C121.892 49.4886 121.965 49.3409 121.965 49.1364V49.0966C121.965 48.6004 121.825 48.2159 121.545 47.9432C121.268 47.6705 120.856 47.5341 120.306 47.5341C119.734 47.5341 119.284 47.661 118.954 47.9148C118.628 48.1648 118.403 48.4432 118.278 48.75L116.681 48.3864C116.871 47.8561 117.147 47.428 117.511 47.1023C117.878 46.7727 118.301 46.5341 118.778 46.3864C119.255 46.2348 119.757 46.1591 120.284 46.1591C120.632 46.1591 121.001 46.2008 121.392 46.2841C121.785 46.3636 122.153 46.5114 122.494 46.7273C122.839 46.9432 123.121 47.2519 123.34 47.6534C123.56 48.0511 123.67 48.5682 123.67 49.2045V55H122.011V53.8068H121.943C121.833 54.0265 121.668 54.2424 121.448 54.4545C121.229 54.6667 120.946 54.8428 120.602 54.983C120.257 55.1231 119.844 55.1932 119.363 55.1932ZM119.732 53.8295C120.202 53.8295 120.604 53.7367 120.937 53.5511C121.274 53.3655 121.53 53.1231 121.704 52.8239C121.882 52.5208 121.971 52.197 121.971 51.8523V50.7273C121.91 50.7879 121.793 50.8447 121.619 50.8977C121.448 50.947 121.253 50.9905 121.034 51.0284C120.814 51.0625 120.6 51.0947 120.392 51.125C120.183 51.1515 120.009 51.1742 119.869 51.1932C119.539 51.2348 119.238 51.3049 118.965 51.4034C118.696 51.5019 118.481 51.6439 118.318 51.8295C118.159 52.0114 118.079 52.2538 118.079 52.5568C118.079 52.9773 118.234 53.2955 118.545 53.5114C118.856 53.7235 119.251 53.8295 119.732 53.8295ZM132.49 43.0227L133.194 44.0966C132.933 44.3352 132.636 44.5057 132.302 44.608C131.973 44.7064 131.592 44.7689 131.16 44.7955C130.728 44.8182 130.234 44.839 129.677 44.858C129.048 44.8769 128.531 45.0133 128.126 45.267C127.721 45.517 127.408 45.8883 127.189 46.3807C126.973 46.8693 126.832 47.483 126.768 48.2216H126.876C127.16 47.6799 127.554 47.2746 128.058 47.0057C128.565 46.7367 129.136 46.6023 129.768 46.6023C130.473 46.6023 131.1 46.7633 131.649 47.0852C132.198 47.4072 132.63 47.8788 132.944 48.5C133.262 49.1174 133.422 49.8731 133.422 50.767C133.422 51.6723 133.255 52.4545 132.922 53.1136C132.592 53.7727 132.126 54.2822 131.524 54.642C130.925 54.9981 130.219 55.1761 129.404 55.1761C128.59 55.1761 127.88 54.9924 127.274 54.625C126.672 54.2538 126.204 53.7045 125.87 52.9773C125.541 52.25 125.376 51.3523 125.376 50.2841V49.4205C125.376 47.4242 125.732 45.9223 126.444 44.9148C127.156 43.9072 128.221 43.3902 129.637 43.3636C130.096 43.3523 130.505 43.3504 130.865 43.358C131.225 43.3617 131.539 43.3447 131.808 43.3068C132.081 43.2652 132.308 43.1705 132.49 43.0227ZM129.41 53.75C129.884 53.75 130.291 53.6307 130.632 53.392C130.976 53.1496 131.242 52.8068 131.427 52.3636C131.613 51.9205 131.706 51.3977 131.706 50.7955C131.706 50.2045 131.613 49.7027 131.427 49.2898C131.242 48.8769 130.976 48.5625 130.632 48.3466C130.287 48.1269 129.874 48.017 129.393 48.017C129.037 48.017 128.719 48.0795 128.439 48.2045C128.158 48.3258 127.918 48.5057 127.717 48.7443C127.52 48.983 127.367 49.2746 127.257 49.6193C127.151 49.9602 127.094 50.3523 127.086 50.7955C127.086 51.697 127.293 52.4148 127.706 52.9489C128.122 53.483 128.69 53.75 129.41 53.75ZM134.456 55L134.45 53.5284H134.763C135.005 53.5284 135.208 53.4773 135.371 53.375C135.537 53.2689 135.674 53.0909 135.78 52.8409C135.886 52.5909 135.967 52.2462 136.024 51.8068C136.081 51.3636 136.122 50.8068 136.149 50.1364L136.302 46.2727H142.393V55H140.728V47.7386H137.876L137.74 50.7045C137.706 51.4242 137.632 52.053 137.518 52.5909C137.408 53.1288 137.247 53.5777 137.035 53.9375C136.823 54.2936 136.55 54.5606 136.217 54.7386C135.884 54.9129 135.478 55 135.001 55H134.456ZM148.159 55.1761C147.341 55.1761 146.627 54.9886 146.017 54.6136C145.407 54.2386 144.934 53.714 144.596 53.0398C144.259 52.3655 144.091 51.5777 144.091 50.6761C144.091 49.7708 144.259 48.9792 144.596 48.3011C144.934 47.6231 145.407 47.0966 146.017 46.7216C146.627 46.3466 147.341 46.1591 148.159 46.1591C148.977 46.1591 149.691 46.3466 150.301 46.7216C150.911 47.0966 151.384 47.6231 151.721 48.3011C152.059 48.9792 152.227 49.7708 152.227 50.6761C152.227 51.5777 152.059 52.3655 151.721 53.0398C151.384 53.714 150.911 54.2386 150.301 54.6136C149.691 54.9886 148.977 55.1761 148.159 55.1761ZM148.165 53.75C148.695 53.75 149.134 53.6098 149.483 53.3295C149.831 53.0492 150.089 52.6761 150.256 52.2102C150.426 51.7443 150.511 51.2311 150.511 50.6705C150.511 50.1136 150.426 49.6023 150.256 49.1364C150.089 48.6667 149.831 48.2898 149.483 48.0057C149.134 47.7216 148.695 47.5795 148.165 47.5795C147.631 47.5795 147.187 47.7216 146.835 48.0057C146.487 48.2898 146.227 48.6667 146.057 49.1364C145.89 49.6023 145.807 50.1136 145.807 50.6705C145.807 51.2311 145.89 51.7443 146.057 52.2102C146.227 52.6761 146.487 53.0492 146.835 53.3295C147.187 53.6098 147.631 53.75 148.165 53.75ZM159.862 49.9034V51.375H155.135V49.9034H159.862ZM155.612 46.2727V55H153.947V46.2727H155.612ZM161.05 46.2727V55H159.391V46.2727H161.05ZM27.4795 67.3636V68.875H21.9795V79H20.2238V67.3636H27.4795ZM28.4584 79L28.4527 77.5284H28.7652C29.0076 77.5284 29.2102 77.4773 29.3731 77.375C29.5398 77.2689 29.6762 77.0909 29.7822 76.8409C29.8883 76.5909 29.9697 76.2462 30.0265 75.8068C30.0834 75.3636 30.125 74.8068 30.1515 74.1364L30.3049 70.2727H36.3959V79H34.7311V71.7386H31.8788L31.7424 74.7045C31.7084 75.4242 31.6345 76.053 31.5209 76.5909C31.411 77.1288 31.25 77.5777 31.0379 77.9375C30.8258 78.2936 30.5531 78.5606 30.2197 78.7386C29.8864 78.9129 29.4811 79 29.0038 79H28.4584ZM39.2468 82.2727C38.9931 82.2727 38.762 82.2519 38.5537 82.2102C38.3453 82.1723 38.19 82.1307 38.0878 82.0852L38.4968 80.6932C38.8075 80.7765 39.084 80.8125 39.3264 80.8011C39.5688 80.7898 39.7828 80.6989 39.9684 80.5284C40.1578 80.358 40.3245 80.0795 40.4684 79.6932L40.6787 79.1136L37.4855 70.2727H39.3037L41.5139 77.0455H41.6048L43.815 70.2727H45.6389L42.0423 80.1648C41.8756 80.6193 41.6635 81.0038 41.4059 81.3182C41.1484 81.6364 40.8415 81.875 40.4855 82.0341C40.1294 82.1932 39.7165 82.2727 39.2468 82.2727ZM53.7924 67.0227L54.497 68.0966C54.2356 68.3352 53.9383 68.5057 53.6049 68.608C53.2754 68.7064 52.8947 68.7689 52.4629 68.7955C52.0311 68.8182 51.5368 68.839 50.9799 68.858C50.3511 68.8769 49.8341 69.0133 49.4288 69.267C49.0235 69.517 48.711 69.8883 48.4913 70.3807C48.2754 70.8693 48.1352 71.483 48.0708 72.2216H48.1788C48.4629 71.6799 48.8568 71.2746 49.3606 71.0057C49.8682 70.7367 50.4383 70.6023 51.0708 70.6023C51.7754 70.6023 52.4023 70.7633 52.9515 71.0852C53.5008 71.4072 53.9326 71.8788 54.247 72.5C54.5652 73.1174 54.7243 73.8731 54.7243 74.767C54.7243 75.6723 54.5576 76.4545 54.2243 77.1136C53.8947 77.7727 53.4288 78.2822 52.8265 78.642C52.228 78.9981 51.5216 79.1761 50.7072 79.1761C49.8928 79.1761 49.1826 78.9924 48.5765 78.625C47.9743 78.2538 47.5064 77.7045 47.1731 76.9773C46.8436 76.25 46.6788 75.3523 46.6788 74.2841V73.4205C46.6788 71.4242 47.0349 69.9223 47.747 68.9148C48.4591 67.9072 49.5235 67.3902 50.9402 67.3636C51.3985 67.3523 51.8076 67.3504 52.1674 67.358C52.5273 67.3617 52.8417 67.3447 53.1106 67.3068C53.3833 67.2652 53.6106 67.1705 53.7924 67.0227ZM50.7129 77.75C51.1864 77.75 51.5936 77.6307 51.9345 77.392C52.2792 77.1496 52.5443 76.8068 52.7299 76.3636C52.9155 75.9205 53.0083 75.3977 53.0083 74.7955C53.0083 74.2045 52.9155 73.7027 52.7299 73.2898C52.5443 72.8769 52.2792 72.5625 51.9345 72.3466C51.5898 72.1269 51.1769 72.017 50.6958 72.017C50.3398 72.017 50.0216 72.0795 49.7413 72.2045C49.461 72.3258 49.2205 72.5057 49.0197 72.7443C48.8227 72.983 48.6693 73.2746 48.5595 73.6193C48.4534 73.9602 48.3966 74.3523 48.389 74.7955C48.389 75.697 48.5955 76.4148 49.0083 76.9489C49.425 77.483 49.9932 77.75 50.7129 77.75ZM60.1221 79.1761C59.3039 79.1761 58.5899 78.9886 57.9801 78.6136C57.3702 78.2386 56.8967 77.714 56.5596 77.0398C56.2225 76.3655 56.0539 75.5777 56.0539 74.6761C56.0539 73.7708 56.2225 72.9792 56.5596 72.3011C56.8967 71.6231 57.3702 71.0966 57.9801 70.7216C58.5899 70.3466 59.3039 70.1591 60.1221 70.1591C60.9403 70.1591 61.6543 70.3466 62.2642 70.7216C62.874 71.0966 63.3475 71.6231 63.6846 72.3011C64.0217 72.9792 64.1903 73.7708 64.1903 74.6761C64.1903 75.5777 64.0217 76.3655 63.6846 77.0398C63.3475 77.714 62.874 78.2386 62.2642 78.6136C61.6543 78.9886 60.9403 79.1761 60.1221 79.1761ZM60.1278 77.75C60.6581 77.75 61.0975 77.6098 61.446 77.3295C61.7945 77.0492 62.052 76.6761 62.2187 76.2102C62.3892 75.7443 62.4744 75.2311 62.4744 74.6705C62.4744 74.1136 62.3892 73.6023 62.2187 73.1364C62.052 72.6667 61.7945 72.2898 61.446 72.0057C61.0975 71.7216 60.6581 71.5795 60.1278 71.5795C59.5937 71.5795 59.1505 71.7216 58.7983 72.0057C58.4498 72.2898 58.1903 72.6667 58.0198 73.1364C57.8532 73.6023 57.7698 74.1136 57.7698 74.6705C57.7698 75.2311 57.8532 75.7443 58.0198 76.2102C58.1903 76.6761 58.4498 77.0492 58.7983 77.3295C59.1505 77.6098 59.5937 77.75 60.1278 77.75ZM65.9106 79V70.2727H67.6095V73.9318H68.4276L71.3083 70.2727H73.4106L70.0299 74.517L73.4504 79H71.3424L68.7117 75.5114H67.6095V79H65.9106ZM77.9107 79.1761C77.0926 79.1761 76.3785 78.9886 75.7687 78.6136C75.1588 78.2386 74.6854 77.714 74.3482 77.0398C74.0111 76.3655 73.8426 75.5777 73.8426 74.6761C73.8426 73.7708 74.0111 72.9792 74.3482 72.3011C74.6854 71.6231 75.1588 71.0966 75.7687 70.7216C76.3785 70.3466 77.0926 70.1591 77.9107 70.1591C78.7289 70.1591 79.4429 70.3466 80.0528 70.7216C80.6626 71.0966 81.1361 71.6231 81.4732 72.3011C81.8104 72.9792 81.9789 73.7708 81.9789 74.6761C81.9789 75.5777 81.8104 76.3655 81.4732 77.0398C81.1361 77.714 80.6626 78.2386 80.0528 78.6136C79.4429 78.9886 78.7289 79.1761 77.9107 79.1761ZM77.9164 77.75C78.4467 77.75 78.8861 77.6098 79.2346 77.3295C79.5831 77.0492 79.8407 76.6761 80.0073 76.2102C80.1778 75.7443 80.263 75.2311 80.263 74.6705C80.263 74.1136 80.1778 73.6023 80.0073 73.1364C79.8407 72.6667 79.5831 72.2898 79.2346 72.0057C78.8861 71.7216 78.4467 71.5795 77.9164 71.5795C77.3823 71.5795 76.9392 71.7216 76.5869 72.0057C76.2384 72.2898 75.9789 72.6667 75.8085 73.1364C75.6418 73.6023 75.5585 74.1136 75.5585 74.6705C75.5585 75.2311 75.6418 75.7443 75.8085 76.2102C75.9789 76.6761 76.2384 77.0492 76.5869 77.3295C76.9392 77.6098 77.3823 77.75 77.9164 77.75ZM87.4606 79.1761C86.6008 79.1761 85.8602 78.9924 85.239 78.625C84.6216 78.2538 84.1443 77.733 83.8072 77.0625C83.4739 76.3883 83.3072 75.5985 83.3072 74.6932C83.3072 73.7992 83.4739 73.0114 83.8072 72.3295C84.1443 71.6477 84.614 71.1155 85.2163 70.733C85.8223 70.3504 86.5307 70.1591 87.3413 70.1591C87.8337 70.1591 88.311 70.2405 88.7731 70.4034C89.2352 70.5663 89.65 70.822 90.0174 71.1705C90.3848 71.5189 90.6746 71.9716 90.8867 72.5284C91.0989 73.0814 91.2049 73.7538 91.2049 74.5455V75.1477H84.2674V73.875H89.5401C89.5401 73.428 89.4492 73.0322 89.2674 72.6875C89.0856 72.339 88.8299 72.0644 88.5004 71.8636C88.1746 71.6629 87.792 71.5625 87.3526 71.5625C86.8754 71.5625 86.4587 71.6799 86.1026 71.9148C85.7504 72.1458 85.4776 72.4489 85.2845 72.8239C85.0951 73.1951 85.0004 73.5985 85.0004 74.0341V75.0284C85.0004 75.6117 85.1026 76.108 85.3072 76.517C85.5155 76.9261 85.8053 77.2386 86.1765 77.4545C86.5477 77.6667 86.9814 77.7727 87.4776 77.7727C87.7996 77.7727 88.0932 77.7273 88.3583 77.6364C88.6235 77.5417 88.8526 77.4015 89.0458 77.2159C89.239 77.0303 89.3867 76.8011 89.489 76.5284L91.097 76.8182C90.9682 77.2917 90.7371 77.7064 90.4038 78.0625C90.0742 78.4148 89.6595 78.6894 89.1595 78.8864C88.6633 79.0795 88.097 79.1761 87.4606 79.1761ZM96.9722 79V70.2727H104.092V79H102.427V71.7386H98.6256V79H96.9722ZM109.863 79.1761C109.045 79.1761 108.331 78.9886 107.721 78.6136C107.111 78.2386 106.638 77.714 106.3 77.0398C105.963 76.3655 105.795 75.5777 105.795 74.6761C105.795 73.7708 105.963 72.9792 106.3 72.3011C106.638 71.6231 107.111 71.0966 107.721 70.7216C108.331 70.3466 109.045 70.1591 109.863 70.1591C110.681 70.1591 111.395 70.3466 112.005 70.7216C112.615 71.0966 113.088 71.6231 113.425 72.3011C113.763 72.9792 113.931 73.7708 113.931 74.6761C113.931 75.5777 113.763 76.3655 113.425 77.0398C113.088 77.714 112.615 78.2386 112.005 78.6136C111.395 78.9886 110.681 79.1761 109.863 79.1761ZM109.869 77.75C110.399 77.75 110.838 77.6098 111.187 77.3295C111.535 77.0492 111.793 76.6761 111.96 76.2102C112.13 75.7443 112.215 75.2311 112.215 74.6705C112.215 74.1136 112.13 73.6023 111.96 73.1364C111.793 72.6667 111.535 72.2898 111.187 72.0057C110.838 71.7216 110.399 71.5795 109.869 71.5795C109.335 71.5795 108.891 71.7216 108.539 72.0057C108.191 72.2898 107.931 72.6667 107.761 73.1364C107.594 73.6023 107.511 74.1136 107.511 74.6705C107.511 75.2311 107.594 75.7443 107.761 76.2102C107.931 76.6761 108.191 77.0492 108.539 77.3295C108.891 77.6098 109.335 77.75 109.869 77.75ZM121.231 70.2727V71.7386H117.328V79H115.651V70.2727H121.231ZM122.85 82.2727V70.2727H124.51V71.6875H124.652C124.75 71.5057 124.892 71.2955 125.078 71.0568C125.263 70.8182 125.521 70.6098 125.85 70.4318C126.18 70.25 126.616 70.1591 127.157 70.1591C127.862 70.1591 128.491 70.3371 129.044 70.6932C129.597 71.0492 130.03 71.5625 130.345 72.233C130.663 72.9034 130.822 73.7102 130.822 74.6534C130.822 75.5966 130.665 76.4053 130.35 77.0795C130.036 77.75 129.604 78.267 129.055 78.6307C128.506 78.9905 127.879 79.1705 127.174 79.1705C126.644 79.1705 126.21 79.0814 125.873 78.9034C125.54 78.7254 125.279 78.517 125.089 78.2784C124.9 78.0398 124.754 77.8277 124.652 77.642H124.549V82.2727H122.85ZM124.515 74.6364C124.515 75.25 124.604 75.7879 124.782 76.25C124.96 76.7121 125.218 77.0739 125.555 77.3352C125.892 77.5928 126.305 77.7216 126.794 77.7216C127.301 77.7216 127.725 77.5871 128.066 77.3182C128.407 77.0455 128.665 76.6761 128.839 76.2102C129.017 75.7443 129.106 75.2197 129.106 74.6364C129.106 74.0606 129.019 73.5436 128.845 73.0852C128.674 72.6269 128.417 72.2652 128.072 72C127.731 71.7348 127.305 71.6023 126.794 71.6023C126.301 71.6023 125.885 71.7292 125.544 71.983C125.207 72.2367 124.951 72.5909 124.777 73.0455C124.602 73.5 124.515 74.0303 124.515 74.6364ZM133.326 82.2727C133.073 82.2727 132.842 82.2519 132.633 82.2102C132.425 82.1723 132.27 82.1307 132.167 82.0852L132.576 80.6932C132.887 80.7765 133.164 80.8125 133.406 80.8011C133.648 80.7898 133.862 80.6989 134.048 80.5284C134.237 80.358 134.404 80.0795 134.548 79.6932L134.758 79.1136L131.565 70.2727H133.383L135.594 77.0455H135.684L137.895 70.2727H139.719L136.122 80.1648C135.955 80.6193 135.743 81.0038 135.486 81.3182C135.228 81.6364 134.921 81.875 134.565 82.0341C134.209 82.1932 133.796 82.2727 133.326 82.2727ZM140.582 79L143.963 74.5341L140.622 70.2727H142.599L145.298 73.8977H145.906V70.2727H147.605V73.8977H148.196L150.895 70.2727H152.872L149.548 74.5341L152.912 79H150.895L148.173 75.3636H147.605V79H145.906V75.3636H145.338L142.599 79H140.582ZM157.881 79.1761C157.021 79.1761 156.28 78.9924 155.659 78.625C155.042 78.2538 154.564 77.733 154.227 77.0625C153.894 76.3883 153.727 75.5985 153.727 74.6932C153.727 73.7992 153.894 73.0114 154.227 72.3295C154.564 71.6477 155.034 71.1155 155.636 70.733C156.242 70.3504 156.951 70.1591 157.761 70.1591C158.254 70.1591 158.731 70.2405 159.193 70.4034C159.655 70.5663 160.07 70.822 160.438 71.1705C160.805 71.5189 161.095 71.9716 161.307 72.5284C161.519 73.0814 161.625 73.7538 161.625 74.5455V75.1477H154.688V73.875H159.96C159.96 73.428 159.869 73.0322 159.688 72.6875C159.506 72.339 159.25 72.0644 158.92 71.8636C158.595 71.6629 158.212 71.5625 157.773 71.5625C157.295 71.5625 156.879 71.6799 156.523 71.9148C156.17 72.1458 155.898 72.4489 155.705 72.8239C155.515 73.1951 155.42 73.5985 155.42 74.0341V75.0284C155.42 75.6117 155.523 76.108 155.727 76.517C155.936 76.9261 156.225 77.2386 156.597 77.4545C156.968 77.6667 157.402 77.7727 157.898 77.7727C158.22 77.7727 158.513 77.7273 158.778 77.6364C159.044 77.5417 159.273 77.4015 159.466 77.2159C159.659 77.0303 159.807 76.8011 159.909 76.5284L161.517 76.8182C161.388 77.2917 161.157 77.7064 160.824 78.0625C160.494 78.4148 160.08 78.6894 159.58 78.8864C159.083 79.0795 158.517 79.1761 157.881 79.1761ZM169.249 73.9034V75.375H164.521V73.9034H169.249ZM164.999 70.2727V79H163.334V70.2727H164.999ZM170.436 70.2727V79H168.777V70.2727H170.436ZM174.198 76.6193L178.044 70.2727H179.874V79H178.209V72.6477L174.38 79H172.533V70.2727H174.198V76.6193ZM185.743 79.1761C184.883 79.1761 184.143 78.9924 183.522 78.625C182.904 78.2538 182.427 77.733 182.09 77.0625C181.757 76.3883 181.59 75.5985 181.59 74.6932C181.59 73.7992 181.757 73.0114 182.09 72.3295C182.427 71.6477 182.897 71.1155 183.499 70.733C184.105 70.3504 184.813 70.1591 185.624 70.1591C186.116 70.1591 186.594 70.2405 187.056 70.4034C187.518 70.5663 187.933 70.822 188.3 71.1705C188.668 71.5189 188.957 71.9716 189.169 72.5284C189.382 73.0814 189.488 73.7538 189.488 74.5455V75.1477H182.55V73.875H187.823C187.823 73.428 187.732 73.0322 187.55 72.6875C187.368 72.339 187.113 72.0644 186.783 71.8636C186.457 71.6629 186.075 71.5625 185.635 71.5625C185.158 71.5625 184.741 71.6799 184.385 71.9148C184.033 72.1458 183.76 72.4489 183.567 72.8239C183.378 73.1951 183.283 73.5985 183.283 74.0341V75.0284C183.283 75.6117 183.385 76.108 183.59 76.517C183.798 76.9261 184.088 77.2386 184.459 77.4545C184.83 77.6667 185.264 77.7727 185.76 77.7727C186.082 77.7727 186.376 77.7273 186.641 77.6364C186.906 77.5417 187.135 77.4015 187.329 77.2159C187.522 77.0303 187.669 76.8011 187.772 76.5284L189.38 76.8182C189.251 77.2917 189.02 77.7064 188.687 78.0625C188.357 78.4148 187.942 78.6894 187.442 78.8864C186.946 79.0795 186.38 79.1761 185.743 79.1761ZM29.3568 103V94.2727H32.9761C33.961 94.2727 34.7413 94.483 35.317 94.9034C35.8928 95.3201 36.1807 95.8864 36.1807 96.6023C36.1807 97.1136 36.0178 97.5189 35.692 97.8182C35.3663 98.1174 34.9344 98.3182 34.3966 98.4205C34.7867 98.4659 35.1447 98.5833 35.4704 98.7727C35.7962 98.9583 36.0576 99.2083 36.2545 99.5227C36.4553 99.8371 36.5557 100.212 36.5557 100.648C36.5557 101.11 36.4363 101.519 36.1977 101.875C35.9591 102.227 35.6125 102.504 35.1579 102.705C34.7072 102.902 34.1636 103 33.5273 103H29.3568ZM30.9534 101.58H33.5273C33.9477 101.58 34.2773 101.479 34.5159 101.278C34.7545 101.078 34.8738 100.805 34.8738 100.46C34.8738 100.055 34.7545 99.7367 34.5159 99.5057C34.2773 99.2708 33.9477 99.1534 33.5273 99.1534H30.9534V101.58ZM30.9534 97.9091H32.9932C33.3113 97.9091 33.5841 97.8636 33.8113 97.7727C34.0424 97.6818 34.2185 97.553 34.3398 97.3864C34.4648 97.2159 34.5273 97.0152 34.5273 96.7841C34.5273 96.447 34.389 96.1837 34.1125 95.9943C33.836 95.8049 33.4572 95.7102 32.9761 95.7102H30.9534V97.9091ZM47.1994 100.898L50.0176 94.2727H51.4835L47.8301 103H46.5687L42.9892 94.2727H44.438L47.1994 100.898ZM43.9664 94.2727V103H42.3017V94.2727H43.9664ZM50.4778 103V94.2727H52.1312V103H50.4778ZM57.9808 103.176C57.1209 103.176 56.3804 102.992 55.7592 102.625C55.1418 102.254 54.6645 101.733 54.3274 101.062C53.994 100.388 53.8274 99.5985 53.8274 98.6932C53.8274 97.7992 53.994 97.0114 54.3274 96.3295C54.6645 95.6477 55.1342 95.1155 55.7365 94.733C56.3425 94.3504 57.0509 94.1591 57.8615 94.1591C58.3539 94.1591 58.8312 94.2405 59.2933 94.4034C59.7554 94.5663 60.1702 94.822 60.5376 95.1705C60.905 95.5189 61.1948 95.9716 61.4069 96.5284C61.619 97.0814 61.7251 97.7538 61.7251 98.5455V99.1477H54.7876V97.875H60.0603C60.0603 97.428 59.9694 97.0322 59.7876 96.6875C59.6058 96.339 59.3501 96.0644 59.0206 95.8636C58.6948 95.6629 58.3122 95.5625 57.8728 95.5625C57.3956 95.5625 56.9789 95.6799 56.6228 95.9148C56.2706 96.1458 55.9978 96.4489 55.8047 96.8239C55.6153 97.1951 55.5206 97.5985 55.5206 98.0341V99.0284C55.5206 99.6117 55.6228 100.108 55.8274 100.517C56.0357 100.926 56.3255 101.239 56.6967 101.455C57.0679 101.667 57.5016 101.773 57.9978 101.773C58.3198 101.773 58.6134 101.727 58.8785 101.636C59.1437 101.542 59.3728 101.402 59.566 101.216C59.7592 101.03 59.9069 100.801 60.0092 100.528L61.6172 100.818C61.4884 101.292 61.2573 101.706 60.924 102.062C60.5944 102.415 60.1797 102.689 59.6797 102.886C59.1834 103.08 58.6171 103.176 57.9808 103.176ZM62.6642 95.7386V94.2727H70.0278V95.7386H67.1812V103H65.5221V95.7386H62.6642ZM71.6487 106.273V94.2727H73.3078V95.6875H73.4498C73.5483 95.5057 73.6903 95.2955 73.8759 95.0568C74.0616 94.8182 74.3191 94.6098 74.6487 94.4318C74.9782 94.25 75.4138 94.1591 75.9555 94.1591C76.66 94.1591 77.2888 94.3371 77.8419 94.6932C78.3949 95.0492 78.8286 95.5625 79.143 96.233C79.4612 96.9034 79.6203 97.7102 79.6203 98.6534C79.6203 99.5966 79.4631 100.405 79.1487 101.08C78.8343 101.75 78.4025 102.267 77.8532 102.631C77.304 102.991 76.6771 103.17 75.9725 103.17C75.4422 103.17 75.0085 103.081 74.6714 102.903C74.3381 102.725 74.0767 102.517 73.8873 102.278C73.6979 102.04 73.5521 101.828 73.4498 101.642H73.3475V106.273H71.6487ZM73.3134 98.6364C73.3134 99.25 73.4025 99.7879 73.5805 100.25C73.7585 100.712 74.0161 101.074 74.3532 101.335C74.6903 101.593 75.1032 101.722 75.5919 101.722C76.0994 101.722 76.5237 101.587 76.8646 101.318C77.2055 101.045 77.4631 100.676 77.6373 100.21C77.8153 99.7443 77.9044 99.2197 77.9044 98.6364C77.9044 98.0606 77.8172 97.5436 77.643 97.0852C77.4725 96.6269 77.215 96.2652 76.8703 96C76.5294 95.7348 76.1032 95.6023 75.5919 95.6023C75.0994 95.6023 74.6828 95.7292 74.3419 95.983C74.0047 96.2367 73.7491 96.5909 73.5748 97.0455C73.4006 97.5 73.3134 98.0303 73.3134 98.6364ZM83.0124 100.619L86.859 94.2727H88.6886V103H87.0238V96.6477L83.1943 103H81.3477V94.2727H83.0124V100.619ZM90.7967 103V94.2727H92.4955V97.9318H93.3137L96.1944 94.2727H98.2967L94.916 98.517L98.3365 103H96.2285L93.5978 99.5114H92.4955V103H90.7967ZM100.601 106.273C100.347 106.273 100.116 106.252 99.9076 106.21C99.6993 106.172 99.544 106.131 99.4417 106.085L99.8508 104.693C100.161 104.777 100.438 104.813 100.68 104.801C100.923 104.79 101.137 104.699 101.322 104.528C101.512 104.358 101.678 104.08 101.822 103.693L102.033 103.114L98.8394 94.2727H100.658L102.868 101.045H102.959L105.169 94.2727H106.993L103.396 104.165C103.23 104.619 103.017 105.004 102.76 105.318C102.502 105.636 102.195 105.875 101.839 106.034C101.483 106.193 101.07 106.273 100.601 106.273ZM109.533 103.108C109.222 103.108 108.955 102.998 108.732 102.778C108.508 102.555 108.396 102.286 108.396 101.972C108.396 101.661 108.508 101.396 108.732 101.176C108.955 100.953 109.222 100.841 109.533 100.841C109.843 100.841 110.11 100.953 110.334 101.176C110.557 101.396 110.669 101.661 110.669 101.972C110.669 102.18 110.616 102.371 110.51 102.545C110.408 102.716 110.271 102.852 110.101 102.955C109.93 103.057 109.741 103.108 109.533 103.108ZM109.533 96.7557C109.222 96.7557 108.955 96.6439 108.732 96.4205C108.508 96.197 108.396 95.9299 108.396 95.6193C108.396 95.3087 108.508 95.0436 108.732 94.8239C108.955 94.6004 109.222 94.4886 109.533 94.4886C109.843 94.4886 110.11 94.6004 110.334 94.8239C110.557 95.0436 110.669 95.3087 110.669 95.6193C110.669 95.8277 110.616 96.0189 110.51 96.1932C110.408 96.3636 110.271 96.5 110.101 96.6023C109.93 96.7045 109.741 96.7557 109.533 96.7557ZM126.628 95.1477H124.855C124.787 94.7689 124.66 94.4356 124.475 94.1477C124.289 93.8598 124.062 93.6155 123.793 93.4148C123.524 93.214 123.223 93.0625 122.89 92.9602C122.56 92.858 122.21 92.8068 121.838 92.8068C121.168 92.8068 120.568 92.9754 120.037 93.3125C119.511 93.6496 119.094 94.1439 118.787 94.7955C118.484 95.447 118.333 96.2424 118.333 97.1818C118.333 98.1288 118.484 98.928 118.787 99.5795C119.094 100.231 119.513 100.723 120.043 101.057C120.573 101.39 121.17 101.557 121.833 101.557C122.2 101.557 122.549 101.508 122.878 101.409C123.212 101.307 123.513 101.157 123.782 100.96C124.051 100.763 124.278 100.523 124.463 100.239C124.653 99.9508 124.783 99.6212 124.855 99.25L126.628 99.2557C126.533 99.8277 126.35 100.354 126.077 100.835C125.808 101.312 125.462 101.725 125.037 102.074C124.617 102.419 124.136 102.686 123.594 102.875C123.052 103.064 122.462 103.159 121.821 103.159C120.814 103.159 119.916 102.92 119.128 102.443C118.34 101.962 117.719 101.275 117.265 100.381C116.814 99.4867 116.588 98.4205 116.588 97.1818C116.588 95.9394 116.816 94.8731 117.27 93.983C117.725 93.089 118.346 92.4034 119.134 91.9261C119.922 91.4451 120.818 91.2045 121.821 91.2045C122.439 91.2045 123.015 91.2936 123.549 91.4716C124.087 91.6458 124.569 91.9034 124.998 92.2443C125.426 92.5814 125.78 92.9943 126.06 93.483C126.34 93.9678 126.53 94.5227 126.628 95.1477ZM135.422 94.2727V103H133.763V94.2727H135.422ZM134.701 98.3239V99.7898C134.439 99.8958 134.163 99.9905 133.871 100.074C133.58 100.153 133.273 100.216 132.951 100.261C132.629 100.307 132.294 100.33 131.945 100.33C130.866 100.33 130.008 100.066 129.371 99.5398C128.735 99.0095 128.417 98.1989 128.417 97.108V94.2557H130.07V97.108C130.07 97.5208 130.146 97.8561 130.297 98.1136C130.449 98.3712 130.665 98.5606 130.945 98.6818C131.225 98.803 131.559 98.8636 131.945 98.8636C132.456 98.8636 132.928 98.8163 133.36 98.7216C133.795 98.6231 134.242 98.4905 134.701 98.3239ZM140.046 103.193C139.493 103.193 138.993 103.091 138.546 102.886C138.099 102.678 137.745 102.377 137.484 101.983C137.226 101.589 137.097 101.106 137.097 100.534C137.097 100.042 137.192 99.6364 137.381 99.3182C137.571 99 137.826 98.7481 138.148 98.5625C138.47 98.3769 138.83 98.2367 139.228 98.142C139.626 98.0473 140.031 97.9754 140.444 97.9261C140.967 97.8655 141.391 97.8163 141.717 97.7784C142.042 97.7367 142.279 97.6705 142.427 97.5795C142.574 97.4886 142.648 97.3409 142.648 97.1364V97.0966C142.648 96.6004 142.508 96.2159 142.228 95.9432C141.951 95.6705 141.538 95.5341 140.989 95.5341C140.417 95.5341 139.967 95.661 139.637 95.9148C139.311 96.1648 139.086 96.4432 138.961 96.75L137.364 96.3864C137.554 95.8561 137.83 95.428 138.194 95.1023C138.561 94.7727 138.984 94.5341 139.461 94.3864C139.938 94.2348 140.44 94.1591 140.967 94.1591C141.315 94.1591 141.684 94.2008 142.074 94.2841C142.468 94.3636 142.836 94.5114 143.177 94.7273C143.521 94.9432 143.804 95.2519 144.023 95.6534C144.243 96.0511 144.353 96.5682 144.353 97.2045V103H142.694V101.807H142.626C142.516 102.027 142.351 102.242 142.131 102.455C141.912 102.667 141.629 102.843 141.285 102.983C140.94 103.123 140.527 103.193 140.046 103.193ZM140.415 101.83C140.885 101.83 141.287 101.737 141.62 101.551C141.957 101.366 142.213 101.123 142.387 100.824C142.565 100.521 142.654 100.197 142.654 99.8523V98.7273C142.593 98.7879 142.476 98.8447 142.302 98.8977C142.131 98.947 141.936 98.9905 141.717 99.0284C141.497 99.0625 141.283 99.0947 141.074 99.125C140.866 99.1515 140.692 99.1742 140.552 99.1932C140.222 99.2348 139.921 99.3049 139.648 99.4034C139.379 99.5019 139.163 99.6439 139.001 99.8295C138.842 100.011 138.762 100.254 138.762 100.557C138.762 100.977 138.917 101.295 139.228 101.511C139.538 101.723 139.934 101.83 140.415 101.83ZM150.116 103.176C149.271 103.176 148.544 102.985 147.934 102.602C147.328 102.216 146.862 101.684 146.536 101.006C146.211 100.328 146.048 99.5511 146.048 98.6761C146.048 97.7898 146.214 97.0076 146.548 96.3295C146.881 95.6477 147.351 95.1155 147.957 94.733C148.563 94.3504 149.277 94.1591 150.099 94.1591C150.762 94.1591 151.353 94.2822 151.871 94.5284C152.39 94.7708 152.809 95.1117 153.127 95.5511C153.449 95.9905 153.64 96.5038 153.701 97.0909H152.048C151.957 96.6818 151.748 96.3295 151.423 96.0341C151.101 95.7386 150.669 95.5909 150.127 95.5909C149.654 95.5909 149.239 95.7159 148.883 95.9659C148.531 96.2121 148.256 96.5644 148.059 97.0227C147.862 97.4773 147.764 98.0152 147.764 98.6364C147.764 99.2727 147.86 99.822 148.053 100.284C148.246 100.746 148.519 101.104 148.871 101.358C149.228 101.612 149.646 101.739 150.127 101.739C150.449 101.739 150.741 101.68 151.002 101.562C151.267 101.441 151.489 101.269 151.667 101.045C151.849 100.822 151.976 100.553 152.048 100.239H153.701C153.64 100.803 153.457 101.307 153.15 101.75C152.843 102.193 152.432 102.542 151.917 102.795C151.406 103.049 150.805 103.176 150.116 103.176ZM154.681 95.7386V94.2727H162.045V95.7386H159.198V103H157.539V95.7386H154.681ZM164.944 97.2727H167.478C168.546 97.2727 169.368 97.5379 169.944 98.0682C170.52 98.5985 170.808 99.2822 170.808 100.119C170.808 100.665 170.679 101.155 170.421 101.591C170.164 102.027 169.787 102.371 169.291 102.625C168.795 102.875 168.19 103 167.478 103H163.666V94.2727H165.331V101.534H167.478C167.967 101.534 168.368 101.407 168.683 101.153C168.997 100.896 169.154 100.568 169.154 100.17C169.154 99.75 168.997 99.4072 168.683 99.142C168.368 98.8731 167.967 98.7386 167.478 98.7386H164.944V97.2727ZM176.298 103.176C175.438 103.176 174.698 102.992 174.076 102.625C173.459 102.254 172.982 101.733 172.645 101.062C172.311 100.388 172.145 99.5985 172.145 98.6932C172.145 97.7992 172.311 97.0114 172.645 96.3295C172.982 95.6477 173.451 95.1155 174.054 94.733C174.66 94.3504 175.368 94.1591 176.179 94.1591C176.671 94.1591 177.148 94.2405 177.611 94.4034C178.073 94.5663 178.487 94.822 178.855 95.1705C179.222 95.5189 179.512 95.9716 179.724 96.5284C179.936 97.0814 180.042 97.7538 180.042 98.5455V99.1477H173.105V97.875H178.378C178.378 97.428 178.287 97.0322 178.105 96.6875C177.923 96.339 177.667 96.0644 177.338 95.8636C177.012 95.6629 176.629 95.5625 176.19 95.5625C175.713 95.5625 175.296 95.6799 174.94 95.9148C174.588 96.1458 174.315 96.4489 174.122 96.8239C173.933 97.1951 173.838 97.5985 173.838 98.0341V99.0284C173.838 99.6117 173.94 100.108 174.145 100.517C174.353 100.926 174.643 101.239 175.014 101.455C175.385 101.667 175.819 101.773 176.315 101.773C176.637 101.773 176.931 101.727 177.196 101.636C177.461 101.542 177.69 101.402 177.883 101.216C178.076 101.03 178.224 100.801 178.326 100.528L179.934 100.818C179.806 101.292 179.575 101.706 179.241 102.062C178.912 102.415 178.497 102.689 177.997 102.886C177.501 103.08 176.934 103.176 176.298 103.176ZM65.4788 127.159C64.7667 127.159 64.1265 127.023 63.5583 126.75C62.9939 126.473 62.5432 126.095 62.2061 125.614C61.8689 125.133 61.689 124.583 61.6663 123.966H63.3708C63.4125 124.466 63.6341 124.877 64.0356 125.199C64.4371 125.521 64.9182 125.682 65.4788 125.682C65.9258 125.682 66.3216 125.58 66.6663 125.375C67.0148 125.167 67.2875 124.881 67.4845 124.517C67.6852 124.153 67.7856 123.739 67.7856 123.273C67.7856 122.799 67.6833 122.377 67.4788 122.006C67.2742 121.634 66.992 121.343 66.6322 121.131C66.2761 120.919 65.867 120.811 65.4049 120.807C65.0527 120.807 64.6985 120.867 64.3424 120.989C63.9864 121.11 63.6985 121.269 63.4788 121.466L61.8708 121.227L62.5242 115.364H68.922V116.869H63.9845L63.6152 120.125H63.6833C63.9106 119.905 64.2117 119.722 64.5867 119.574C64.9655 119.426 65.3708 119.352 65.8027 119.352C66.511 119.352 67.1417 119.521 67.6947 119.858C68.2515 120.195 68.689 120.655 69.0072 121.239C69.3292 121.818 69.4883 122.485 69.4845 123.239C69.4883 123.992 69.3178 124.665 68.9731 125.256C68.6322 125.847 68.1587 126.312 67.5527 126.653C66.9504 126.991 66.2591 127.159 65.4788 127.159ZM75.4649 127V118.273H79.0842C80.069 118.273 80.8493 118.483 81.4251 118.903C82.0008 119.32 82.2887 119.886 82.2887 120.602C82.2887 121.114 82.1258 121.519 81.8001 121.818C81.4743 122.117 81.0425 122.318 80.5046 122.42C80.8948 122.466 81.2527 122.583 81.5785 122.773C81.9043 122.958 82.1656 123.208 82.3626 123.523C82.5633 123.837 82.6637 124.212 82.6637 124.648C82.6637 125.11 82.5444 125.519 82.3058 125.875C82.0671 126.227 81.7205 126.504 81.266 126.705C80.8152 126.902 80.2717 127 79.6353 127H75.4649ZM77.0614 125.58H79.6353C80.0558 125.58 80.3853 125.479 80.6239 125.278C80.8626 125.078 80.9819 124.805 80.9819 124.46C80.9819 124.055 80.8626 123.737 80.6239 123.506C80.3853 123.271 80.0558 123.153 79.6353 123.153H77.0614V125.58ZM77.0614 121.909H79.1012C79.4194 121.909 79.6921 121.864 79.9194 121.773C80.1505 121.682 80.3266 121.553 80.4478 121.386C80.5728 121.216 80.6353 121.015 80.6353 120.784C80.6353 120.447 80.4971 120.184 80.2205 119.994C79.944 119.805 79.5652 119.71 79.0842 119.71H77.0614V121.909ZM88.0275 127.176C87.2093 127.176 86.4953 126.989 85.8854 126.614C85.2756 126.239 84.8021 125.714 84.465 125.04C84.1279 124.366 83.9593 123.578 83.9593 122.676C83.9593 121.771 84.1279 120.979 84.465 120.301C84.8021 119.623 85.2756 119.097 85.8854 118.722C86.4953 118.347 87.2093 118.159 88.0275 118.159C88.8457 118.159 89.5597 118.347 90.1695 118.722C90.7794 119.097 91.2529 119.623 91.59 120.301C91.9271 120.979 92.0957 121.771 92.0957 122.676C92.0957 123.578 91.9271 124.366 91.59 125.04C91.2529 125.714 90.7794 126.239 90.1695 126.614C89.5597 126.989 88.8457 127.176 88.0275 127.176ZM88.0332 125.75C88.5635 125.75 89.0029 125.61 89.3514 125.33C89.6998 125.049 89.9574 124.676 90.1241 124.21C90.2945 123.744 90.3798 123.231 90.3798 122.67C90.3798 122.114 90.2945 121.602 90.1241 121.136C89.9574 120.667 89.6998 120.29 89.3514 120.006C89.0029 119.722 88.5635 119.58 88.0332 119.58C87.4991 119.58 87.0559 119.722 86.7036 120.006C86.3551 120.29 86.0957 120.667 85.9252 121.136C85.7586 121.602 85.6752 122.114 85.6752 122.67C85.6752 123.231 85.7586 123.744 85.9252 124.21C86.0957 124.676 86.3551 125.049 86.7036 125.33C87.0559 125.61 87.4991 125.75 88.0332 125.75ZM93.816 127V118.273H100.935V127H99.2705V119.739H95.4694V127H93.816ZM103.031 130.273V118.273H104.69V119.688H104.832C104.93 119.506 105.072 119.295 105.258 119.057C105.443 118.818 105.701 118.61 106.031 118.432C106.36 118.25 106.796 118.159 107.337 118.159C108.042 118.159 108.671 118.337 109.224 118.693C109.777 119.049 110.211 119.562 110.525 120.233C110.843 120.903 111.002 121.71 111.002 122.653C111.002 123.597 110.845 124.405 110.531 125.08C110.216 125.75 109.784 126.267 109.235 126.631C108.686 126.991 108.059 127.17 107.354 127.17C106.824 127.17 106.39 127.081 106.053 126.903C105.72 126.725 105.459 126.517 105.269 126.278C105.08 126.04 104.934 125.828 104.832 125.642H104.729V130.273H103.031ZM104.695 122.636C104.695 123.25 104.784 123.788 104.962 124.25C105.14 124.712 105.398 125.074 105.735 125.335C106.072 125.593 106.485 125.722 106.974 125.722C107.481 125.722 107.906 125.587 108.247 125.318C108.587 125.045 108.845 124.676 109.019 124.21C109.197 123.744 109.286 123.22 109.286 122.636C109.286 122.061 109.199 121.544 109.025 121.085C108.854 120.627 108.597 120.265 108.252 120C107.911 119.735 107.485 119.602 106.974 119.602C106.481 119.602 106.065 119.729 105.724 119.983C105.387 120.237 105.131 120.591 104.957 121.045C104.783 121.5 104.695 122.03 104.695 122.636ZM116.406 127.176C115.588 127.176 114.874 126.989 114.264 126.614C113.654 126.239 113.18 125.714 112.843 125.04C112.506 124.366 112.338 123.578 112.338 122.676C112.338 121.771 112.506 120.979 112.843 120.301C113.18 119.623 113.654 119.097 114.264 118.722C114.874 118.347 115.588 118.159 116.406 118.159C117.224 118.159 117.938 118.347 118.548 118.722C119.158 119.097 119.631 119.623 119.968 120.301C120.305 120.979 120.474 121.771 120.474 122.676C120.474 123.578 120.305 124.366 119.968 125.04C119.631 125.714 119.158 126.239 118.548 126.614C117.938 126.989 117.224 127.176 116.406 127.176ZM116.411 125.75C116.942 125.75 117.381 125.61 117.73 125.33C118.078 125.049 118.336 124.676 118.502 124.21C118.673 123.744 118.758 123.231 118.758 122.67C118.758 122.114 118.673 121.602 118.502 121.136C118.336 120.667 118.078 120.29 117.73 120.006C117.381 119.722 116.942 119.58 116.411 119.58C115.877 119.58 115.434 119.722 115.082 120.006C114.733 120.29 114.474 120.667 114.303 121.136C114.137 121.602 114.053 122.114 114.053 122.67C114.053 123.231 114.137 123.744 114.303 124.21C114.474 124.676 114.733 125.049 115.082 125.33C115.434 125.61 115.877 125.75 116.411 125.75ZM125.87 127.176C125.026 127.176 124.298 126.985 123.689 126.602C123.082 126.216 122.617 125.684 122.291 125.006C121.965 124.328 121.802 123.551 121.802 122.676C121.802 121.79 121.969 121.008 122.302 120.33C122.636 119.648 123.105 119.116 123.711 118.733C124.317 118.35 125.031 118.159 125.853 118.159C126.516 118.159 127.107 118.282 127.626 118.528C128.145 118.771 128.564 119.112 128.882 119.551C129.204 119.991 129.395 120.504 129.456 121.091H127.802C127.711 120.682 127.503 120.33 127.177 120.034C126.855 119.739 126.423 119.591 125.882 119.591C125.408 119.591 124.993 119.716 124.637 119.966C124.285 120.212 124.011 120.564 123.814 121.023C123.617 121.477 123.518 122.015 123.518 122.636C123.518 123.273 123.615 123.822 123.808 124.284C124.001 124.746 124.274 125.104 124.626 125.358C124.982 125.612 125.401 125.739 125.882 125.739C126.204 125.739 126.495 125.68 126.757 125.562C127.022 125.441 127.243 125.269 127.422 125.045C127.603 124.822 127.73 124.553 127.802 124.239H129.456C129.395 124.803 129.211 125.307 128.904 125.75C128.598 126.193 128.187 126.542 127.672 126.795C127.16 127.049 126.56 127.176 125.87 127.176ZM134.772 127.176C133.954 127.176 133.24 126.989 132.63 126.614C132.021 126.239 131.547 125.714 131.21 125.04C130.873 124.366 130.704 123.578 130.704 122.676C130.704 121.771 130.873 120.979 131.21 120.301C131.547 119.623 132.021 119.097 132.63 118.722C133.24 118.347 133.954 118.159 134.772 118.159C135.591 118.159 136.305 118.347 136.915 118.722C137.524 119.097 137.998 119.623 138.335 120.301C138.672 120.979 138.841 121.771 138.841 122.676C138.841 123.578 138.672 124.366 138.335 125.04C137.998 125.714 137.524 126.239 136.915 126.614C136.305 126.989 135.591 127.176 134.772 127.176ZM134.778 125.75C135.308 125.75 135.748 125.61 136.096 125.33C136.445 125.049 136.702 124.676 136.869 124.21C137.04 123.744 137.125 123.231 137.125 122.67C137.125 122.114 137.04 121.602 136.869 121.136C136.702 120.667 136.445 120.29 136.096 120.006C135.748 119.722 135.308 119.58 134.778 119.58C134.244 119.58 133.801 119.722 133.449 120.006C133.1 120.29 132.841 120.667 132.67 121.136C132.504 121.602 132.42 122.114 132.42 122.67C132.42 123.231 132.504 123.744 132.67 124.21C132.841 124.676 133.1 125.049 133.449 125.33C133.801 125.61 134.244 125.75 134.778 125.75ZM140.561 127V118.273H144.18C145.165 118.273 145.945 118.483 146.521 118.903C147.097 119.32 147.385 119.886 147.385 120.602C147.385 121.114 147.222 121.519 146.896 121.818C146.57 122.117 146.139 122.318 145.601 122.42C145.991 122.466 146.349 122.583 146.675 122.773C147 122.958 147.262 123.208 147.459 123.523C147.659 123.837 147.76 124.212 147.76 124.648C147.76 125.11 147.641 125.519 147.402 125.875C147.163 126.227 146.817 126.504 146.362 126.705C145.911 126.902 145.368 127 144.731 127H140.561ZM142.158 125.58H144.731C145.152 125.58 145.481 125.479 145.72 125.278C145.959 125.078 146.078 124.805 146.078 124.46C146.078 124.055 145.959 123.737 145.72 123.506C145.481 123.271 145.152 123.153 144.731 123.153H142.158V125.58ZM142.158 121.909H144.197C144.516 121.909 144.788 121.864 145.016 121.773C145.247 121.682 145.423 121.553 145.544 121.386C145.669 121.216 145.731 121.015 145.731 120.784C145.731 120.447 145.593 120.184 145.317 119.994C145.04 119.805 144.661 119.71 144.18 119.71H142.158V121.909ZM69.736 146.466C69.7209 145.811 69.8175 145.273 70.0258 144.852C70.2379 144.432 70.522 144.121 70.8781 143.92C71.2341 143.716 71.6262 143.614 72.0542 143.614C72.433 143.614 72.7834 143.695 73.1053 143.858C73.4273 144.017 73.7947 144.278 74.2076 144.642C74.4652 144.866 74.6754 145.028 74.8383 145.131C75.0012 145.229 75.183 145.278 75.3838 145.278C75.6906 145.278 75.9349 145.165 76.1167 144.938C76.3023 144.706 76.3913 144.366 76.3838 143.915H77.8213C77.8364 144.574 77.7379 145.114 77.5258 145.534C77.3175 145.955 77.0334 146.265 76.6735 146.466C76.3175 146.667 75.9273 146.767 75.5031 146.767C75.1205 146.767 74.7682 146.686 74.4463 146.523C74.1243 146.356 73.7588 146.095 73.3497 145.739C73.0845 145.508 72.8724 145.345 72.7133 145.25C72.5542 145.152 72.3743 145.102 72.1735 145.102C71.8819 145.102 71.6394 145.208 71.4463 145.42C71.2569 145.629 71.166 145.977 71.1735 146.466H69.736ZM83.8924 151.159C83.1803 151.159 82.5401 151.023 81.972 150.75C81.4076 150.473 80.9568 150.095 80.6197 149.614C80.2826 149.133 80.1026 148.583 80.0799 147.966H81.7845C81.8261 148.466 82.0477 148.877 82.4492 149.199C82.8508 149.521 83.3318 149.682 83.8924 149.682C84.3394 149.682 84.7352 149.58 85.0799 149.375C85.4284 149.167 85.7011 148.881 85.8981 148.517C86.0989 148.153 86.1992 147.739 86.1992 147.273C86.1992 146.799 86.097 146.377 85.8924 146.006C85.6879 145.634 85.4057 145.343 85.0458 145.131C84.6898 144.919 84.2807 144.811 83.8186 144.807C83.4663 144.807 83.1121 144.867 82.7561 144.989C82.4 145.11 82.1121 145.269 81.8924 145.466L80.2845 145.227L80.9379 139.364H87.3356V140.869H82.3981L82.0288 144.125H82.097C82.3242 143.905 82.6254 143.722 83.0004 143.574C83.3792 143.426 83.7845 143.352 84.2163 143.352C84.9246 143.352 85.5553 143.521 86.1083 143.858C86.6651 144.195 87.1026 144.655 87.4208 145.239C87.7428 145.818 87.9019 146.485 87.8981 147.239C87.9019 147.992 87.7314 148.665 87.3867 149.256C87.0458 149.847 86.5723 150.312 85.9663 150.653C85.364 150.991 84.6727 151.159 83.8924 151.159ZM98.7762 148.898L101.594 142.273H103.06L99.4069 151H98.1455L94.566 142.273H96.0148L98.7762 148.898ZM95.5433 142.273V151H93.8785V142.273H95.5433ZM102.055 151V142.273H103.708V151H102.055ZM107.461 148.619L111.308 142.273H113.137V151H111.472V144.648L107.643 151H105.796V142.273H107.461V148.619ZM121.16 145.903V147.375H116.433V145.903H121.16ZM116.91 142.273V151H115.245V142.273H116.91ZM122.348 142.273V151H120.688V142.273H122.348ZM125.206 154.273C124.952 154.273 124.721 154.252 124.512 154.21C124.304 154.172 124.149 154.131 124.047 154.085L124.456 152.693C124.766 152.777 125.043 152.813 125.285 152.801C125.528 152.79 125.742 152.699 125.927 152.528C126.117 152.358 126.283 152.08 126.427 151.693L126.637 151.114L123.444 142.273H125.262L127.473 149.045H127.564L129.774 142.273H131.598L128.001 152.165C127.834 152.619 127.622 153.004 127.365 153.318C127.107 153.636 126.8 153.875 126.444 154.034C126.088 154.193 125.675 154.273 125.206 154.273ZM132.53 143.739V142.273H139.893V143.739H137.047V151H135.388V143.739H132.53Z" fill="black" fill-opacity="0.8"/>
</svg>
