<svg width="209" height="194" viewBox="0 0 209 194" fill="none" xmlns="http://www.w3.org/2000/svg">
<rect x="2" y="2" width="205" height="190" rx="6" fill="#FFE8A3" stroke="#DDBC00" stroke-width="4" stroke-linecap="round"/>
<path d="M67.8425 47.1477H66.0698C66.0016 46.7689 65.8747 46.4356 65.6891 46.1477C65.5035 45.8598 65.2762 45.6155 65.0073 45.4148C64.7383 45.214 64.4372 45.0625 64.1039 44.9602C63.7743 44.858 63.4239 44.8068 63.0527 44.8068C62.3823 44.8068 61.7819 44.9754 61.2516 45.3125C60.7251 45.6496 60.3084 46.1439 60.0016 46.7955C59.6986 47.447 59.547 48.2424 59.547 49.1818C59.547 50.1288 59.6986 50.928 60.0016 51.5795C60.3084 52.2311 60.727 52.7235 61.2573 53.0568C61.7876 53.3902 62.3842 53.5568 63.047 53.5568C63.4145 53.5568 63.7629 53.5076 64.0925 53.4091C64.4258 53.3068 64.727 53.1572 64.9959 52.9602C65.2648 52.7633 65.4921 52.5227 65.6777 52.2386C65.8671 51.9508 65.9978 51.6212 66.0698 51.25L67.8425 51.2557C67.7478 51.8277 67.5641 52.3542 67.2914 52.8352C67.0224 53.3125 66.6758 53.7254 66.2516 54.0739C65.8311 54.4186 65.3501 54.6856 64.8084 54.875C64.2667 55.0644 63.6758 55.1591 63.0357 55.1591C62.0281 55.1591 61.1304 54.9205 60.3425 54.4432C59.5546 53.9621 58.9334 53.2746 58.4789 52.3807C58.0281 51.4867 57.8027 50.4205 57.8027 49.1818C57.8027 47.9394 58.03 46.8731 58.4845 45.983C58.9391 45.089 59.5603 44.4034 60.3482 43.9261C61.1361 43.4451 62.0319 43.2045 63.0357 43.2045C63.6531 43.2045 64.2289 43.2936 64.7629 43.4716C65.3008 43.6458 65.7838 43.9034 66.2118 44.2443C66.6398 44.5814 66.994 44.9943 67.2743 45.483C67.5546 45.9678 67.744 46.5227 67.8425 47.1477ZM68.9435 55L68.9378 53.5284H69.2503C69.4927 53.5284 69.6954 53.4773 69.8583 53.375C70.0249 53.2689 70.1613 53.0909 70.2673 52.8409C70.3734 52.5909 70.4548 52.2462 70.5117 51.8068C70.5685 51.3636 70.6101 50.8068 70.6367 50.1364L70.7901 46.2727H76.881V55H75.2162V47.7386H72.3639L72.2276 50.7045C72.1935 51.4242 72.1196 52.053 72.006 52.5909C71.8961 53.1288 71.7351 53.5777 71.523 53.9375C71.3109 54.2936 71.0382 54.5606 70.7048 54.7386C70.3715 54.9129 69.9662 55 69.4889 55H68.9435ZM82.732 55.1761C81.8721 55.1761 81.1316 54.9924 80.5104 54.625C79.893 54.2538 79.4157 53.733 79.0786 53.0625C78.7452 52.3883 78.5786 51.5985 78.5786 50.6932C78.5786 49.7992 78.7452 49.0114 79.0786 48.3295C79.4157 47.6477 79.8854 47.1155 80.4877 46.733C81.0937 46.3504 81.802 46.1591 82.6127 46.1591C83.1051 46.1591 83.5823 46.2405 84.0445 46.4034C84.5066 46.5663 84.9214 46.822 85.2888 47.1705C85.6562 47.5189 85.946 47.9716 86.1581 48.5284C86.3702 49.0814 86.4763 49.7538 86.4763 50.5455V51.1477H79.5388V49.875H84.8115C84.8115 49.428 84.7206 49.0322 84.5388 48.6875C84.357 48.339 84.1013 48.0644 83.7717 47.8636C83.446 47.6629 83.0634 47.5625 82.624 47.5625C82.1467 47.5625 81.7301 47.6799 81.374 47.9148C81.0217 48.1458 80.749 48.4489 80.5558 48.8239C80.3664 49.1951 80.2717 49.5985 80.2717 50.0341V51.0284C80.2717 51.6117 80.374 52.108 80.5786 52.517C80.7869 52.9261 81.0767 53.2386 81.4479 53.4545C81.8191 53.6667 82.2528 53.7727 82.749 53.7727C83.071 53.7727 83.3645 53.7273 83.6297 53.6364C83.8948 53.5417 84.124 53.4015 84.3172 53.2159C84.5104 53.0303 84.6581 52.8011 84.7604 52.5284L86.3683 52.8182C86.2395 53.2917 86.0085 53.7064 85.6752 54.0625C85.3456 54.4148 84.9308 54.6894 84.4308 54.8864C83.9346 55.0795 83.3683 55.1761 82.732 55.1761ZM87.333 57.517V53.5284H88.0432C88.225 53.3617 88.3784 53.1629 88.5034 52.9318C88.6322 52.7008 88.7402 52.4261 88.8273 52.108C88.9182 51.7898 88.9939 51.4186 89.0545 50.9943C89.1152 50.5663 89.1682 50.0777 89.2136 49.5284L89.4864 46.2727H95.4182V53.5284H96.7591V57.517H95.1V55H89.0148V57.517H87.333ZM89.8614 53.5284H93.7591V47.7273H91.0091L90.8273 49.5284C90.7402 50.4451 90.6303 51.2405 90.4977 51.9148C90.3652 52.5852 90.153 53.1231 89.8614 53.5284ZM99.3175 58.2727C99.0637 58.2727 98.8326 58.2519 98.6243 58.2102C98.416 58.1723 98.2607 58.1307 98.1584 58.0852L98.5675 56.6932C98.8781 56.7765 99.1546 56.8125 99.397 56.8011C99.6394 56.7898 99.8535 56.6989 100.039 56.5284C100.228 56.358 100.395 56.0795 100.539 55.6932L100.749 55.1136L97.5561 46.2727H99.3743L101.585 53.0455H101.675L103.886 46.2727H105.71L102.113 56.1648C101.946 56.6193 101.734 57.0038 101.477 57.3182C101.219 57.6364 100.912 57.875 100.556 58.0341C100.2 58.1932 99.7872 58.2727 99.3175 58.2727ZM111.522 49.9659V51.4432H106.869V49.9659H111.522ZM108.249 46.2727V55H106.551V46.2727H108.249ZM114.181 55.1761C113.371 55.1761 112.662 54.9867 112.056 54.608C111.45 54.2292 110.98 53.7027 110.647 53.0284C110.314 52.3504 110.147 51.5644 110.147 50.6705C110.147 49.7689 110.314 48.9811 110.647 48.3068C110.98 47.6288 111.45 47.1023 112.056 46.7273C112.662 46.3485 113.371 46.1591 114.181 46.1591C114.996 46.1591 115.704 46.3485 116.306 46.7273C116.912 47.1023 117.382 47.6288 117.715 48.3068C118.052 48.9811 118.221 49.7689 118.221 50.6705C118.221 51.5644 118.052 52.3504 117.715 53.0284C117.382 53.7027 116.912 54.2292 116.306 54.608C115.704 54.9867 114.996 55.1761 114.181 55.1761ZM114.181 53.7216C114.73 53.7216 115.179 53.5833 115.528 53.3068C115.88 53.0265 116.14 52.6553 116.306 52.1932C116.473 51.7311 116.556 51.2235 116.556 50.6705C116.556 50.1136 116.473 49.6042 116.306 49.142C116.14 48.6761 115.88 48.303 115.528 48.0227C115.179 47.7424 114.73 47.6023 114.181 47.6023C113.636 47.6023 113.187 47.7424 112.835 48.0227C112.482 48.303 112.223 48.6761 112.056 49.142C111.89 49.6042 111.806 50.1136 111.806 50.6705C111.806 51.2235 111.89 51.7311 112.056 52.1932C112.223 52.6553 112.482 53.0265 112.835 53.3068C113.187 53.5833 113.636 53.7216 114.181 53.7216ZM132.554 53.5341L132.394 57.5H130.73V55H129.644V53.5341H132.554ZM120.048 46.2727H121.713V53.5284H124.73V46.2727H126.394V53.5284H129.411V46.2727H131.076V55H120.048V46.2727ZM135.834 52.6193L139.68 46.2727H141.51V55H139.845V48.6477L136.015 55H134.169V46.2727H135.834V52.6193ZM145.283 52.6193L149.129 46.2727H150.959V55H149.294V48.6477L145.464 55H143.618V46.2727H145.283V52.6193ZM148.402 43.3182H149.8C149.8 43.9583 149.572 44.4792 149.118 44.8807C148.667 45.2784 148.057 45.4773 147.288 45.4773C146.523 45.4773 145.915 45.2784 145.464 44.8807C145.014 44.4792 144.788 43.9583 144.788 43.3182H146.18C146.18 43.6023 146.264 43.8542 146.43 44.0739C146.597 44.2898 146.883 44.3977 147.288 44.3977C147.686 44.3977 147.97 44.2898 148.14 44.0739C148.315 43.858 148.402 43.6061 148.402 43.3182ZM66.3098 79L62.4007 73.7841H61.162V79H59.4063V67.3636H61.162V72.2784H61.7359L66.1336 67.3636H68.2757L63.6223 72.5739L68.4518 79H66.3098ZM72.8014 79.1761C71.9832 79.1761 71.2692 78.9886 70.6593 78.6136C70.0495 78.2386 69.576 77.714 69.2389 77.0398C68.9017 76.3655 68.7332 75.5777 68.7332 74.6761C68.7332 73.7708 68.9017 72.9792 69.2389 72.3011C69.576 71.6231 70.0495 71.0966 70.6593 70.7216C71.2692 70.3466 71.9832 70.1591 72.8014 70.1591C73.6196 70.1591 74.3336 70.3466 74.9434 70.7216C75.5533 71.0966 76.0267 71.6231 76.3639 72.3011C76.701 72.9792 76.8696 73.7708 76.8696 74.6761C76.8696 75.5777 76.701 76.3655 76.3639 77.0398C76.0267 77.714 75.5533 78.2386 74.9434 78.6136C74.3336 78.9886 73.6196 79.1761 72.8014 79.1761ZM72.8071 77.75C73.3374 77.75 73.7767 77.6098 74.1252 77.3295C74.4737 77.0492 74.7313 76.6761 74.898 76.2102C75.0684 75.7443 75.1536 75.2311 75.1536 74.6705C75.1536 74.1136 75.0684 73.6023 74.898 73.1364C74.7313 72.6667 74.4737 72.2898 74.1252 72.0057C73.7767 71.7216 73.3374 71.5795 72.8071 71.5795C72.273 71.5795 71.8298 71.7216 71.4775 72.0057C71.129 72.2898 70.8696 72.6667 70.6991 73.1364C70.5324 73.6023 70.4491 74.1136 70.4491 74.6705C70.4491 75.2311 70.5324 75.7443 70.6991 76.2102C70.8696 76.6761 71.129 77.0492 71.4775 77.3295C71.8298 77.6098 72.273 77.75 72.8071 77.75ZM78.5899 82.2727V70.2727H80.249V71.6875H80.391C80.4895 71.5057 80.6315 71.2955 80.8171 71.0568C81.0027 70.8182 81.2603 70.6098 81.5899 70.4318C81.9194 70.25 82.355 70.1591 82.8967 70.1591C83.6012 70.1591 84.23 70.3371 84.783 70.6932C85.3361 71.0492 85.7698 71.5625 86.0842 72.233C86.4024 72.9034 86.5615 73.7102 86.5615 74.6534C86.5615 75.5966 86.4043 76.4053 86.0899 77.0795C85.7755 77.75 85.3436 78.267 84.7944 78.6307C84.2452 78.9905 83.6183 79.1705 82.9137 79.1705C82.3834 79.1705 81.9497 79.0814 81.6126 78.9034C81.2793 78.7254 81.0179 78.517 80.8285 78.2784C80.6391 78.0398 80.4933 77.8277 80.391 77.642H80.2887V82.2727H78.5899ZM80.2546 74.6364C80.2546 75.25 80.3436 75.7879 80.5217 76.25C80.6997 76.7121 80.9573 77.0739 81.2944 77.3352C81.6315 77.5928 82.0444 77.7216 82.533 77.7216C83.0406 77.7216 83.4649 77.5871 83.8058 77.3182C84.1467 77.0455 84.4043 76.6761 84.5785 76.2102C84.7565 75.7443 84.8455 75.2197 84.8455 74.6364C84.8455 74.0606 84.7584 73.5436 84.5842 73.0852C84.4137 72.6269 84.1561 72.2652 83.8115 72C83.4705 71.7348 83.0444 71.6023 82.533 71.6023C82.0406 71.6023 81.624 71.7292 81.283 71.983C80.9459 72.2367 80.6902 72.5909 80.516 73.0455C80.3418 73.5 80.2546 74.0303 80.2546 74.6364ZM88.2889 79V70.2727H95.4082V79H93.7434V71.7386H89.9423V79H88.2889ZM101.18 79.1761C100.361 79.1761 99.6474 78.9886 99.0376 78.6136C98.4277 78.2386 97.9542 77.714 97.6171 77.0398C97.28 76.3655 97.1114 75.5777 97.1114 74.6761C97.1114 73.7708 97.28 72.9792 97.6171 72.3011C97.9542 71.6231 98.4277 71.0966 99.0376 70.7216C99.6474 70.3466 100.361 70.1591 101.18 70.1591C101.998 70.1591 102.712 70.3466 103.322 70.7216C103.932 71.0966 104.405 71.6231 104.742 72.3011C105.079 72.9792 105.248 73.7708 105.248 74.6761C105.248 75.5777 105.079 76.3655 104.742 77.0398C104.405 77.714 103.932 78.2386 103.322 78.6136C102.712 78.9886 101.998 79.1761 101.18 79.1761ZM101.185 77.75C101.716 77.75 102.155 77.6098 102.503 77.3295C102.852 77.0492 103.11 76.6761 103.276 76.2102C103.447 75.7443 103.532 75.2311 103.532 74.6705C103.532 74.1136 103.447 73.6023 103.276 73.1364C103.11 72.6667 102.852 72.2898 102.503 72.0057C102.155 71.7216 101.716 71.5795 101.185 71.5795C100.651 71.5795 100.208 71.7216 99.8558 72.0057C99.5073 72.2898 99.2478 72.6667 99.0773 73.1364C98.9107 73.6023 98.8273 74.1136 98.8273 74.6705C98.8273 75.2311 98.9107 75.7443 99.0773 76.2102C99.2478 76.6761 99.5073 77.0492 99.8558 77.3295C100.208 77.6098 100.651 77.75 101.185 77.75ZM106.968 82.2727V70.2727H108.627V71.6875H108.769C108.868 71.5057 109.01 71.2955 109.195 71.0568C109.381 70.8182 109.639 70.6098 109.968 70.4318C110.298 70.25 110.733 70.1591 111.275 70.1591C111.979 70.1591 112.608 70.3371 113.161 70.6932C113.714 71.0492 114.148 71.5625 114.462 72.233C114.781 72.9034 114.94 73.7102 114.94 74.6534C114.94 75.5966 114.783 76.4053 114.468 77.0795C114.154 77.75 113.722 78.267 113.173 78.6307C112.623 78.9905 111.997 79.1705 111.292 79.1705C110.762 79.1705 110.328 79.0814 109.991 78.9034C109.658 78.7254 109.396 78.517 109.207 78.2784C109.017 78.0398 108.872 77.8277 108.769 77.642H108.667V82.2727H106.968ZM108.633 74.6364C108.633 75.25 108.722 75.7879 108.9 76.25C109.078 76.7121 109.336 77.0739 109.673 77.3352C110.01 77.5928 110.423 77.7216 110.911 77.7216C111.419 77.7216 111.843 77.5871 112.184 77.3182C112.525 77.0455 112.783 76.6761 112.957 76.2102C113.135 75.7443 113.224 75.2197 113.224 74.6364C113.224 74.0606 113.137 73.5436 112.962 73.0852C112.792 72.6269 112.534 72.2652 112.19 72C111.849 71.7348 111.423 71.6023 110.911 71.6023C110.419 71.6023 110.002 71.7292 109.661 71.983C109.324 72.2367 109.068 72.5909 108.894 73.0455C108.72 73.5 108.633 74.0303 108.633 74.6364ZM119.207 79.1932C118.654 79.1932 118.154 79.0909 117.707 78.8864C117.26 78.678 116.906 78.3769 116.644 77.983C116.387 77.589 116.258 77.1061 116.258 76.5341C116.258 76.0417 116.353 75.6364 116.542 75.3182C116.732 75 116.987 74.7481 117.309 74.5625C117.631 74.3769 117.991 74.2367 118.389 74.142C118.786 74.0473 119.192 73.9754 119.605 73.9261C120.127 73.8655 120.552 73.8163 120.877 73.7784C121.203 73.7367 121.44 73.6705 121.588 73.5795C121.735 73.4886 121.809 73.3409 121.809 73.1364V73.0966C121.809 72.6004 121.669 72.2159 121.389 71.9432C121.112 71.6705 120.699 71.5341 120.15 71.5341C119.578 71.5341 119.127 71.661 118.798 71.9148C118.472 72.1648 118.247 72.4432 118.122 72.75L116.525 72.3864C116.714 71.8561 116.991 71.428 117.355 71.1023C117.722 70.7727 118.144 70.5341 118.622 70.3864C119.099 70.2348 119.601 70.1591 120.127 70.1591C120.476 70.1591 120.845 70.2008 121.235 70.2841C121.629 70.3636 121.997 70.5114 122.338 70.7273C122.682 70.9432 122.964 71.2519 123.184 71.6534C123.404 72.0511 123.514 72.5682 123.514 73.2045V79H121.855V77.8068H121.786C121.677 78.0265 121.512 78.2424 121.292 78.4545C121.072 78.6667 120.79 78.8428 120.446 78.983C120.101 79.1231 119.688 79.1932 119.207 79.1932ZM119.576 77.8295C120.046 77.8295 120.447 77.7367 120.781 77.5511C121.118 77.3655 121.374 77.1231 121.548 76.8239C121.726 76.5208 121.815 76.197 121.815 75.8523V74.7273C121.754 74.7879 121.637 74.8447 121.463 74.8977C121.292 74.947 121.097 74.9905 120.877 75.0284C120.658 75.0625 120.444 75.0947 120.235 75.125C120.027 75.1515 119.853 75.1742 119.713 75.1932C119.383 75.2348 119.082 75.3049 118.809 75.4034C118.54 75.5019 118.324 75.6439 118.161 75.8295C118.002 76.0114 117.923 76.2538 117.923 76.5568C117.923 76.9773 118.078 77.2955 118.389 77.5114C118.699 77.7235 119.095 77.8295 119.576 77.8295ZM124.518 71.7386V70.2727H131.882V71.7386H129.035V79H127.376V71.7386H124.518ZM135.167 76.6193L139.014 70.2727H140.844V79H139.179V72.6477L135.349 79H133.503V70.2727H135.167V76.6193ZM142.952 79V70.2727H146.571C147.556 70.2727 148.336 70.483 148.912 70.9034C149.488 71.3201 149.775 71.8864 149.775 72.6023C149.775 73.1136 149.613 73.5189 149.287 73.8182C148.961 74.1174 148.529 74.3182 147.991 74.4205C148.382 74.4659 148.739 74.5833 149.065 74.7727C149.391 74.9583 149.652 75.2083 149.849 75.5227C150.05 75.8371 150.15 76.2121 150.15 76.6477C150.15 77.1098 150.031 77.5189 149.793 77.875C149.554 78.2273 149.207 78.5038 148.753 78.7045C148.302 78.9015 147.758 79 147.122 79H142.952ZM144.548 77.5795H147.122C147.543 77.5795 147.872 77.4792 148.111 77.2784C148.349 77.0777 148.469 76.8049 148.469 76.4602C148.469 76.0549 148.349 75.7367 148.111 75.5057C147.872 75.2708 147.543 75.1534 147.122 75.1534H144.548V77.5795ZM144.548 73.9091H146.588C146.906 73.9091 147.179 73.8636 147.406 73.7727C147.637 73.6818 147.813 73.553 147.935 73.3864C148.06 73.2159 148.122 73.0152 148.122 72.7841C148.122 72.447 147.984 72.1837 147.707 71.9943C147.431 71.8049 147.052 71.7102 146.571 71.7102H144.548V73.9091ZM62.2289 103V94.2727H63.9277V97.9318H64.7459L67.6266 94.2727H69.7289L66.3482 98.517L69.7686 103H67.6607L65.03 99.5114H63.9277V103H62.2289ZM73.452 103.193C72.899 103.193 72.399 103.091 71.952 102.886C71.505 102.678 71.1509 102.377 70.8895 101.983C70.6319 101.589 70.5031 101.106 70.5031 100.534C70.5031 100.042 70.5978 99.6364 70.7872 99.3182C70.9766 99 71.2323 98.7481 71.5543 98.5625C71.8762 98.3769 72.2361 98.2367 72.6338 98.142C73.0316 98.0473 73.4369 97.9754 73.8497 97.9261C74.3725 97.8655 74.7967 97.8163 75.1225 97.7784C75.4482 97.7367 75.685 97.6705 75.8327 97.5795C75.9804 97.4886 76.0543 97.3409 76.0543 97.1364V97.0966C76.0543 96.6004 75.9141 96.2159 75.6338 95.9432C75.3573 95.6705 74.9444 95.5341 74.3952 95.5341C73.8232 95.5341 73.3725 95.661 73.0429 95.9148C72.7172 96.1648 72.4918 96.4432 72.3668 96.75L70.7702 96.3864C70.9596 95.8561 71.2361 95.428 71.5997 95.1023C71.9672 94.7727 72.3895 94.5341 72.8668 94.3864C73.3441 94.2348 73.8459 94.1591 74.3725 94.1591C74.7209 94.1591 75.0903 94.2008 75.4804 94.2841C75.8744 94.3636 76.2418 94.5114 76.5827 94.7273C76.9274 94.9432 77.2096 95.2519 77.4293 95.6534C77.649 96.0511 77.7588 96.5682 77.7588 97.2045V103H76.0997V101.807H76.0316C75.9217 102.027 75.7569 102.242 75.5372 102.455C75.3175 102.667 75.0353 102.843 74.6906 102.983C74.3459 103.123 73.9331 103.193 73.452 103.193ZM73.8213 101.83C74.291 101.83 74.6925 101.737 75.0259 101.551C75.363 101.366 75.6187 101.123 75.7929 100.824C75.9709 100.521 76.06 100.197 76.06 99.8523V98.7273C75.9994 98.7879 75.8819 98.8447 75.7077 98.8977C75.5372 98.947 75.3422 98.9905 75.1225 99.0284C74.9028 99.0625 74.6887 99.0947 74.4804 99.125C74.2721 99.1515 74.0978 99.1742 73.9577 99.1932C73.6281 99.2348 73.327 99.3049 73.0543 99.4034C72.7853 99.5019 72.5694 99.6439 72.4066 99.8295C72.2475 100.011 72.1679 100.254 72.1679 100.557C72.1679 100.977 72.3232 101.295 72.6338 101.511C72.9444 101.723 73.3403 101.83 73.8213 101.83ZM83.5217 103.176C82.677 103.176 81.9498 102.985 81.3399 102.602C80.7339 102.216 80.268 101.684 79.9422 101.006C79.6164 100.328 79.4536 99.5511 79.4536 98.6761C79.4536 97.7898 79.6202 97.0076 79.9536 96.3295C80.2869 95.6477 80.7566 95.1155 81.3627 94.733C81.9687 94.3504 82.6827 94.1591 83.5047 94.1591C84.1676 94.1591 84.7585 94.2822 85.2774 94.5284C85.7964 94.7708 86.2149 95.1117 86.5331 95.5511C86.8551 95.9905 87.0464 96.5038 87.107 97.0909H85.4536C85.3627 96.6818 85.1543 96.3295 84.8286 96.0341C84.5066 95.7386 84.0748 95.5909 83.5331 95.5909C83.0596 95.5909 82.6448 95.7159 82.2888 95.9659C81.9365 96.2121 81.6619 96.5644 81.4649 97.0227C81.268 97.4773 81.1695 98.0152 81.1695 98.6364C81.1695 99.2727 81.2661 99.822 81.4592 100.284C81.6524 100.746 81.9252 101.104 82.2774 101.358C82.6335 101.612 83.052 101.739 83.5331 101.739C83.8551 101.739 84.1467 101.68 84.4081 101.562C84.6733 101.441 84.8948 101.269 85.0729 101.045C85.2547 100.822 85.3816 100.553 85.4536 100.239H87.107C87.0464 100.803 86.8627 101.307 86.5558 101.75C86.249 102.193 85.838 102.542 85.3229 102.795C84.8115 103.049 84.2111 103.176 83.5217 103.176ZM88.0872 95.7386V94.2727H95.4509V95.7386H92.6043V103H90.9452V95.7386H88.0872ZM100.342 103.176C99.5234 103.176 98.8094 102.989 98.1996 102.614C97.5897 102.239 97.1162 101.714 96.7791 101.04C96.442 100.366 96.2734 99.5777 96.2734 98.6761C96.2734 97.7708 96.442 96.9792 96.7791 96.3011C97.1162 95.6231 97.5897 95.0966 98.1996 94.7216C98.8094 94.3466 99.5234 94.1591 100.342 94.1591C101.16 94.1591 101.874 94.3466 102.484 94.7216C103.094 95.0966 103.567 95.6231 103.904 96.3011C104.241 96.9792 104.41 97.7708 104.41 98.6761C104.41 99.5777 104.241 100.366 103.904 101.04C103.567 101.714 103.094 102.239 102.484 102.614C101.874 102.989 101.16 103.176 100.342 103.176ZM100.347 101.75C100.878 101.75 101.317 101.61 101.665 101.33C102.014 101.049 102.272 100.676 102.438 100.21C102.609 99.7443 102.694 99.2311 102.694 98.6705C102.694 98.1136 102.609 97.6023 102.438 97.1364C102.272 96.6667 102.014 96.2898 101.665 96.0057C101.317 95.7216 100.878 95.5795 100.347 95.5795C99.8132 95.5795 99.37 95.7216 99.0178 96.0057C98.6693 96.2898 98.4098 96.6667 98.2393 97.1364C98.0727 97.6023 97.9893 98.1136 97.9893 98.6705C97.9893 99.2311 98.0727 99.7443 98.2393 100.21C98.4098 100.676 98.6693 101.049 99.0178 101.33C99.37 101.61 99.8132 101.75 100.347 101.75ZM111.028 100.898L113.846 94.2727H115.312L111.659 103H110.397L106.818 94.2727H108.266L111.028 100.898ZM107.795 94.2727V103H106.13V94.2727H107.795ZM114.306 103V94.2727H115.96V103H114.306ZM123.963 97.9034V99.375H119.235V97.9034H123.963ZM119.713 94.2727V103H118.048V94.2727H119.713ZM125.15 94.2727V103H123.491V94.2727H125.15ZM128.525 97.2727H131.059C132.128 97.2727 132.95 97.5379 133.525 98.0682C134.101 98.5985 134.389 99.2822 134.389 100.119C134.389 100.665 134.26 101.155 134.003 101.591C133.745 102.027 133.368 102.371 132.872 102.625C132.376 102.875 131.771 103 131.059 103H127.247V94.2727H128.912V101.534H131.059C131.548 101.534 131.95 101.407 132.264 101.153C132.578 100.896 132.735 100.568 132.735 100.17C132.735 99.75 132.578 99.4072 132.264 99.142C131.95 98.8731 131.548 98.7386 131.059 98.7386H128.525V97.2727ZM135.628 103V94.2727H137.326V103H135.628ZM141.095 100.619L144.942 94.2727H146.771V103H145.106V96.6477L141.277 103H139.43V94.2727H141.095V100.619ZM144.214 91.3182H145.612C145.612 91.9583 145.385 92.4792 144.93 92.8807C144.479 93.2784 143.87 93.4773 143.101 93.4773C142.336 93.4773 141.728 93.2784 141.277 92.8807C140.826 92.4792 140.601 91.9583 140.601 91.3182H141.993C141.993 91.6023 142.076 91.8542 142.243 92.0739C142.409 92.2898 142.695 92.3977 143.101 92.3977C143.498 92.3977 143.783 92.2898 143.953 92.0739C144.127 91.858 144.214 91.6061 144.214 91.3182ZM62.436 118.273V127H60.7769V118.273H62.436ZM61.7144 122.324V123.79C61.4531 123.896 61.1766 123.991 60.8849 124.074C60.5932 124.153 60.2864 124.216 59.9644 124.261C59.6425 124.307 59.3073 124.33 58.9588 124.33C57.8792 124.33 57.0213 124.066 56.3849 123.54C55.7485 123.009 55.4304 122.199 55.4304 121.108V118.256H57.0838V121.108C57.0838 121.521 57.1595 121.856 57.311 122.114C57.4626 122.371 57.6785 122.561 57.9588 122.682C58.2391 122.803 58.5724 122.864 58.9588 122.864C59.4701 122.864 59.9417 122.816 60.3735 122.722C60.8091 122.623 61.2561 122.491 61.7144 122.324ZM68.2813 127.176C67.4215 127.176 66.681 126.992 66.0598 126.625C65.4423 126.254 64.9651 125.733 64.6279 125.062C64.2946 124.388 64.1279 123.598 64.1279 122.693C64.1279 121.799 64.2946 121.011 64.6279 120.33C64.9651 119.648 65.4348 119.116 66.037 118.733C66.6431 118.35 67.3514 118.159 68.162 118.159C68.6545 118.159 69.1317 118.241 69.5938 118.403C70.056 118.566 70.4707 118.822 70.8382 119.17C71.2056 119.519 71.4954 119.972 71.7075 120.528C71.9196 121.081 72.0257 121.754 72.0257 122.545V123.148H65.0882V121.875H70.3609C70.3609 121.428 70.27 121.032 70.0882 120.688C69.9063 120.339 69.6507 120.064 69.3211 119.864C68.9954 119.663 68.6128 119.562 68.1734 119.562C67.6961 119.562 67.2795 119.68 66.9234 119.915C66.5711 120.146 66.2984 120.449 66.1052 120.824C65.9158 121.195 65.8211 121.598 65.8211 122.034V123.028C65.8211 123.612 65.9234 124.108 66.1279 124.517C66.3363 124.926 66.626 125.239 66.9973 125.455C67.3685 125.667 67.8022 125.773 68.2984 125.773C68.6204 125.773 68.9139 125.727 69.1791 125.636C69.4442 125.542 69.6734 125.402 69.8666 125.216C70.0598 125.03 70.2075 124.801 70.3098 124.528L71.9177 124.818C71.7889 125.292 71.5579 125.706 71.2245 126.062C70.895 126.415 70.4802 126.689 69.9802 126.886C69.484 127.08 68.9177 127.176 68.2813 127.176ZM73.7346 130.273V118.273H75.3937V119.688H75.5357C75.6342 119.506 75.7763 119.295 75.9619 119.057C76.1475 118.818 76.4051 118.61 76.7346 118.432C77.0642 118.25 77.4998 118.159 78.0414 118.159C78.746 118.159 79.3748 118.337 79.9278 118.693C80.4808 119.049 80.9145 119.562 81.2289 120.233C81.5471 120.903 81.7062 121.71 81.7062 122.653C81.7062 123.597 81.549 124.405 81.2346 125.08C80.9202 125.75 80.4884 126.267 79.9392 126.631C79.3899 126.991 78.763 127.17 78.0585 127.17C77.5282 127.17 77.0945 127.081 76.7573 126.903C76.424 126.725 76.1626 126.517 75.9732 126.278C75.7838 126.04 75.638 125.828 75.5357 125.642H75.4335V130.273H73.7346ZM75.3994 122.636C75.3994 123.25 75.4884 123.788 75.6664 124.25C75.8445 124.712 76.102 125.074 76.4392 125.335C76.7763 125.593 77.1892 125.722 77.6778 125.722C78.1854 125.722 78.6096 125.587 78.9505 125.318C79.2914 125.045 79.549 124.676 79.7232 124.21C79.9013 123.744 79.9903 123.22 79.9903 122.636C79.9903 122.061 79.9032 121.544 79.7289 121.085C79.5585 120.627 79.3009 120.265 78.9562 120C78.6153 119.735 78.1892 119.602 77.6778 119.602C77.1854 119.602 76.7687 119.729 76.4278 119.983C76.0907 120.237 75.835 120.591 75.6607 121.045C75.4865 121.5 75.3994 122.03 75.3994 122.636ZM87.195 127.176C86.3351 127.176 85.5946 126.992 84.9734 126.625C84.356 126.254 83.8787 125.733 83.5416 125.062C83.2082 124.388 83.0416 123.598 83.0416 122.693C83.0416 121.799 83.2082 121.011 83.5416 120.33C83.8787 119.648 84.3484 119.116 84.9507 118.733C85.5567 118.35 86.265 118.159 87.0757 118.159C87.5681 118.159 88.0454 118.241 88.5075 118.403C88.9696 118.566 89.3844 118.822 89.7518 119.17C90.1192 119.519 90.409 119.972 90.6211 120.528C90.8332 121.081 90.9393 121.754 90.9393 122.545V123.148H84.0018V121.875H89.2745C89.2745 121.428 89.1836 121.032 89.0018 120.688C88.82 120.339 88.5643 120.064 88.2347 119.864C87.909 119.663 87.5264 119.562 87.087 119.562C86.6097 119.562 86.1931 119.68 85.837 119.915C85.4847 120.146 85.212 120.449 85.0188 120.824C84.8294 121.195 84.7347 121.598 84.7347 122.034V123.028C84.7347 123.612 84.837 124.108 85.0416 124.517C85.2499 124.926 85.5397 125.239 85.9109 125.455C86.2821 125.667 86.7158 125.773 87.212 125.773C87.534 125.773 87.8276 125.727 88.0927 125.636C88.3579 125.542 88.587 125.402 88.7802 125.216C88.9734 125.03 89.1211 124.801 89.2234 124.528L90.8313 124.818C90.7025 125.292 90.4715 125.706 90.1382 126.062C89.8086 126.415 89.3938 126.689 88.8938 126.886C88.3976 127.08 87.8313 127.176 87.195 127.176ZM92.1312 124.693H93.8698C93.8926 125.049 94.0535 125.324 94.3528 125.517C94.6558 125.71 95.0479 125.807 95.5289 125.807C96.0176 125.807 96.4342 125.703 96.7789 125.494C97.1236 125.282 97.296 124.955 97.296 124.511C97.296 124.246 97.2297 124.015 97.0971 123.818C96.9683 123.617 96.7846 123.462 96.546 123.352C96.3111 123.242 96.0327 123.188 95.7107 123.188H94.2903V121.852H95.7107C96.1918 121.852 96.5516 121.742 96.7903 121.523C97.0289 121.303 97.1482 121.028 97.1482 120.699C97.1482 120.343 97.0194 120.057 96.7619 119.841C96.5081 119.621 96.1539 119.511 95.6994 119.511C95.2372 119.511 94.8528 119.616 94.546 119.824C94.2391 120.028 94.0782 120.294 94.063 120.619H92.3471C92.3585 120.131 92.5062 119.703 92.7903 119.335C93.0782 118.964 93.4645 118.676 93.9494 118.472C94.438 118.263 94.9929 118.159 95.6141 118.159C96.2619 118.159 96.8225 118.263 97.296 118.472C97.7694 118.68 98.135 118.968 98.3926 119.335C98.6539 119.703 98.7846 120.125 98.7846 120.602C98.7846 121.083 98.6407 121.477 98.3528 121.784C98.0687 122.087 97.6975 122.305 97.2391 122.438V122.528C97.5763 122.551 97.8755 122.653 98.1369 122.835C98.3982 123.017 98.6028 123.258 98.7505 123.557C98.8982 123.856 98.9721 124.195 98.9721 124.574C98.9721 125.108 98.8244 125.57 98.5289 125.96C98.2372 126.35 97.8319 126.652 97.313 126.864C96.7979 127.072 96.2088 127.176 95.546 127.176C94.902 127.176 94.3244 127.076 93.813 126.875C93.3054 126.67 92.902 126.383 92.6028 126.011C92.3073 125.64 92.1501 125.201 92.1312 124.693ZM104.978 127L110.058 116.955V116.869H104.183V115.364H111.876V116.92L106.813 127H104.978ZM116.904 129.517V125.528H117.615C117.797 125.362 117.95 125.163 118.075 124.932C118.204 124.701 118.312 124.426 118.399 124.108C118.49 123.79 118.565 123.419 118.626 122.994C118.687 122.566 118.74 122.078 118.785 121.528L119.058 118.273H124.99V125.528H126.331V129.517H124.672V127H118.586V129.517H116.904ZM119.433 125.528H123.331V119.727H120.581L120.399 121.528C120.312 122.445 120.202 123.241 120.069 123.915C119.937 124.585 119.725 125.123 119.433 125.528ZM133.73 121.903V123.375H129.003V121.903H133.73ZM129.48 118.273V127H127.815V118.273H129.48ZM134.917 118.273V127H133.258V118.273H134.917ZM140.775 127.176C139.916 127.176 139.175 126.992 138.554 126.625C137.936 126.254 137.459 125.733 137.122 125.062C136.789 124.388 136.622 123.598 136.622 122.693C136.622 121.799 136.789 121.011 137.122 120.33C137.459 119.648 137.929 119.116 138.531 118.733C139.137 118.35 139.846 118.159 140.656 118.159C141.149 118.159 141.626 118.241 142.088 118.403C142.55 118.566 142.965 118.822 143.332 119.17C143.7 119.519 143.989 119.972 144.202 120.528C144.414 121.081 144.52 121.754 144.52 122.545V123.148H137.582V121.875H142.855C142.855 121.428 142.764 121.032 142.582 120.688C142.4 120.339 142.145 120.064 141.815 119.864C141.489 119.663 141.107 119.562 140.668 119.562C140.19 119.562 139.774 119.68 139.418 119.915C139.065 120.146 138.793 120.449 138.599 120.824C138.41 121.195 138.315 121.598 138.315 122.034V123.028C138.315 123.612 138.418 124.108 138.622 124.517C138.83 124.926 139.12 125.239 139.491 125.455C139.863 125.667 140.296 125.773 140.793 125.773C141.114 125.773 141.408 125.727 141.673 125.636C141.938 125.542 142.168 125.402 142.361 125.216C142.554 125.03 142.702 124.801 142.804 124.528L144.412 124.818C144.283 125.292 144.052 125.706 143.719 126.062C143.389 126.415 142.974 126.689 142.474 126.886C141.978 127.08 141.412 127.176 140.775 127.176ZM147.894 124.619L151.74 118.273H153.57V127H151.905V120.648L148.075 127H146.229V118.273H147.894V124.619ZM151.013 115.318H152.411C152.411 115.958 152.183 116.479 151.729 116.881C151.278 117.278 150.668 117.477 149.899 117.477C149.134 117.477 148.526 117.278 148.075 116.881C147.625 116.479 147.399 115.958 147.399 115.318H148.791C148.791 115.602 148.875 115.854 149.041 116.074C149.208 116.29 149.494 116.398 149.899 116.398C150.297 116.398 150.581 116.29 150.751 116.074C150.926 115.858 151.013 115.606 151.013 115.318ZM70.2026 151.159C69.4223 151.159 68.7253 151.025 68.1117 150.756C67.5018 150.487 67.0189 150.114 66.6628 149.636C66.3105 149.155 66.1211 148.598 66.0946 147.966H67.8787C67.9014 148.311 68.017 148.61 68.2253 148.864C68.4374 149.114 68.7139 149.307 69.0549 149.443C69.3958 149.58 69.7745 149.648 70.1912 149.648C70.6495 149.648 71.0549 149.568 71.4071 149.409C71.7632 149.25 72.0416 149.028 72.2424 148.744C72.4431 148.456 72.5435 148.125 72.5435 147.75C72.5435 147.36 72.4431 147.017 72.2424 146.722C72.0454 146.422 71.7556 146.187 71.373 146.017C70.9942 145.847 70.5359 145.761 69.998 145.761H69.0151V144.33H69.998C70.4299 144.33 70.8086 144.252 71.1344 144.097C71.4639 143.941 71.7215 143.725 71.9071 143.449C72.0927 143.169 72.1855 142.841 72.1855 142.466C72.1855 142.106 72.1041 141.794 71.9412 141.528C71.7821 141.259 71.5549 141.049 71.2594 140.898C70.9677 140.746 70.623 140.67 70.2253 140.67C69.8465 140.67 69.4924 140.741 69.1628 140.881C68.837 141.017 68.5719 141.214 68.3674 141.472C68.1628 141.725 68.053 142.03 68.0378 142.386H66.3389C66.3579 141.758 66.5435 141.205 66.8958 140.727C67.2518 140.25 67.7215 139.877 68.3049 139.608C68.8882 139.339 69.5359 139.205 70.248 139.205C70.9942 139.205 71.6382 139.35 72.1799 139.642C72.7253 139.93 73.1458 140.314 73.4412 140.795C73.7405 141.277 73.8882 141.803 73.8844 142.375C73.8882 143.027 73.7064 143.58 73.3389 144.034C72.9753 144.489 72.4905 144.794 71.8844 144.949V145.04C72.6571 145.157 73.2556 145.464 73.6799 145.96C74.1079 146.456 74.32 147.072 74.3162 147.807C74.32 148.447 74.142 149.021 73.7821 149.528C73.4261 150.036 72.9393 150.436 72.3219 150.727C71.7045 151.015 70.998 151.159 70.2026 151.159ZM80.369 151V142.273H83.9884C84.9732 142.273 85.7535 142.483 86.3293 142.903C86.905 143.32 87.1929 143.886 87.1929 144.602C87.1929 145.114 87.03 145.519 86.7043 145.818C86.3785 146.117 85.9467 146.318 85.4088 146.42C85.799 146.466 86.1569 146.583 86.4827 146.773C86.8084 146.958 87.0698 147.208 87.2668 147.523C87.4675 147.837 87.5679 148.212 87.5679 148.648C87.5679 149.11 87.4486 149.519 87.21 149.875C86.9713 150.227 86.6247 150.504 86.1702 150.705C85.7194 150.902 85.1759 151 84.5395 151H80.369ZM81.9656 149.58H84.5395C84.96 149.58 85.2895 149.479 85.5281 149.278C85.7668 149.078 85.8861 148.805 85.8861 148.46C85.8861 148.055 85.7668 147.737 85.5281 147.506C85.2895 147.271 84.96 147.153 84.5395 147.153H81.9656V149.58ZM81.9656 145.909H84.0054C84.3236 145.909 84.5963 145.864 84.8236 145.773C85.0546 145.682 85.2308 145.553 85.352 145.386C85.477 145.216 85.5395 145.015 85.5395 144.784C85.5395 144.447 85.4012 144.184 85.1247 143.994C84.8482 143.805 84.4694 143.71 83.9884 143.71H81.9656V145.909ZM92.9317 151.176C92.1135 151.176 91.3995 150.989 90.7896 150.614C90.1798 150.239 89.7063 149.714 89.3692 149.04C89.0321 148.366 88.8635 147.578 88.8635 146.676C88.8635 145.771 89.0321 144.979 89.3692 144.301C89.7063 143.623 90.1798 143.097 90.7896 142.722C91.3995 142.347 92.1135 142.159 92.9317 142.159C93.7499 142.159 94.4639 142.347 95.0737 142.722C95.6836 143.097 96.1571 143.623 96.4942 144.301C96.8313 144.979 96.9999 145.771 96.9999 146.676C96.9999 147.578 96.8313 148.366 96.4942 149.04C96.1571 149.714 95.6836 150.239 95.0737 150.614C94.4639 150.989 93.7499 151.176 92.9317 151.176ZM92.9374 149.75C93.4677 149.75 93.9071 149.61 94.2555 149.33C94.604 149.049 94.8616 148.676 95.0283 148.21C95.1987 147.744 95.2839 147.231 95.2839 146.67C95.2839 146.114 95.1987 145.602 95.0283 145.136C94.8616 144.667 94.604 144.29 94.2555 144.006C93.9071 143.722 93.4677 143.58 92.9374 143.58C92.4033 143.58 91.9601 143.722 91.6078 144.006C91.2593 144.29 90.9999 144.667 90.8294 145.136C90.6627 145.602 90.5794 146.114 90.5794 146.67C90.5794 147.231 90.6627 147.744 90.8294 148.21C90.9999 148.676 91.2593 149.049 91.6078 149.33C91.9601 149.61 92.4033 149.75 92.9374 149.75ZM98.7202 151V142.273H105.839V151H104.175V143.739H100.374V151H98.7202ZM107.935 154.273V142.273H109.594V143.688H109.736C109.834 143.506 109.976 143.295 110.162 143.057C110.348 142.818 110.605 142.61 110.935 142.432C111.264 142.25 111.7 142.159 112.242 142.159C112.946 142.159 113.575 142.337 114.128 142.693C114.681 143.049 115.115 143.562 115.429 144.233C115.747 144.903 115.906 145.71 115.906 146.653C115.906 147.597 115.749 148.405 115.435 149.08C115.12 149.75 114.689 150.267 114.139 150.631C113.59 150.991 112.963 151.17 112.259 151.17C111.728 151.17 111.295 151.081 110.958 150.903C110.624 150.725 110.363 150.517 110.173 150.278C109.984 150.04 109.838 149.828 109.736 149.642H109.634V154.273H107.935ZM109.6 146.636C109.6 147.25 109.689 147.788 109.867 148.25C110.045 148.712 110.302 149.074 110.639 149.335C110.976 149.593 111.389 149.722 111.878 149.722C112.386 149.722 112.81 149.587 113.151 149.318C113.492 149.045 113.749 148.676 113.923 148.21C114.101 147.744 114.19 147.22 114.19 146.636C114.19 146.061 114.103 145.544 113.929 145.085C113.759 144.627 113.501 144.265 113.156 144C112.815 143.735 112.389 143.602 111.878 143.602C111.386 143.602 110.969 143.729 110.628 143.983C110.291 144.237 110.035 144.591 109.861 145.045C109.687 145.5 109.6 146.03 109.6 146.636ZM121.31 151.176C120.492 151.176 119.778 150.989 119.168 150.614C118.558 150.239 118.085 149.714 117.747 149.04C117.41 148.366 117.242 147.578 117.242 146.676C117.242 145.771 117.41 144.979 117.747 144.301C118.085 143.623 118.558 143.097 119.168 142.722C119.778 142.347 120.492 142.159 121.31 142.159C122.128 142.159 122.842 142.347 123.452 142.722C124.062 143.097 124.535 143.623 124.872 144.301C125.21 144.979 125.378 145.771 125.378 146.676C125.378 147.578 125.21 148.366 124.872 149.04C124.535 149.714 124.062 150.239 123.452 150.614C122.842 150.989 122.128 151.176 121.31 151.176ZM121.316 149.75C121.846 149.75 122.285 149.61 122.634 149.33C122.982 149.049 123.24 148.676 123.407 148.21C123.577 147.744 123.662 147.231 123.662 146.67C123.662 146.114 123.577 145.602 123.407 145.136C123.24 144.667 122.982 144.29 122.634 144.006C122.285 143.722 121.846 143.58 121.316 143.58C120.782 143.58 120.338 143.722 119.986 144.006C119.638 144.29 119.378 144.667 119.208 145.136C119.041 145.602 118.958 146.114 118.958 146.67C118.958 147.231 119.041 147.744 119.208 148.21C119.378 148.676 119.638 149.049 119.986 149.33C120.338 149.61 120.782 149.75 121.316 149.75ZM130.775 151.176C129.93 151.176 129.203 150.985 128.593 150.602C127.987 150.216 127.521 149.684 127.195 149.006C126.869 148.328 126.706 147.551 126.706 146.676C126.706 145.79 126.873 145.008 127.206 144.33C127.54 143.648 128.009 143.116 128.615 142.733C129.222 142.35 129.936 142.159 130.758 142.159C131.42 142.159 132.011 142.282 132.53 142.528C133.049 142.771 133.468 143.112 133.786 143.551C134.108 143.991 134.299 144.504 134.36 145.091H132.706C132.615 144.682 132.407 144.33 132.081 144.034C131.759 143.739 131.328 143.591 130.786 143.591C130.312 143.591 129.898 143.716 129.542 143.966C129.189 144.212 128.915 144.564 128.718 145.023C128.521 145.477 128.422 146.015 128.422 146.636C128.422 147.273 128.519 147.822 128.712 148.284C128.905 148.746 129.178 149.104 129.53 149.358C129.886 149.612 130.305 149.739 130.786 149.739C131.108 149.739 131.4 149.68 131.661 149.562C131.926 149.441 132.148 149.269 132.326 149.045C132.508 148.822 132.634 148.553 132.706 148.239H134.36C134.299 148.803 134.115 149.307 133.809 149.75C133.502 150.193 133.091 150.542 132.576 150.795C132.064 151.049 131.464 151.176 130.775 151.176ZM138.54 151.193C137.987 151.193 137.487 151.091 137.04 150.886C136.593 150.678 136.239 150.377 135.978 149.983C135.72 149.589 135.591 149.106 135.591 148.534C135.591 148.042 135.686 147.636 135.876 147.318C136.065 147 136.321 146.748 136.643 146.562C136.965 146.377 137.324 146.237 137.722 146.142C138.12 146.047 138.525 145.975 138.938 145.926C139.461 145.866 139.885 145.816 140.211 145.778C140.537 145.737 140.773 145.67 140.921 145.58C141.069 145.489 141.143 145.341 141.143 145.136V145.097C141.143 144.6 141.002 144.216 140.722 143.943C140.446 143.67 140.033 143.534 139.484 143.534C138.912 143.534 138.461 143.661 138.131 143.915C137.805 144.165 137.58 144.443 137.455 144.75L135.859 144.386C136.048 143.856 136.324 143.428 136.688 143.102C137.055 142.773 137.478 142.534 137.955 142.386C138.432 142.235 138.934 142.159 139.461 142.159C139.809 142.159 140.179 142.201 140.569 142.284C140.963 142.364 141.33 142.511 141.671 142.727C142.016 142.943 142.298 143.252 142.518 143.653C142.737 144.051 142.847 144.568 142.847 145.205V151H141.188V149.807H141.12C141.01 150.027 140.845 150.242 140.626 150.455C140.406 150.667 140.124 150.843 139.779 150.983C139.434 151.123 139.021 151.193 138.54 151.193ZM138.91 149.83C139.379 149.83 139.781 149.737 140.114 149.551C140.451 149.366 140.707 149.123 140.881 148.824C141.059 148.521 141.148 148.197 141.148 147.852V146.727C141.088 146.788 140.97 146.845 140.796 146.898C140.626 146.947 140.43 146.991 140.211 147.028C139.991 147.062 139.777 147.095 139.569 147.125C139.36 147.152 139.186 147.174 139.046 147.193C138.716 147.235 138.415 147.305 138.143 147.403C137.874 147.502 137.658 147.644 137.495 147.83C137.336 148.011 137.256 148.254 137.256 148.557C137.256 148.977 137.412 149.295 137.722 149.511C138.033 149.723 138.429 149.83 138.91 149.83Z" fill="black" fill-opacity="0.8"/>
</svg>
