<svg width="210" height="122" viewBox="0 0 210 122" fill="none" xmlns="http://www.w3.org/2000/svg">
<rect x="2" y="2" width="205.225" height="118" rx="6" fill="#E4CCFF" stroke="#D577FF" stroke-width="4" stroke-linecap="round"/>
<path d="M40.4891 56.4318V41.9375H44.222V43.2841H42.1141V55.0852H44.222V56.4318H40.4891ZM46.7974 55H44.9338L49.1213 43.3636H51.1497L55.3372 55H53.4736L50.1838 45.4773H50.0929L46.7974 55ZM47.1099 50.4432H53.1554V51.9205H47.1099V50.4432ZM58.5973 43.3636V55H56.8416V43.3636H58.5973ZM63.9213 41.9375V56.4318H60.1883V55.0852H62.2963V43.2841H60.1883V41.9375H63.9213ZM71.8903 55H70.0267L74.2142 43.3636H76.2426L80.4301 55H78.5664L75.2767 45.4773H75.1858L71.8903 55ZM72.2028 50.4432H78.2483V51.9205H72.2028V50.4432ZM88.2754 48.4034L86.7356 48.6761C86.6712 48.4792 86.5689 48.2917 86.4288 48.1136C86.2924 47.9356 86.1068 47.7898 85.872 47.6761C85.6371 47.5625 85.3436 47.5057 84.9913 47.5057C84.5102 47.5057 84.1087 47.6136 83.7867 47.8295C83.4648 48.0417 83.3038 48.3163 83.3038 48.6534C83.3038 48.9451 83.4117 49.1799 83.6277 49.358C83.8436 49.536 84.1921 49.6818 84.6731 49.7955L86.0595 50.1136C86.8625 50.2992 87.461 50.5852 87.8549 50.9716C88.2489 51.358 88.4458 51.8598 88.4458 52.4773C88.4458 53 88.2943 53.4659 87.9913 53.875C87.6921 54.2803 87.2735 54.5985 86.7356 54.8295C86.2015 55.0606 85.5822 55.1761 84.8777 55.1761C83.9004 55.1761 83.103 54.9678 82.4856 54.5511C81.8682 54.1307 81.4894 53.5341 81.3492 52.7614L82.9913 52.5114C83.0936 52.9394 83.3038 53.2633 83.622 53.483C83.9402 53.6989 84.3549 53.8068 84.8663 53.8068C85.4231 53.8068 85.8682 53.6913 86.2015 53.4602C86.5349 53.2254 86.7015 52.9394 86.7015 52.6023C86.7015 52.3295 86.5992 52.1004 86.3947 51.9148C86.1939 51.7292 85.8852 51.589 85.4686 51.4943L83.9913 51.1705C83.1769 50.9848 82.5746 50.6894 82.1845 50.2841C81.7981 49.8788 81.6049 49.3655 81.6049 48.7443C81.6049 48.2292 81.7489 47.7784 82.0367 47.392C82.3246 47.0057 82.7224 46.7045 83.2299 46.4886C83.7375 46.2689 84.3189 46.1591 84.9742 46.1591C85.9174 46.1591 86.6599 46.3636 87.2015 46.7727C87.7432 47.178 88.1011 47.7216 88.2754 48.4034ZM91.7002 52.0398L91.6889 49.9659H91.9843L95.4616 46.2727H97.4957L93.5298 50.4773H93.2627L91.7002 52.0398ZM90.1377 55V43.3636H91.8366V55H90.1377ZM95.6491 55L92.5241 50.8523L93.6946 49.6648L97.7343 55H95.6491ZM104.046 55H102.182L106.37 43.3636H108.398L112.585 55H110.722L107.432 45.4773H107.341L104.046 55ZM104.358 50.4432H110.404V51.9205H104.358V50.4432ZM115.846 43.3636V55H114.09V43.3636H115.846ZM123.847 49.8182V55H122.148V43.3636H123.824V47.6932H123.932C124.137 47.2235 124.449 46.8504 124.87 46.5739C125.29 46.2973 125.84 46.1591 126.518 46.1591C127.116 46.1591 127.639 46.2822 128.086 46.5284C128.537 46.7746 128.885 47.142 129.131 47.6307C129.381 48.1155 129.506 48.7216 129.506 49.4489V55H127.807V49.6534C127.807 49.0133 127.643 48.517 127.313 48.1648C126.984 47.8087 126.525 47.6307 125.938 47.6307C125.537 47.6307 125.177 47.7159 124.859 47.8864C124.544 48.0568 124.296 48.3068 124.114 48.6364C123.936 48.9621 123.847 49.3561 123.847 49.8182ZM135.273 55.1761C134.455 55.1761 133.741 54.9886 133.131 54.6136C132.522 54.2386 132.048 53.714 131.711 53.0398C131.374 52.3655 131.205 51.5777 131.205 50.6761C131.205 49.7708 131.374 48.9792 131.711 48.3011C132.048 47.6231 132.522 47.0966 133.131 46.7216C133.741 46.3466 134.455 46.1591 135.273 46.1591C136.092 46.1591 136.806 46.3466 137.416 46.7216C138.025 47.0966 138.499 47.6231 138.836 48.3011C139.173 48.9792 139.342 49.7708 139.342 50.6761C139.342 51.5777 139.173 52.3655 138.836 53.0398C138.499 53.714 138.025 54.2386 137.416 54.6136C136.806 54.9886 136.092 55.1761 135.273 55.1761ZM135.279 53.75C135.809 53.75 136.249 53.6098 136.597 53.3295C136.946 53.0492 137.203 52.6761 137.37 52.2102C137.541 51.7443 137.626 51.2311 137.626 50.6705C137.626 50.1136 137.541 49.6023 137.37 49.1364C137.203 48.6667 136.946 48.2898 136.597 48.0057C136.249 47.7216 135.809 47.5795 135.279 47.5795C134.745 47.5795 134.302 47.7216 133.95 48.0057C133.601 48.2898 133.342 48.6667 133.171 49.1364C133.005 49.6023 132.921 50.1136 132.921 50.6705C132.921 51.2311 133.005 51.7443 133.171 52.2102C133.342 52.6761 133.601 53.0492 133.95 53.3295C134.302 53.6098 134.745 53.75 135.279 53.75ZM142.688 55L140.12 46.2727H141.876L143.586 52.6818H143.671L145.387 46.2727H147.143L148.848 52.6534H148.933L150.632 46.2727H152.387L149.825 55H148.092L146.319 48.6989H146.188L144.416 55H142.688ZM161.956 46.2727V47.6364H157.189V46.2727H161.956ZM158.467 44.1818H160.166V52.4375C160.166 52.767 160.215 53.0152 160.314 53.1818C160.412 53.3447 160.539 53.4564 160.694 53.517C160.853 53.5739 161.026 53.6023 161.211 53.6023C161.348 53.6023 161.467 53.5928 161.569 53.5739C161.672 53.5549 161.751 53.5398 161.808 53.5284L162.115 54.9318C162.016 54.9697 161.876 55.0076 161.694 55.0455C161.513 55.0871 161.285 55.1098 161.013 55.1136C160.566 55.1212 160.149 55.0417 159.763 54.875C159.376 54.7083 159.064 54.4508 158.825 54.1023C158.586 53.7538 158.467 53.3163 158.467 52.7898V44.1818ZM163.659 55V46.2727H165.358V55H163.659ZM164.517 44.9261C164.221 44.9261 163.968 44.8277 163.756 44.6307C163.547 44.4299 163.443 44.1913 163.443 43.9148C163.443 43.6345 163.547 43.3958 163.756 43.1989C163.968 42.9981 164.221 42.8977 164.517 42.8977C164.812 42.8977 165.064 42.9981 165.273 43.1989C165.485 43.3958 165.591 43.6345 165.591 43.9148C165.591 44.1913 165.485 44.4299 165.273 44.6307C165.064 44.8277 164.812 44.9261 164.517 44.9261ZM36.6682 79V70.2727H38.3671V79H36.6682ZM37.5262 68.9261C37.2307 68.9261 36.9769 68.8277 36.7648 68.6307C36.5565 68.4299 36.4523 68.1913 36.4523 67.9148C36.4523 67.6345 36.5565 67.3958 36.7648 67.1989C36.9769 66.9981 37.2307 66.8977 37.5262 66.8977C37.8216 66.8977 38.0735 66.9981 38.2819 67.1989C38.494 67.3958 38.6001 67.6345 38.6001 67.9148C38.6001 68.1913 38.494 68.4299 38.2819 68.6307C38.0735 68.8277 37.8216 68.9261 37.5262 68.9261ZM40.4766 79V70.2727H42.1073V71.6932H42.2152C42.3971 71.2121 42.6944 70.8371 43.1073 70.5682C43.5202 70.2955 44.0145 70.1591 44.5902 70.1591C45.1736 70.1591 45.6622 70.2955 46.0562 70.5682C46.4539 70.8409 46.7474 71.2159 46.9368 71.6932H47.0277C47.2361 71.2273 47.5675 70.8561 48.0221 70.5795C48.4766 70.2992 49.0183 70.1591 49.6471 70.1591C50.4387 70.1591 51.0846 70.4072 51.5846 70.9034C52.0884 71.3996 52.3402 72.1477 52.3402 73.1477V79H50.6414V73.3068C50.6414 72.7159 50.4804 72.2879 50.1584 72.0227C49.8365 71.7576 49.452 71.625 49.005 71.625C48.452 71.625 48.0221 71.7955 47.7152 72.1364C47.4084 72.4735 47.255 72.9072 47.255 73.4375V79H45.5618V73.1989C45.5618 72.7254 45.4141 72.3447 45.1187 72.0568C44.8232 71.7689 44.4387 71.625 43.9652 71.625C43.6433 71.625 43.3459 71.7102 43.0732 71.8807C42.8043 72.0473 42.5865 72.2803 42.4198 72.5795C42.2569 72.8788 42.1755 73.2254 42.1755 73.6193V79H40.4766ZM54.4412 82.2727V70.2727H56.1003V71.6875H56.2424C56.3409 71.5057 56.4829 71.2955 56.6685 71.0568C56.8541 70.8182 57.1117 70.6098 57.4412 70.4318C57.7708 70.25 58.2064 70.1591 58.7481 70.1591C59.4526 70.1591 60.0814 70.3371 60.6344 70.6932C61.1875 71.0492 61.6212 71.5625 61.9356 72.233C62.2537 72.9034 62.4128 73.7102 62.4128 74.6534C62.4128 75.5966 62.2556 76.4053 61.9412 77.0795C61.6268 77.75 61.195 78.267 60.6458 78.6307C60.0965 78.9905 59.4696 79.1705 58.7651 79.1705C58.2348 79.1705 57.8011 79.0814 57.464 78.9034C57.1306 78.7254 56.8693 78.517 56.6799 78.2784C56.4905 78.0398 56.3446 77.8277 56.2424 77.642H56.1401V82.2727H54.4412ZM56.106 74.6364C56.106 75.25 56.195 75.7879 56.3731 76.25C56.5511 76.7121 56.8087 77.0739 57.1458 77.3352C57.4829 77.5928 57.8958 77.7216 58.3844 77.7216C58.892 77.7216 59.3162 77.5871 59.6571 77.3182C59.9981 77.0455 60.2556 76.6761 60.4299 76.2102C60.6079 75.7443 60.6969 75.2197 60.6969 74.6364C60.6969 74.0606 60.6098 73.5436 60.4356 73.0852C60.2651 72.6269 60.0075 72.2652 59.6628 72C59.3219 71.7348 58.8958 71.6023 58.3844 71.6023C57.892 71.6023 57.4753 71.7292 57.1344 71.983C56.7973 72.2367 56.5416 72.5909 56.3674 73.0455C56.1931 73.5 56.106 74.0303 56.106 74.6364ZM64.1402 79V70.2727H65.7823V71.6591H65.8732C66.0323 71.1894 66.3126 70.8201 66.7141 70.5511C67.1194 70.2784 67.5777 70.142 68.0891 70.142C68.1952 70.142 68.3202 70.1458 68.4641 70.1534C68.6118 70.161 68.7274 70.1705 68.8107 70.1818V71.8068C68.7425 71.7879 68.6213 71.767 68.4471 71.7443C68.2728 71.7178 68.0986 71.7045 67.9243 71.7045C67.5228 71.7045 67.1649 71.7898 66.8505 71.9602C66.5399 72.1269 66.2936 72.3598 66.1118 72.6591C65.93 72.9545 65.8391 73.2917 65.8391 73.6705V79H64.1402ZM73.4685 79.1761C72.6503 79.1761 71.9363 78.9886 71.3265 78.6136C70.7166 78.2386 70.2431 77.714 69.906 77.0398C69.5689 76.3655 69.4003 75.5777 69.4003 74.6761C69.4003 73.7708 69.5689 72.9792 69.906 72.3011C70.2431 71.6231 70.7166 71.0966 71.3265 70.7216C71.9363 70.3466 72.6503 70.1591 73.4685 70.1591C74.2867 70.1591 75.0007 70.3466 75.6105 70.7216C76.2204 71.0966 76.6939 71.6231 77.031 72.3011C77.3681 72.9792 77.5367 73.7708 77.5367 74.6761C77.5367 75.5777 77.3681 76.3655 77.031 77.0398C76.6939 77.714 76.2204 78.2386 75.6105 78.6136C75.0007 78.9886 74.2867 79.1761 73.4685 79.1761ZM73.4742 77.75C74.0045 77.75 74.4439 77.6098 74.7924 77.3295C75.1408 77.0492 75.3984 76.6761 75.5651 76.2102C75.7355 75.7443 75.8208 75.2311 75.8208 74.6705C75.8208 74.1136 75.7355 73.6023 75.5651 73.1364C75.3984 72.6667 75.1408 72.2898 74.7924 72.0057C74.4439 71.7216 74.0045 71.5795 73.4742 71.5795C72.9401 71.5795 72.4969 71.7216 72.1446 72.0057C71.7962 72.2898 71.5367 72.6667 71.3662 73.1364C71.1996 73.6023 71.1162 74.1136 71.1162 74.6705C71.1162 75.2311 71.1996 75.7443 71.3662 76.2102C71.5367 76.6761 71.7962 77.0492 72.1446 77.3295C72.4969 77.6098 72.9401 77.75 73.4742 77.75ZM86.426 70.2727L83.2612 79H81.4431L78.2726 70.2727H80.0965L82.3067 76.9886H82.3976L84.6022 70.2727H86.426ZM91.3111 79.1761C90.4513 79.1761 89.7107 78.9924 89.0895 78.625C88.4721 78.2538 87.9948 77.733 87.6577 77.0625C87.3244 76.3883 87.1577 75.5985 87.1577 74.6932C87.1577 73.7992 87.3244 73.0114 87.6577 72.3295C87.9948 71.6477 88.4645 71.1155 89.0668 70.733C89.6728 70.3504 90.3812 70.1591 91.1918 70.1591C91.6842 70.1591 92.1615 70.2405 92.6236 70.4034C93.0857 70.5663 93.5005 70.822 93.8679 71.1705C94.2353 71.5189 94.5251 71.9716 94.7372 72.5284C94.9494 73.0814 95.0554 73.7538 95.0554 74.5455V75.1477H88.1179V73.875H93.3906C93.3906 73.428 93.2997 73.0322 93.1179 72.6875C92.9361 72.339 92.6804 72.0644 92.3509 71.8636C92.0251 71.6629 91.6425 71.5625 91.2031 71.5625C90.7259 71.5625 90.3092 71.6799 89.9531 71.9148C89.6009 72.1458 89.3281 72.4489 89.135 72.8239C88.9456 73.1951 88.8509 73.5985 88.8509 74.0341V75.0284C88.8509 75.6117 88.9531 76.108 89.1577 76.517C89.366 76.9261 89.6558 77.2386 90.027 77.4545C90.3982 77.6667 90.8319 77.7727 91.3281 77.7727C91.6501 77.7727 91.9437 77.7273 92.2088 77.6364C92.474 77.5417 92.7031 77.4015 92.8963 77.2159C93.0895 77.0303 93.2372 76.8011 93.3395 76.5284L94.9475 76.8182C94.8187 77.2917 94.5876 77.7064 94.2543 78.0625C93.9247 78.4148 93.51 78.6894 93.01 78.8864C92.5138 79.0795 91.9475 79.1761 91.3111 79.1761ZM103.181 63.6136V82.75H101.658V63.6136H103.181ZM110.326 79V67.3636H114.587C115.413 67.3636 116.097 67.5 116.638 67.7727C117.18 68.0417 117.585 68.4072 117.854 68.8693C118.123 69.3277 118.258 69.8447 118.258 70.4205C118.258 70.9053 118.169 71.3144 117.991 71.6477C117.813 71.9773 117.574 72.2424 117.275 72.4432C116.979 72.6402 116.654 72.7841 116.297 72.875V72.9886C116.684 73.0076 117.061 73.1326 117.428 73.3636C117.799 73.5909 118.106 73.9148 118.349 74.3352C118.591 74.7557 118.712 75.267 118.712 75.8693C118.712 76.464 118.572 76.9981 118.292 77.4716C118.015 77.9413 117.587 78.3144 117.008 78.5909C116.428 78.8636 115.688 79 114.786 79H110.326ZM112.082 77.4943H114.616C115.457 77.4943 116.059 77.3314 116.422 77.0057C116.786 76.6799 116.968 76.2727 116.968 75.7841C116.968 75.4167 116.875 75.0795 116.689 74.7727C116.504 74.4659 116.239 74.2216 115.894 74.0398C115.553 73.858 115.148 73.767 114.678 73.767H112.082V77.4943ZM112.082 72.3977H114.434C114.828 72.3977 115.182 72.322 115.496 72.1705C115.814 72.0189 116.066 71.8068 116.252 71.5341C116.441 71.2576 116.536 70.9318 116.536 70.5568C116.536 70.0758 116.368 69.6723 116.03 69.3466C115.693 69.0208 115.176 68.858 114.479 68.858H112.082V72.3977ZM121.602 79H119.738L123.925 67.3636H125.954L130.141 79H128.278L124.988 69.4773H124.897L121.602 79ZM121.914 74.4432H127.96V75.9205H121.914V74.4432ZM141.038 67.3636V79H139.424L133.509 70.4659H133.401V79H131.646V67.3636H133.271L139.191 75.9091H139.299V67.3636H141.038ZM152.815 67.3636V79H151.201L145.286 70.4659H145.179V79H143.423V67.3636H145.048L150.968 75.9091H151.076V67.3636H152.815ZM155.2 79V67.3636H162.495V68.875H156.956V72.4205H162.115V73.9261H156.956V77.4886H162.564V79H155.2ZM164.665 79V67.3636H168.812C169.714 67.3636 170.462 67.5189 171.057 67.8295C171.655 68.1402 172.102 68.5701 172.398 69.1193C172.693 69.6648 172.841 70.2955 172.841 71.0114C172.841 71.7235 172.691 72.3504 172.392 72.892C172.096 73.4299 171.649 73.8485 171.051 74.1477C170.456 74.447 169.708 74.5966 168.807 74.5966H165.665V73.0852H168.648C169.216 73.0852 169.678 73.0038 170.034 72.8409C170.394 72.678 170.657 72.4413 170.824 72.1307C170.99 71.8201 171.074 71.447 171.074 71.0114C171.074 70.572 170.988 70.1913 170.818 69.8693C170.651 69.5473 170.388 69.3011 170.028 69.1307C169.672 68.9564 169.204 68.8693 168.625 68.8693H166.42V79H164.665ZM170.409 73.75L173.284 79H171.284L168.466 73.75H170.409Z" fill="black" fill-opacity="0.8"/>
</svg>
