<svg width="180" height="137" viewBox="0 0 180 137" fill="none" xmlns="http://www.w3.org/2000/svg">
<path d="M161.753 127.791C166.681 118.387 169.708 108.105 170.661 97.5313C171.615 86.9578 170.477 76.3 167.311 66.1665C164.146 56.0329 159.016 46.622 152.214 38.4711C145.411 30.3202 137.07 23.5889 127.667 18.6616C118.263 13.7343 107.981 10.7074 97.4074 9.75373C86.8339 8.80009 76.1762 9.9384 66.0426 13.1036C55.909 16.2689 46.4981 21.3991 38.3472 28.2014C30.1963 35.0036 23.465 43.3447 18.5377 52.7484C13.6104 62.1521 10.5835 72.4342 9.62982 83.0077C8.67618 93.5812 9.81449 104.239 12.9797 114.373" stroke="#F7F8FA" stroke-width="17.9542" stroke-linecap="round" stroke-linejoin="round"/>
</svg>
