<svg width="40" height="41" viewBox="0 0 40 41" fill="none" xmlns="http://www.w3.org/2000/svg">
<path d="M0 6.5C0 3.18629 2.68629 0.5 6 0.5H34C37.3137 0.5 40 3.18629 40 6.5V34.5C40 37.8137 37.3137 40.5 34 40.5H6C2.68629 40.5 0 37.8137 0 34.5V6.5Z" fill="#FFB400" fill-opacity="0.16"/>
<path d="M24.421 24.3683C25.6419 24.3683 26.6316 23.3786 26.6316 22.1578C26.6316 20.937 25.6419 19.9473 24.421 19.9473C23.2002 19.9473 22.2105 20.937 22.2105 22.1578C22.2105 23.3786 23.2002 24.3683 24.421 24.3683Z" fill="#FFB400"/>
<path d="M22.2105 22.1578C22.2105 21.601 22.4233 21.0983 22.7631 20.7096C22.358 20.2461 21.7693 19.9473 21.1052 19.9473C19.8844 19.9473 18.8947 20.937 18.8947 22.1578C18.8947 23.3786 19.8844 24.3683 21.1052 24.3683C21.7693 24.3683 22.358 24.0695 22.7631 23.606C22.4233 23.2173 22.2105 22.7146 22.2105 22.1578Z" fill="#FFEAB8"/>
<path d="M27.7368 13.3159H12.2631C11.0423 13.3159 10.0526 14.3056 10.0526 15.5264V25.4738C10.0526 26.6946 11.0423 27.6843 12.2631 27.6843H27.7368C28.9577 27.6843 29.9473 26.6946 29.9473 25.4738V15.5264C29.9473 14.3056 28.9577 13.3159 27.7368 13.3159ZM24.421 24.3685C23.757 24.3685 23.1683 24.0697 22.7631 23.6062C22.358 24.0697 21.7693 24.3685 21.1052 24.3685C19.8844 24.3685 18.8947 23.3788 18.8947 22.158C18.8947 20.9372 19.8844 19.9475 21.1052 19.9475C21.7693 19.9475 22.358 20.2463 22.7631 20.7099C23.1683 20.2463 23.757 19.9475 24.421 19.9475C25.6419 19.9475 26.6316 20.9372 26.6316 22.158C26.6316 23.3788 25.6419 24.3685 24.421 24.3685Z" fill="#FFCF5C"/>
</svg>
