<svg width="28" height="33" viewBox="0 0 28 33" fill="none" xmlns="http://www.w3.org/2000/svg">
<g clip-path="url(#clip0_12_114)">
<path d="M15.616 25.3652C15.3871 25.6851 15.0147 25.8737 14.6184 25.8737C14.41 25.8737 14.2051 25.8198 14.024 25.7222L12.0015 24.6176L9.979 25.7222C9.79794 25.8198 9.59296 25.8737 9.38456 25.8737C8.98826 25.8737 8.61587 25.6851 8.38698 25.3652L7.04776 23.5029L5.80762 23.5703V31.9287C5.80762 32.1206 6.01943 32.2419 6.19025 32.1442L12.0254 28.8035L17.8162 32.1408C17.987 32.2385 18.1988 32.1173 18.1988 31.9253V23.5703L16.9586 23.5029L15.6194 25.3652H15.616Z" fill="#E46560"/>
<path d="M12.0014 5.96484C7.86415 5.96484 4.49902 9.28194 4.49902 13.3601C4.49902 17.4383 7.86415 20.7554 12.0014 20.7554C16.1386 20.7554 19.5037 17.4383 19.5037 13.3601C19.5037 9.28194 16.1386 5.96484 12.0014 5.96484Z" fill="#E7C961"/>
<path d="M23.9419 13.515C24.0239 13.4274 24.0239 13.2927 23.9419 13.2018L22.1244 11.1947C22.0698 11.1341 22.0493 11.0499 22.0732 10.9724L22.8282 8.38947C22.8623 8.27497 22.8009 8.15373 22.6915 8.10995L20.1702 7.08283C20.0951 7.05253 20.0404 6.98517 20.0268 6.90435L19.569 4.25068C19.5485 4.13281 19.4426 4.04862 19.323 4.05536L16.5967 4.20353C16.5147 4.2069 16.4362 4.16985 16.3883 4.10587L14.81 1.91693C14.7416 1.81927 14.6084 1.78896 14.5025 1.84621L12.1144 3.14947C12.0427 3.18988 11.9573 3.18988 11.8856 3.14947L9.49751 1.84957C9.3916 1.79232 9.25836 1.82263 9.19004 1.92029L7.61167 4.11261C7.56384 4.17659 7.48527 4.217 7.40327 4.21027L4.67701 4.06209C4.55744 4.05536 4.45153 4.13955 4.43103 4.25741L3.97324 6.91109C3.95957 6.99191 3.90491 7.05589 3.82975 7.08957L1.30847 8.11669C1.19573 8.16384 1.13765 8.2817 1.17182 8.3962L1.92683 10.9792C1.95075 11.0566 1.92683 11.1408 1.87559 11.2014L0.0614947 13.2051C-0.0204982 13.2927 -0.0204982 13.4274 0.0614947 13.5183L1.879 15.5254C1.93367 15.586 1.95416 15.6702 1.93025 15.7477L1.17523 18.3306C1.14107 18.4451 1.20256 18.5664 1.31189 18.6102L3.83317 19.6373C3.90833 19.6676 3.96299 19.7349 3.97666 19.8158L4.43445 22.4694C4.45495 22.5873 4.56085 22.6715 4.68043 22.6648L7.40669 22.5166C7.48868 22.5132 7.56726 22.5503 7.61509 22.6142L9.19345 24.8066C9.26178 24.9042 9.39502 24.9345 9.50093 24.8773L11.889 23.574C11.9607 23.5336 12.0461 23.5336 12.1179 23.574L14.5059 24.8773C14.6118 24.9345 14.7451 24.9042 14.8134 24.8066L16.3917 22.6142C16.4396 22.5503 16.5182 22.5098 16.6001 22.5166L19.3264 22.6648C19.446 22.6715 19.5519 22.5873 19.5724 22.4694L20.0302 19.8158C20.0438 19.7349 20.0985 19.6709 20.1737 19.6373L22.6949 18.6102C22.8077 18.563 22.8658 18.4451 22.8316 18.3306L22.0766 15.7477C22.0527 15.6702 22.0766 15.586 22.1278 15.5254L23.9453 13.5183L23.9419 13.515ZM12.0017 21.9205C7.21196 21.9205 3.3173 18.0781 3.3173 13.3601C3.3173 8.64204 7.21196 4.7996 12.0017 4.7996C16.7915 4.7996 20.6861 8.64204 20.6861 13.3601C20.6861 18.0781 16.788 21.9205 12.0017 21.9205Z" fill="#E7C961"/>
</g>
<defs>
<clipPath id="clip0_12_114">
<rect width="32" height="32" fill="white" transform="translate(-4 0.738281)"/>
</clipPath>
</defs>
</svg>
