<svg width="40" height="40" viewBox="0 0 40 40" fill="none" xmlns="http://www.w3.org/2000/svg">
<path d="M0 6C0 2.68629 2.68629 0 6 0H34C37.3137 0 40 2.68629 40 6V34C40 37.3137 37.3137 40 34 40H6C2.68629 40 0 37.3137 0 34V6Z" fill="#FF4C51" fill-opacity="0.16"/>
<path d="M16.8617 27.9399C16.7846 28.4256 16.3658 28.7831 15.8741 28.7831H12.0423C11.1956 28.7849 10.5077 28.1 10.5059 27.2533C10.5057 27.1677 10.5127 27.0823 10.5267 26.998L13.1166 10.5917C13.2638 9.67626 14.0526 9.00235 14.9798 8.99988H21.1937C23.7542 8.99988 25.6019 9.62 26.6859 10.8426C27.7325 12.0485 28.1346 13.6845 27.766 15.2382C27.7445 15.3729 27.723 15.5087 27.6908 15.6562C26.8675 19.8739 24.0355 22.1132 19.5052 22.1132H17.7865L16.8617 27.9399Z" fill="#FFA2A5"/>
<path d="M28.4165 15.1043C28.2504 14.9183 28.0678 14.7485 27.8715 14.5963C27.8496 14.8109 27.8166 15.0253 27.7661 15.2381C27.7446 15.3729 27.7231 15.5086 27.6909 15.6561C26.8677 19.8738 24.0356 22.1131 19.5054 22.1131H17.7866L16.8619 27.9398C16.7848 28.4255 16.366 28.7831 15.8742 28.7831H14.7065L14.6245 29.3035C14.6126 29.3792 14.6064 29.4558 14.6064 29.5324C14.6061 30.3425 15.2626 30.9995 16.0728 30.9999H19.3071C20.1728 31.0071 20.9153 30.3839 21.0582 29.5301L21.6988 25.4988L21.7095 25.4442H22.0084C26.0406 25.4442 28.5591 23.451 29.2935 19.6815C29.7479 18.1032 29.4221 16.4029 28.4165 15.1043Z" fill="#FF4C51"/>
</svg>
