<svg width="40" height="40" viewBox="0 0 40 40" fill="none" xmlns="http://www.w3.org/2000/svg">
<path d="M0 6C0 2.68629 2.68629 0 6 0H34C37.3137 0 40 2.68629 40 6V34C40 37.3137 37.3137 40 34 40H6C2.68629 40 0 37.3137 0 34V6Z" fill="#FFB400" fill-opacity="0.16"/>
<path d="M24.421 23.8684C25.6418 23.8684 26.6315 22.8788 26.6315 21.6579C26.6315 20.4371 25.6418 19.4474 24.421 19.4474C23.2001 19.4474 22.2104 20.4371 22.2104 21.6579C22.2104 22.8788 23.2001 23.8684 24.421 23.8684Z" fill="#FFB400"/>
<path d="M22.2108 21.6579C22.2108 21.1011 22.4237 20.5985 22.7634 20.2098C22.3583 19.7462 21.7696 19.4474 21.1055 19.4474C19.8847 19.4474 18.895 20.4371 18.895 21.6579C18.895 22.8787 19.8847 23.8684 21.1055 23.8684C21.7696 23.8684 22.3583 23.5696 22.7634 23.1061C22.4237 22.7174 22.2108 22.2147 22.2108 21.6579Z" fill="#FFEAB8"/>
<path d="M27.7369 12.8158H12.2633C11.0424 12.8158 10.0527 13.8055 10.0527 15.0263V24.9737C10.0527 26.1945 11.0424 27.1842 12.2633 27.1842H27.7369C28.9578 27.1842 29.9475 26.1945 29.9475 24.9737V15.0263C29.9475 13.8055 28.9578 12.8158 27.7369 12.8158ZM24.4212 23.8684C23.7571 23.8684 23.1684 23.5696 22.7633 23.1061C22.3581 23.5696 21.7694 23.8684 21.1054 23.8684C19.8845 23.8684 18.8948 22.8787 18.8948 21.6579C18.8948 20.4371 19.8845 19.4474 21.1054 19.4474C21.7694 19.4474 22.3581 19.7462 22.7633 20.2097C23.1684 19.7462 23.7571 19.4474 24.4212 19.4474C25.642 19.4474 26.6317 20.4371 26.6317 21.6579C26.6317 22.8787 25.642 23.8684 24.4212 23.8684Z" fill="#FFCF5C"/>
</svg>
