<svg width="40" height="41" viewBox="0 0 40 41" fill="none" xmlns="http://www.w3.org/2000/svg">
<path d="M0 6.5C0 3.18629 2.68629 0.5 6 0.5H34C37.3137 0.5 40 3.18629 40 6.5V34.5C40 37.8137 37.3137 40.5 34 40.5H6C2.68629 40.5 0 37.8137 0 34.5V6.5Z" fill="#FF4C51" fill-opacity="0.16"/>
<path d="M16.8616 28.44C16.7845 28.9257 16.3657 29.2833 15.874 29.2833H12.0422C11.1955 29.2851 10.5076 28.6001 10.5057 27.7534C10.5056 27.6679 10.5125 27.5825 10.5266 27.4981L13.1164 11.0918C13.2637 10.1764 14.0525 9.50247 14.9797 9.5H21.1936C23.7541 9.5 25.6018 10.1201 26.6858 11.3428C27.7324 12.5486 28.1344 14.1847 27.7658 15.7383C27.7444 15.873 27.7228 16.0088 27.6907 16.1563C26.8674 20.3741 24.0354 22.6133 19.5051 22.6133H17.7864L16.8616 28.44Z" fill="#FFA2A5"/>
<path d="M28.4163 15.6047C28.2501 15.4187 28.0676 15.2489 27.8713 15.0967C27.8494 15.3113 27.8164 15.5256 27.7659 15.7385C27.7444 15.8732 27.7228 16.009 27.6907 16.1564C26.8674 20.3742 24.0354 22.6135 19.5051 22.6135H17.7864L16.8616 28.4402C16.7846 28.9259 16.3657 29.2835 15.874 29.2835H14.7063L14.6243 29.8039C14.6123 29.8796 14.6062 29.9561 14.6062 30.0328C14.6059 30.8429 15.2624 31.4999 16.0725 31.5003H19.3069C20.1726 31.5075 20.915 30.8843 21.0579 30.0305L21.6986 25.9992L21.7093 25.9446H22.0081C26.0404 25.9446 28.5589 23.9514 29.2933 20.1818C29.7476 18.6036 29.4219 16.9033 28.4163 15.6047Z" fill="#FF4C51"/>
</svg>
