<svg width="28" height="33" viewBox="0 0 28 33" fill="none" xmlns="http://www.w3.org/2000/svg">
<g clip-path="url(#clip0_8_676)">
<path d="M15.616 25.3652C15.3871 25.6851 15.0147 25.8737 14.6184 25.8737C14.41 25.8737 14.2051 25.8198 14.024 25.7222L12.0015 24.6176L9.979 25.7222C9.79794 25.8198 9.59296 25.8737 9.38456 25.8737C8.98826 25.8737 8.61587 25.6851 8.38698 25.3652L7.04776 23.5029L5.80762 23.5703V31.9287C5.80762 32.1206 6.01943 32.2419 6.19025 32.1442L12.0254 28.8035L17.8162 32.1408C17.987 32.2385 18.1988 32.1173 18.1988 31.9253V23.5703L16.9586 23.5029L15.6194 25.3652H15.616Z" fill="#E46560"/>
<path d="M12.0014 5.96472C7.86415 5.96472 4.49902 9.28181 4.49902 13.36C4.49902 17.4382 7.86415 20.7552 12.0014 20.7552C16.1386 20.7552 19.5037 17.4382 19.5037 13.36C19.5037 9.28181 16.1386 5.96472 12.0014 5.96472Z" fill="#E7C961"/>
<path d="M23.9419 13.5148C24.0239 13.4273 24.0239 13.2926 23.9419 13.2017L22.1244 11.1946C22.0698 11.1339 22.0493 11.0498 22.0732 10.9723L22.8282 8.38934C22.8623 8.27485 22.8009 8.15361 22.6915 8.10983L20.1702 7.08271C20.0951 7.0524 20.0404 6.98505 20.0268 6.90423L19.569 4.25056C19.5485 4.13269 19.4426 4.0485 19.323 4.05523L16.5967 4.20341C16.5147 4.20678 16.4362 4.16973 16.3883 4.10575L14.81 1.9168C14.7416 1.81914 14.6084 1.78883 14.5025 1.84608L12.1144 3.14935C12.0427 3.18976 11.9573 3.18976 11.8856 3.14935L9.49751 1.84945C9.3916 1.7922 9.25836 1.82251 9.19004 1.92017L7.61167 4.11248C7.56384 4.17647 7.48527 4.21688 7.40327 4.21014L4.67701 4.06197C4.55744 4.05523 4.45153 4.13942 4.43103 4.25729L3.97324 6.91096C3.95957 6.99179 3.90491 7.05577 3.82975 7.08945L1.30847 8.11657C1.19573 8.16371 1.13765 8.28158 1.17182 8.39608L1.92683 10.979C1.95075 11.0565 1.92683 11.1407 1.87559 11.2013L0.0614947 13.205C-0.0204982 13.2926 -0.0204982 13.4273 0.0614947 13.5182L1.879 15.5253C1.93367 15.5859 1.95416 15.6701 1.93025 15.7476L1.17523 18.3305C1.14107 18.445 1.20256 18.5663 1.31189 18.61L3.83317 19.6371C3.90833 19.6675 3.96299 19.7348 3.97666 19.8156L4.43445 22.4693C4.45495 22.5872 4.56085 22.6714 4.68043 22.6646L7.40669 22.5165C7.48868 22.5131 7.56726 22.5501 7.61509 22.6141L9.19345 24.8064C9.26178 24.9041 9.39502 24.9344 9.50093 24.8771L11.889 23.5739C11.9607 23.5335 12.0461 23.5335 12.1179 23.5739L14.5059 24.8771C14.6118 24.9344 14.7451 24.9041 14.8134 24.8064L16.3917 22.6141C16.4396 22.5501 16.5182 22.5097 16.6001 22.5165L19.3264 22.6646C19.446 22.6714 19.5519 22.5872 19.5724 22.4693L20.0302 19.8156C20.0438 19.7348 20.0985 19.6708 20.1737 19.6371L22.6949 18.61C22.8077 18.5629 22.8658 18.445 22.8316 18.3305L22.0766 15.7476C22.0527 15.6701 22.0766 15.5859 22.1278 15.5253L23.9453 13.5182L23.9419 13.5148ZM12.0017 21.9204C7.21196 21.9204 3.3173 18.0779 3.3173 13.3599C3.3173 8.64191 7.21196 4.79948 12.0017 4.79948C16.7915 4.79948 20.6861 8.64191 20.6861 13.3599C20.6861 18.0779 16.788 21.9204 12.0017 21.9204Z" fill="#E7C961"/>
</g>
<defs>
<clipPath id="clip0_8_676">
<rect width="32" height="32" fill="white" transform="translate(-4 0.738281)"/>
</clipPath>
</defs>
</svg>
