<svg width="40" height="40" viewBox="0 0 40 40" fill="none" xmlns="http://www.w3.org/2000/svg">
<path d="M0 6C0 2.68629 2.68629 0 6 0H34C37.3137 0 40 2.68629 40 6V34C40 37.3137 37.3137 40 34 40H6C2.68629 40 0 37.3137 0 34V6Z" fill="#F3B1E2" fill-opacity="0.16"/>
<path d="M24.4211 23.8683C25.6419 23.8683 26.6316 22.8786 26.6316 21.6578C26.6316 20.437 25.6419 19.4473 24.4211 19.4473C23.2002 19.4473 22.2106 20.437 22.2106 21.6578C22.2106 22.8786 23.2002 23.8683 24.4211 23.8683Z" fill="#F9A5E3"/>
<path d="M22.2105 21.6578C22.2105 21.101 22.4234 20.5983 22.7632 20.2096C22.358 19.7461 21.7693 19.4473 21.1053 19.4473C19.8844 19.4473 18.8947 20.437 18.8947 21.6578C18.8947 22.8786 19.8844 23.8683 21.1053 23.8683C21.7693 23.8683 22.358 23.5695 22.7632 23.106C22.4234 22.7173 22.2105 22.2146 22.2105 21.6578Z" fill="#F3B1E2" fill-opacity="0.16"/>
<path d="M27.7368 12.8157H12.2632C11.0423 12.8157 10.0526 13.8054 10.0526 15.0262V24.9736C10.0526 26.1944 11.0423 27.1841 12.2632 27.1841H27.7368C28.9577 27.1841 29.9474 26.1944 29.9474 24.9736V15.0262C29.9474 13.8054 28.9577 12.8157 27.7368 12.8157ZM24.421 23.8683C23.757 23.8683 23.1683 23.5695 22.7632 23.1059C22.358 23.5695 21.7693 23.8683 21.1053 23.8683C19.8844 23.8683 18.8947 22.8786 18.8947 21.6578C18.8947 20.437 19.8844 19.4473 21.1053 19.4473C21.7693 19.4473 22.358 19.7461 22.7632 20.2096C23.1683 19.7461 23.757 19.4473 24.421 19.4473C25.6419 19.4473 26.6316 20.437 26.6316 21.6578C26.6316 22.8786 25.6419 23.8683 24.421 23.8683Z" fill="#F3B1E2" fill-opacity="0.53"/>
</svg>
