<svg width="40" height="40" viewBox="0 0 40 40" fill="none" xmlns="http://www.w3.org/2000/svg">
<path d="M0 6C0 2.68629 2.68629 0 6 0H34C37.3137 0 40 2.68629 40 6V34C40 37.3137 37.3137 40 34 40H6C2.68629 40 0 37.3137 0 34V6Z" fill="#FF4C51" fill-opacity="0.16"/>
<path d="M16.8616 27.94C16.7845 28.4257 16.3657 28.7833 15.874 28.7833H12.0422C11.1955 28.7851 10.5076 28.1001 10.5057 27.2534C10.5056 27.1679 10.5125 27.0825 10.5266 26.9981L13.1164 10.5918C13.2637 9.67638 14.0525 9.00247 14.9797 9H21.1936C23.7541 9 25.6018 9.62012 26.6858 10.8428C27.7324 12.0486 28.1344 13.6847 27.7658 15.2383C27.7444 15.373 27.7228 15.5088 27.6907 15.6563C26.8674 19.8741 24.0354 22.1133 19.5051 22.1133H17.7864L16.8616 27.94Z" fill="#FFA2A5"/>
<path d="M28.4163 15.1047C28.2501 14.9187 28.0676 14.7489 27.8713 14.5967C27.8494 14.8113 27.8164 15.0256 27.7659 15.2385C27.7444 15.3732 27.7228 15.509 27.6907 15.6564C26.8674 19.8742 24.0354 22.1135 19.5051 22.1135H17.7864L16.8616 27.9402C16.7846 28.4259 16.3657 28.7835 15.874 28.7835H14.7063L14.6243 29.3039C14.6123 29.3796 14.6062 29.4561 14.6062 29.5328C14.6059 30.3429 15.2624 30.9999 16.0725 31.0003H19.3069C20.1726 31.0075 20.915 30.3843 21.0579 29.5305L21.6986 25.4992L21.7093 25.4446H22.0081C26.0404 25.4446 28.5589 23.4514 29.2933 19.6818C29.7476 18.1036 29.4219 16.4033 28.4163 15.1047Z" fill="#FF4C51"/>
</svg>
