<svg width="40" height="40" viewBox="0 0 40 40" fill="none" xmlns="http://www.w3.org/2000/svg">
<path d="M0 6C0 2.68629 2.68629 0 6 0H34C37.3137 0 40 2.68629 40 6V34C40 37.3137 37.3137 40 34 40H6C2.68629 40 0 37.3137 0 34V6Z" fill="#F3B1E2" fill-opacity="0.16"/>
<path d="M24.4211 23.8684C25.6419 23.8684 26.6316 22.8787 26.6316 21.6579C26.6316 20.4371 25.6419 19.4474 24.4211 19.4474C23.2002 19.4474 22.2106 20.4371 22.2106 21.6579C22.2106 22.8787 23.2002 23.8684 24.4211 23.8684Z" fill="#FFB400"/>
<path d="M22.2105 21.6579C22.2105 21.1011 22.4234 20.5984 22.7632 20.2097C22.358 19.7462 21.7693 19.4474 21.1053 19.4474C19.8844 19.4474 18.8947 20.4371 18.8947 21.6579C18.8947 22.8787 19.8844 23.8684 21.1053 23.8684C21.7693 23.8684 22.358 23.5696 22.7632 23.1061C22.4234 22.7174 22.2105 22.2147 22.2105 21.6579Z" fill="#FFEAB8"/>
<path d="M27.7368 12.8158H12.2632C11.0423 12.8158 10.0526 13.8055 10.0526 15.0263V24.9737C10.0526 26.1945 11.0423 27.1842 12.2632 27.1842H27.7368C28.9577 27.1842 29.9474 26.1945 29.9474 24.9737V15.0263C29.9474 13.8055 28.9577 12.8158 27.7368 12.8158ZM24.4211 23.8684C23.757 23.8684 23.1683 23.5696 22.7632 23.1061C22.358 23.5696 21.7693 23.8684 21.1053 23.8684C19.8844 23.8684 18.8947 22.8787 18.8947 21.6579C18.8947 20.4371 19.8844 19.4474 21.1053 19.4474C21.7693 19.4474 22.358 19.7462 22.7632 20.2097C23.1683 19.7462 23.757 19.4474 24.4211 19.4474C25.6419 19.4474 26.6316 20.4371 26.6316 21.6579C26.6316 22.8787 25.6419 23.8684 24.4211 23.8684Z" fill="#FFCF5C"/>
</svg>
