<svg width="40" height="40" viewBox="0 0 40 40" fill="none" xmlns="http://www.w3.org/2000/svg">
<path d="M0 6C0 2.68629 2.68629 0 6 0H34C37.3137 0 40 2.68629 40 6V34C40 37.3137 37.3137 40 34 40H6C2.68629 40 0 37.3137 0 34V6Z" fill="#FFB400" fill-opacity="0.16"/>
<path d="M24.421 23.8683C25.6419 23.8683 26.6316 22.8786 26.6316 21.6578C26.6316 20.437 25.6419 19.4473 24.421 19.4473C23.2002 19.4473 22.2105 20.437 22.2105 21.6578C22.2105 22.8786 23.2002 23.8683 24.421 23.8683Z" fill="#FFB400"/>
<path d="M22.2105 21.6578C22.2105 21.101 22.4233 20.5983 22.7631 20.2096C22.358 19.7461 21.7693 19.4473 21.1052 19.4473C19.8844 19.4473 18.8947 20.437 18.8947 21.6578C18.8947 22.8786 19.8844 23.8683 21.1052 23.8683C21.7693 23.8683 22.358 23.5695 22.7631 23.106C22.4233 22.7173 22.2105 22.2146 22.2105 21.6578Z" fill="#FFEAB8"/>
<path d="M27.7368 12.8159H12.2631C11.0423 12.8159 10.0526 13.8056 10.0526 15.0264V24.9738C10.0526 26.1946 11.0423 27.1843 12.2631 27.1843H27.7368C28.9577 27.1843 29.9473 26.1946 29.9473 24.9738V15.0264C29.9473 13.8056 28.9577 12.8159 27.7368 12.8159ZM24.421 23.8685C23.757 23.8685 23.1683 23.5697 22.7631 23.1062C22.358 23.5697 21.7693 23.8685 21.1052 23.8685C19.8844 23.8685 18.8947 22.8788 18.8947 21.658C18.8947 20.4372 19.8844 19.4475 21.1052 19.4475C21.7693 19.4475 22.358 19.7463 22.7631 20.2099C23.1683 19.7463 23.757 19.4475 24.421 19.4475C25.6419 19.4475 26.6316 20.4372 26.6316 21.658C26.6316 22.8788 25.6419 23.8685 24.421 23.8685Z" fill="#FFCF5C"/>
</svg>
