<svg width="40" height="41" viewBox="0 0 40 41" fill="none" xmlns="http://www.w3.org/2000/svg">
<path d="M0 6.5C0 3.18629 2.68629 0.5 6 0.5H34C37.3137 0.5 40 3.18629 40 6.5V34.5C40 37.8137 37.3137 40.5 34 40.5H6C2.68629 40.5 0 37.8137 0 34.5V6.5Z" fill="#F3B1E2" fill-opacity="0.16"/>
<path d="M24.4211 24.3683C25.6419 24.3683 26.6316 23.3786 26.6316 22.1578C26.6316 20.937 25.6419 19.9473 24.4211 19.9473C23.2002 19.9473 22.2106 20.937 22.2106 22.1578C22.2106 23.3786 23.2002 24.3683 24.4211 24.3683Z" fill="#FFB400"/>
<path d="M22.2105 22.1578C22.2105 21.601 22.4234 21.0983 22.7632 20.7096C22.358 20.2461 21.7693 19.9473 21.1053 19.9473C19.8844 19.9473 18.8947 20.937 18.8947 22.1578C18.8947 23.3786 19.8844 24.3683 21.1053 24.3683C21.7693 24.3683 22.358 24.0695 22.7632 23.606C22.4234 23.2173 22.2105 22.7146 22.2105 22.1578Z" fill="#FFEAB8"/>
<path d="M27.7368 13.3157H12.2632C11.0423 13.3157 10.0526 14.3054 10.0526 15.5262V25.4736C10.0526 26.6944 11.0423 27.6841 12.2632 27.6841H27.7368C28.9577 27.6841 29.9474 26.6944 29.9474 25.4736V15.5262C29.9474 14.3054 28.9577 13.3157 27.7368 13.3157ZM24.421 24.3683C23.757 24.3683 23.1683 24.0695 22.7632 23.6059C22.358 24.0695 21.7693 24.3683 21.1053 24.3683C19.8844 24.3683 18.8947 23.3786 18.8947 22.1578C18.8947 20.937 19.8844 19.9473 21.1053 19.9473C21.7693 19.9473 22.358 20.2461 22.7632 20.7096C23.1683 20.2461 23.757 19.9473 24.421 19.9473C25.6419 19.9473 26.6316 20.937 26.6316 22.1578C26.6316 23.3786 25.6419 24.3683 24.421 24.3683Z" fill="#FFCF5C"/>
</svg>
