<svg width="68" height="64" viewBox="0 0 68 64" fill="none" xmlns="http://www.w3.org/2000/svg">
<rect width="68" height="64" fill="#F4F5FA"/>
<path fill-rule="evenodd" clip-rule="evenodd" d="M21.3017 21.1414L26.2993 24.2273C26.5675 24.3929 26.7307 24.6857 26.7307 25.0009V39.0988C26.7307 39.4185 26.5629 39.7147 26.2887 39.8789L21.291 42.8707C20.8604 43.1285 20.3024 42.9883 20.0447 42.5575C19.9604 42.4164 19.9158 42.2551 19.9158 42.0907V21.915C19.9158 21.4129 20.3226 21.0059 20.8245 21.0059C20.993 21.0059 21.1583 21.0528 21.3017 21.1414Z" fill="#B29DF8"/>
<path opacity="0.077704" fill-rule="evenodd" clip-rule="evenodd" d="M19.9158 28.3537L26.7307 32.2632V36.0959L19.9158 28.3537Z" fill="black"/>
<path opacity="0.077704" fill-rule="evenodd" clip-rule="evenodd" d="M19.9158 28.3537L26.7307 32.1637V34.505L19.9158 28.3537Z" fill="black"/>
<path fill-rule="evenodd" clip-rule="evenodd" d="M46.6994 21.1379L41.7018 24.2135C41.433 24.379 41.2692 24.6721 41.2692 24.9878V39.0989C41.2692 39.4186 41.4371 39.7148 41.7113 39.879L46.7089 42.8709C47.1396 43.1287 47.6975 42.9884 47.9552 42.5576C48.0396 42.4165 48.0842 42.2552 48.0842 42.0908V21.9122C48.0842 21.4101 47.6773 21.0031 47.1755 21.0031C47.0074 21.0031 46.8426 21.0498 46.6994 21.1379Z" fill="#B29DF8"/>
<path opacity="0.077704" fill-rule="evenodd" clip-rule="evenodd" d="M48.0842 28.3537L41.2692 32.2549V36.2116L48.0842 28.3537Z" fill="black"/>
<path opacity="0.077704" fill-rule="evenodd" clip-rule="evenodd" d="M48.0842 28.3537L41.2692 32.1603V34.6207L48.0842 28.3537Z" fill="black"/>
<path fill-rule="evenodd" clip-rule="evenodd" d="M21.2993 21.134L34 28.9218V36.4216L19.9158 28.3516V21.9091C19.9158 21.407 20.3226 21 20.8245 21C20.9921 21 21.1564 21.0464 21.2993 21.134Z" fill="#B29DF8"/>
<path fill-rule="evenodd" clip-rule="evenodd" d="M21.2993 21.134L34 28.9218V36.4216L19.9158 28.3516V21.9091C19.9158 21.407 20.3226 21 20.8245 21C20.9921 21 21.1564 21.0464 21.2993 21.134Z" fill="white" fill-opacity="0.15"/>
<path fill-rule="evenodd" clip-rule="evenodd" d="M46.7007 21.134L34 28.9218V36.4216L48.0842 28.3516V21.9091C48.0842 21.407 47.6773 21 47.1755 21C47.0079 21 46.8436 21.0464 46.7007 21.134Z" fill="#B29DF8"/>
<path fill-rule="evenodd" clip-rule="evenodd" d="M46.7007 21.134L34 28.9218V36.4216L48.0842 28.3516V21.9091C48.0842 21.407 47.6773 21 47.1755 21C47.0079 21 46.8436 21.0464 46.7007 21.134Z" fill="white" fill-opacity="0.3"/>
</svg>
