<svg width="6" height="34" viewBox="0 0 6 34" fill="none" xmlns="http://www.w3.org/2000/svg">
<path d="M5.63861 6.12783C5.49863 5.93255 5.28868 5.93255 5.1487 6.12783L3.95894 7.78774V1.14812C3.95894 0.855195 3.81896 0.659912 3.609 0.659912C3.39904 0.659912 3.25907 0.855195 3.25907 1.14812V14.2321L1.33445 11.5469C1.19447 11.3517 0.984515 11.3517 0.844543 11.5469C0.70457 11.7422 0.70457 12.0351 0.844543 12.2304L3.25907 15.5991V32.6375C3.25907 32.9304 3.39904 33.1257 3.609 33.1257C3.81896 33.1257 3.95894 32.9304 3.95894 32.6375V9.15472L5.63861 6.81132C5.77858 6.61604 5.77858 6.32312 5.63861 6.12783Z" fill="#B29DF8"/>
</svg>
