<svg width="3" height="14" viewBox="0 0 3 14" fill="none" xmlns="http://www.w3.org/2000/svg">
<path d="M2.32403 2.88557C2.26823 2.80735 2.18453 2.80735 2.12873 2.88557L1.65443 3.55047V0.890871C1.65443 0.773536 1.59863 0.695312 1.51493 0.695312C1.43123 0.695312 1.37543 0.773536 1.37543 0.890871V6.13185L0.608182 5.05628C0.552382 4.97805 0.468683 4.97805 0.412883 5.05628C0.357083 5.1345 0.357083 5.25184 0.412883 5.33006L1.37543 6.67942V13.5044C1.37543 13.6218 1.43123 13.7 1.51493 13.7C1.59863 13.7 1.65443 13.6218 1.65443 13.5044V4.09804L2.32403 3.15936C2.37983 3.08113 2.37983 2.9638 2.32403 2.88557Z" fill="#B29DF8"/>
</svg>
