<svg width="98" height="22" viewBox="0 0 98 22" fill="none" xmlns="http://www.w3.org/2000/svg">
<path fill-rule="evenodd" clip-rule="evenodd" d="M97.7336 14.0561C97.7319 5.81674 97.71 5.57451 96.7882 3.69214C95.8024 1.67688 93.7047 0.247013 91.4253 0.0367396C89.6119 -0.131479 88.066 0.270562 86.1988 1.39595L85.679 1.70884L85.0717 1.24623C83.6974 0.196548 81.1287 -0.274465 79.3153 0.189819C76.7583 0.845874 74.955 2.69123 74.119 5.50722C73.9709 6.01019 73.8481 6.71503 73.8481 7.07334C73.8481 7.81182 73.5941 7.78827 73.4276 7.03297C73.2493 6.21542 71.7992 4.16315 70.6335 3.07814C69.3853 1.91406 67.6829 0.963624 66.1101 0.549805C64.6634 0.169631 62.1519 0.162904 60.7271 0.53635C58.229 1.19072 55.9042 2.79216 54.6577 4.71827L54.0303 5.69058L53.4247 4.86631C51.9292 2.82917 49.6835 1.23109 47.3436 0.541397C46.1139 0.179726 43.3635 0.130941 42.0547 0.450557C40.3322 0.869422 38.4347 1.9107 37.1259 3.1572C34.5959 5.56441 33.4554 8.71011 33.8221 12.2595C34.1855 15.7703 35.7449 18.3255 38.6904 20.2449C40.7712 21.599 42.7058 22.1037 45.2358 21.9557C46.9852 21.8531 48.1678 21.5116 49.8096 20.6368C51.004 19.9993 52.8965 18.2952 53.4936 17.3179C53.7258 16.9394 53.9546 16.6282 54.005 16.6265C54.0538 16.6231 54.2187 16.83 54.3717 17.0841C55.3979 18.7999 57.8404 20.7209 59.9415 21.4645C61.5614 22.0381 64.4901 22.176 66.1101 21.7555C68.8487 21.0439 71.6445 18.7965 72.8927 16.3002C73.2325 15.6189 73.5117 14.9258 73.5117 14.7576C73.5117 14.5894 73.5773 14.4144 73.6564 14.364C73.7371 14.3152 73.796 14.5187 73.7893 14.8181C73.7825 15.1159 73.7943 16.7813 73.8128 18.519L73.8481 21.6764L76.3294 21.631L78.8106 21.5839L78.8947 14.3505C78.9536 9.33925 79.0394 6.9825 79.1773 6.67634C79.5154 5.92104 80.19 5.519 81.1169 5.519C81.8066 5.519 82.0303 5.60143 82.4256 5.99506C82.6864 6.2558 82.9824 6.76718 83.0834 7.13054C83.2028 7.55613 83.2667 10.2443 83.2684 14.729V21.668H88.2931L88.3469 14.3925C88.394 7.81014 88.4277 7.06493 88.6968 6.57205C89.0972 5.84198 89.7011 5.47358 90.5018 5.47358C91.3025 5.47358 91.9081 5.84198 92.3068 6.57205C92.576 7.06493 92.6096 7.80678 92.655 14.3925L92.7055 21.668H97.7352V14.0561H97.7336ZM49.5068 13.3832C48.8087 14.8047 47.4764 15.9503 45.9961 16.3994C44.0717 16.9848 42.2415 16.5592 40.7292 15.1781C37.4926 12.2192 38.4952 7.10026 42.6183 5.52236C43.0338 5.36256 43.7353 5.29695 44.6773 5.32891C45.8851 5.36928 46.2468 5.45339 47.0088 5.86889C48.0484 6.43411 49.019 7.46866 49.5792 8.60582C49.8988 9.25514 49.9711 9.67232 49.9728 10.9121C49.9762 12.2326 49.9173 12.5489 49.5068 13.3832ZM65.7635 16.1336C64.9023 16.5693 64.6011 16.6315 63.3496 16.6315C62.098 16.6315 61.7818 16.5643 60.971 16.1656C59.8119 15.597 58.7572 14.4851 58.1684 13.2133C57.8101 12.4395 57.7294 12.019 57.7378 10.9962C57.763 8.3047 59.2484 6.26757 61.8037 5.42311C63.9585 4.71154 66.3977 5.54255 67.8141 7.47202C68.6098 8.55703 68.9193 9.51588 68.926 10.9121C68.9361 13.1713 67.7519 15.126 65.7635 16.1336ZM0 10.7607C0 16.6332 0.0571945 21.4611 0.126164 21.4897C0.195134 21.5183 1.33061 21.5183 2.64945 21.4897L5.04657 21.4393V13.2134H14.2986V16.788C14.302 18.7545 14.3474 20.6318 14.4012 20.9598L14.5005 21.557L16.9228 21.5486L19.3452 21.5402V10.8162L19.3469 0.092272H14.4685V3.52058C14.4685 5.40631 14.4214 7.18439 14.3642 7.47372L14.2599 7.99857H5.05666L5.01125 4.08747L4.96582 0.176381L2.4846 0.12928L0.0033651 0.0821793V10.759L0 10.7607ZM20.3293 21.4006C20.1661 21.1449 20.1375 0.347965 20.299 0.186475L20.2973 0.184791C20.5261 -0.0456693 28.1313 0.0687175 29.3138 0.319364C31.3358 0.748322 33.2855 2.10248 34.5269 3.94112L34.9239 4.52989L34.2813 5.79153C33.3343 7.65203 33.0567 8.88676 33.055 11.2586C33.0541 12.5132 33.0641 13.0487 32.8251 13.4271C32.6341 13.7296 32.284 13.9316 31.642 14.3202L30.9035 14.7677L31.3224 15.1159C33.272 16.7359 37.6205 20.181 38.4229 20.7411L39.4187 21.4376H31.3476L28.4155 19.0253L25.4852 16.6131L25.4011 19.0674L25.3169 21.5217L22.8912 21.5688C21.0644 21.6041 20.4319 21.5621 20.3293 21.4006ZM25.3674 8.14491C25.3388 6.84795 25.3422 5.71247 25.3725 5.62163V5.62331C25.4027 5.53247 26.047 5.46014 26.8023 5.46182C29.1473 5.46855 30.2777 6.29619 30.2777 8.01034C30.2794 9.55795 28.9404 10.4933 26.7132 10.5L25.4179 10.5033L25.3674 8.14491Z" fill="white"/>
</svg>
